<svg width="32" height="33" viewBox="0 0 32 33" fill="none" xmlns="http://www.w3.org/2000/svg">
<path d="M9.77778 2.89746C5.48289 2.89746 2 6.38035 2 10.6752V23.1197C2 27.4146 5.48289 30.8975 9.77778 30.8975H22.2222C26.5171 30.8975 30 27.4146 30 23.1197V10.6752C30 6.38035 26.5171 2.89746 22.2222 2.89746H9.77778ZM25.3333 6.00857C26.192 6.00857 26.8889 6.70546 26.8889 7.56413C26.8889 8.42279 26.192 9.11968 25.3333 9.11968C24.4747 9.11968 23.7778 8.42279 23.7778 7.56413C23.7778 6.70546 24.4747 6.00857 25.3333 6.00857ZM16 9.11968C20.2949 9.11968 23.7778 12.6026 23.7778 16.8975C23.7778 21.1924 20.2949 24.6752 16 24.6752C11.7051 24.6752 8.22222 21.1924 8.22222 16.8975C8.22222 12.6026 11.7051 9.11968 16 9.11968ZM16 12.2308C14.7623 12.2308 13.5753 12.7225 12.7002 13.5976C11.825 14.4728 11.3333 15.6598 11.3333 16.8975C11.3333 18.1351 11.825 19.3221 12.7002 20.1973C13.5753 21.0725 14.7623 21.5641 16 21.5641C17.2377 21.5641 18.4247 21.0725 19.2998 20.1973C20.175 19.3221 20.6667 18.1351 20.6667 16.8975C20.6667 15.6598 20.175 14.4728 19.2998 13.5976C18.4247 12.7225 17.2377 12.2308 16 12.2308Z" fill="white"/>
</svg>
