<svg width="124" height="56" viewBox="0 0 124 56" fill="none" xmlns="http://www.w3.org/2000/svg">
<path d="M41.2175 37.7164L22.8317 48.3325V46.0581L39.2475 36.5792V18.782L38.5786 19.1666V36.1912L22.8317 45.2821V43.0077L36.6085 35.054V20.3038L35.9396 20.6885V34.666L22.8317 42.2317V39.9573L33.9696 33.5288V21.829L33.3006 22.2136V33.1408L22.8317 39.1847V36.9103L31.3306 32.0036V23.3508L30.6616 23.7355V31.6156L22.8317 36.1343V33.8599L28.6916 30.4784V24.8727L28.0227 25.2573V30.0904L22.8317 33.0873V31.0303L26.2399 29.0636V26.2875L25.571 26.6721V28.679L22.8317 30.261V27.0969L41.9701 16.0493L41.3012 15.6647L22.1627 26.7156V30.6523L20.1927 31.7895V25.5784L39.3311 14.5308L38.6622 14.1462L19.5238 25.1971V32.1809L17.5537 33.3181V24.0599L36.6922 13.0123L36.0232 12.6277L16.8848 23.6786V33.7094L14.9148 34.8466V22.5414L34.0532 11.4938L33.3842 11.1092L14.2458 22.1601V35.2379L12.2758 36.3751V21.0229L31.4142 9.972L30.7453 9.58736L11.6068 20.6383V36.7631L9.6368 37.9003V19.4977L28.7752 8.45016L28.1063 8.06552L8.96786 19.1164V38.2883L7.18847 39.3151V17.8488L26.1363 6.90825L25.4707 6.52026L6.51953 17.4608V40.4557L8.96786 39.0409V41.8705L11.6068 40.3453V43.3923L14.2458 41.8672V44.9142L16.8848 43.389V46.436L19.5238 44.9108V47.9579L22.1627 46.4327V49.4797L41.8865 38.091V17.2467L41.2175 17.6314V37.703V37.7164ZM22.1627 42.6197L20.1927 43.7569V41.4825L22.1627 40.3453V42.6197ZM22.1627 39.5727L20.1927 40.7099V38.4355L22.1627 37.2983V39.5727ZM17.5537 36.9136L19.5238 35.7764V38.0508L17.5537 39.188V36.9136ZM16.8848 39.5727L14.9148 40.7099V38.4355L16.8848 37.2983V39.5727ZM19.5238 38.8235V41.0979L17.5537 42.2351V39.9607L19.5238 38.8235ZM22.1627 36.5257L20.1927 37.6629V35.3885L22.1627 34.2513V36.5257ZM22.1627 31.4216V33.4786L20.1927 34.6158V32.5588L22.1627 31.4216ZM19.5238 32.9468V35.0038L17.5537 36.141V34.084L19.5238 32.9468ZM16.8848 34.4687V36.5257L14.9148 37.6629V35.6059L16.8848 34.4687ZM14.2458 35.9938V38.0508L12.2758 39.188V37.131L14.2458 35.9938ZM9.6368 40.7099V38.6529L11.6068 37.5157V39.5727L9.6368 40.7099ZM12.2758 42.2351V39.9607L14.2458 38.8235V41.0979L12.2758 42.2351ZM14.9148 43.7603V41.4859L16.8848 40.3487V42.6231L14.9148 43.7603ZM17.5537 45.2821V43.0077L19.5238 41.8705V44.1449L17.5537 45.2821ZM20.1927 46.8073V44.5329L22.1627 43.3957V45.6701L20.1927 46.8073Z" fill="white"/>
<path d="M52.8979 18.0205H56.9275C59.5747 18.0205 60.5788 18.9594 60.5788 21.4632V23.7062C60.5788 26.2099 59.5747 27.1489 56.9275 27.1489H52.8979C50.2637 27.1489 49.2466 26.2099 49.2466 23.7062V21.4632C49.2466 18.9594 50.2637 18.0205 52.8979 18.0205ZM51.2418 21.6066V23.5627C51.2418 24.932 51.633 25.3362 52.9762 25.3362H56.8492C58.1924 25.3362 58.5836 24.932 58.5836 23.5627V21.6066C58.5836 20.2374 58.1924 19.8331 56.8492 19.8331H52.9762C51.633 19.8331 51.2418 20.2374 51.2418 21.6066ZM65.7475 18.0205H71.4853C71.6809 18.0205 71.7852 18.1118 71.7852 18.3074V19.5462C71.7852 19.7418 71.6809 19.8331 71.4853 19.8331H65.8257C64.4825 19.8331 64.0913 20.2374 64.0913 21.6066V21.8674H71.4201C71.6157 21.8674 71.707 21.9587 71.707 22.1543V23.1845C71.707 23.3801 71.6157 23.4714 71.4201 23.4714H64.0913V26.862C64.0913 27.0576 64 27.1489 63.8044 27.1489H62.396C62.2004 27.1489 62.0961 27.0576 62.0961 26.862V21.4632C62.0961 18.9594 63.1133 18.0205 65.7475 18.0205ZM76.6231 18.0205H82.3609C82.5565 18.0205 82.6609 18.1118 82.6609 18.3074V19.5462C82.6609 19.7418 82.5565 19.8331 82.3609 19.8331H76.7013C75.3582 19.8331 74.9669 20.2374 74.9669 21.6066V21.8674H82.2957C82.4913 21.8674 82.5826 21.9587 82.5826 22.1543V23.1845C82.5826 23.3801 82.4913 23.4714 82.2957 23.4714H74.9669V26.862C74.9669 27.0576 74.8757 27.1489 74.68 27.1489H73.2717C73.0761 27.1489 72.9717 27.0576 72.9717 26.862V21.4632C72.9717 18.9594 73.9889 18.0205 76.6231 18.0205ZM84.3429 18.0205H90.4459C93.2757 18.0205 94.4363 19.155 94.4363 21.6979V23.4714C94.4363 26.0143 93.2757 27.1489 90.4459 27.1489H84.3429C84.0821 27.1489 83.9517 27.0185 83.9517 26.7576V18.4117C83.9517 18.1509 84.0821 18.0205 84.3429 18.0205ZM85.9469 20.0157V25.1667C85.9469 25.2841 85.999 25.3362 86.1164 25.3362H90.3937C91.9325 25.3362 92.4411 24.8407 92.4411 23.3019V21.8674C92.4411 20.3287 91.9325 19.8331 90.3937 19.8331H86.1164C85.999 19.8331 85.9469 19.8853 85.9469 20.0157ZM96.1799 19.9896H101.813C104.161 19.9896 104.917 20.746 104.917 22.6368V26.1056C104.917 26.9533 104.708 27.1489 103.952 27.1489H97.7448C96.206 27.1489 95.7366 26.5881 95.7366 25.2971V24.6712C95.7366 23.5758 96.206 22.9628 97.7448 22.9628H103.052V22.7151C103.052 21.8805 102.765 21.5545 101.631 21.5545H96.1799C96.0235 21.5545 95.9452 21.4893 95.9452 21.3197V20.2243C95.9452 20.0678 96.0235 19.9896 96.1799 19.9896ZM102.674 25.7144C102.948 25.7144 103.052 25.597 103.052 25.271V24.1235H98.2795C97.7448 24.1235 97.5492 24.3451 97.5492 24.7624V25.0363C97.5492 25.5058 97.7448 25.7144 98.2795 25.7144H102.674ZM113.937 19.9896H115.398C115.58 19.9896 115.659 20.1461 115.567 20.3156L110.56 29.1441C110.221 29.7439 109.621 30.0308 108.499 30.0308H107.586C107.43 30.0308 107.352 29.9526 107.352 29.7961V28.7268C107.352 28.5703 107.43 28.492 107.586 28.492H108.356C108.708 28.492 108.904 28.4008 109.021 28.1921L109.725 26.9533C109.295 26.9141 109.099 26.7576 108.891 26.3925L105.37 20.3156C105.278 20.1461 105.357 19.9896 105.539 19.9896H107.039C107.195 19.9896 107.287 20.0418 107.352 20.1722L110.247 25.1928C110.39 25.4275 110.442 25.4927 110.56 25.4927L113.624 20.1722C113.689 20.0418 113.781 19.9896 113.937 19.9896Z" fill="white"/>
<path d="M50.4259 33.0478V36.8511H49.7001V33.0478H48.9742V32.4958H49.7001V32.458C49.7001 32.1631 49.7328 31.9174 49.7983 31.7208C49.8639 31.5242 49.9723 31.3666 50.1235 31.2482C50.2747 31.1297 50.4738 31.0465 50.7208 30.9986C50.9704 30.9482 51.2766 30.923 51.6395 30.923H52.4826V31.5279H51.6358C51.4064 31.5279 51.2148 31.533 51.0611 31.5431C50.9073 31.5531 50.7826 31.5872 50.6868 31.6451C50.5936 31.7031 50.5268 31.7951 50.4864 31.9211C50.4461 32.0472 50.4259 32.2261 50.4259 32.458V32.4958H52.4826V33.0478H50.4259ZM55.5072 36.9343C55.0232 36.9343 54.6124 36.9015 54.2747 36.836C53.9369 36.768 53.6622 36.652 53.4505 36.4882C53.2388 36.3244 53.085 36.1051 52.9892 35.8304C52.8935 35.5556 52.8456 35.2103 52.8456 34.7944C52.8456 34.3181 52.8935 33.9249 52.9892 33.6149C53.085 33.3023 53.2388 33.0541 53.4505 32.8701C53.6622 32.6861 53.9369 32.5575 54.2747 32.4845C54.6124 32.4114 55.0232 32.3748 55.5072 32.3748C55.8525 32.3748 56.1511 32.4 56.4032 32.4504C56.6578 32.5008 56.8745 32.5739 57.0535 32.6697C57.2349 32.7655 57.3811 32.8814 57.492 33.0175C57.6054 33.1536 57.6937 33.2973 57.7567 33.4485C57.8222 33.5972 57.8663 33.7724 57.889 33.974C57.9142 34.1757 57.9268 34.3887 57.9268 34.613L57.8663 34.8549H53.5715C53.5715 35.1876 53.6042 35.4611 53.6698 35.6753C53.7353 35.8871 53.8437 36.0421 53.9949 36.1404C54.1461 36.2387 54.3452 36.3017 54.5922 36.3294C54.8393 36.3546 55.1442 36.3672 55.5072 36.3672C55.8399 36.3672 56.1146 36.3584 56.3314 36.3407C56.5506 36.3206 56.7245 36.284 56.8531 36.2311C56.9816 36.1782 57.0711 36.1051 57.1215 36.0118C57.1745 35.916 57.2009 35.7925 57.2009 35.6413H57.9268C57.9268 35.8757 57.8852 36.0761 57.802 36.2424C57.7214 36.4063 57.5865 36.5399 57.3975 36.6432C57.2085 36.744 56.959 36.8171 56.6489 36.8625C56.3414 36.9104 55.9609 36.9343 55.5072 36.9343ZM55.5072 32.9797C55.2652 32.9797 55.0484 32.9848 54.8569 32.9948C54.6679 33.0049 54.5015 33.0276 54.3578 33.0629C54.2167 33.0957 54.0957 33.1448 53.9949 33.2103C53.8941 33.2734 53.8122 33.349 53.7492 33.4372C53.6887 33.5229 53.6433 33.6451 53.6131 33.8039C53.5853 33.9602 53.5715 34.1492 53.5715 34.371H57.2009C57.2009 34.0761 57.1694 33.8455 57.1064 33.6791C57.0434 33.5103 56.9438 33.3717 56.8077 33.2633C56.6716 33.1549 56.4964 33.0805 56.2822 33.0402C56.068 32.9999 55.8096 32.9797 55.5072 32.9797ZM61.4353 34.8663C61.0925 34.8663 60.7913 34.8612 60.5317 34.8512C60.2721 34.8411 60.0478 34.8209 59.8587 34.7907C59.6722 34.7579 59.516 34.7125 59.3899 34.6546C59.2664 34.5966 59.1681 34.5197 59.095 34.4239C59.0219 34.3256 58.9703 34.2059 58.94 34.0648C58.9098 33.9211 58.8947 33.7661 58.8947 33.5998C58.8947 33.3729 58.9425 33.1826 59.0383 33.0289C59.1341 32.8726 59.2878 32.7466 59.4996 32.6508C59.7113 32.5525 59.986 32.4819 60.3238 32.4391C60.6615 32.3962 61.0723 32.3748 61.5563 32.3748C62.0351 32.3748 62.4296 32.4 62.7396 32.4504C63.0521 32.5008 63.2991 32.579 63.4806 32.6848C63.6646 32.7882 63.7932 32.9192 63.8662 33.078C63.9393 33.2368 63.9759 33.4258 63.9759 33.6451H63.25C63.25 33.509 63.2235 33.3981 63.1706 33.3124C63.1202 33.2267 63.0307 33.1599 62.9022 33.112C62.7736 33.0616 62.5997 33.0276 62.3804 33.01C62.1637 32.9898 61.889 32.9797 61.5563 32.9797C61.1933 32.9797 60.8883 32.9848 60.6413 32.9948C60.3943 33.0049 60.1952 33.0301 60.044 33.0705C59.8928 33.1108 59.7844 33.1725 59.7188 33.2557C59.6533 33.3389 59.6205 33.4536 59.6205 33.5998C59.6205 33.6854 59.6256 33.7699 59.6357 33.8531C59.6483 33.9337 59.6747 34.0005 59.7151 34.0534C59.7554 34.1064 59.8146 34.1467 59.8928 34.1744C59.9709 34.2021 60.0768 34.2236 60.2103 34.2387C60.3464 34.2513 60.514 34.2589 60.7132 34.2614C60.9123 34.2614 61.153 34.2614 61.4353 34.2614C61.7781 34.2614 62.078 34.2689 62.3351 34.2841C62.5947 34.2992 62.819 34.3256 63.008 34.3634C63.1971 34.4013 63.3533 34.4592 63.4768 34.5374C63.6003 34.6155 63.6986 34.7012 63.7717 34.7944C63.8473 34.8852 63.9003 34.9936 63.9305 35.1196C63.9608 35.2431 63.9759 35.3868 63.9759 35.5506C63.9759 35.7144 63.9608 35.8619 63.9305 35.9929C63.9003 36.1215 63.8473 36.2361 63.7717 36.337C63.6961 36.4353 63.5928 36.521 63.4617 36.594C63.3332 36.6646 63.1706 36.7226 62.974 36.768C62.7774 36.8108 62.5418 36.8423 62.267 36.8625C61.9948 36.8852 61.6772 36.8965 61.3143 36.8965C60.8606 36.8965 60.4788 36.8738 60.1687 36.8285C59.8613 36.7831 59.613 36.7113 59.424 36.613C59.2349 36.5121 59.0988 36.3823 59.0156 36.2235C58.935 36.0648 58.8947 35.8707 58.8947 35.6413H59.6205C59.6205 35.7925 59.6458 35.916 59.6962 36.0118C59.7491 36.1051 59.8398 36.1782 59.9684 36.2311C60.0969 36.284 60.2696 36.3206 60.4863 36.3407C60.7056 36.3584 60.9816 36.3672 61.3143 36.3672C61.6167 36.3672 61.8738 36.3609 62.0856 36.3483C62.2998 36.3332 62.4787 36.3105 62.6224 36.2803C62.7661 36.25 62.8795 36.2135 62.9627 36.1706C63.0458 36.1278 63.1089 36.0761 63.1517 36.0156C63.1945 35.9551 63.221 35.8883 63.2311 35.8152C63.2437 35.7396 63.25 35.6564 63.25 35.5657C63.25 35.4825 63.2437 35.4094 63.2311 35.3464C63.221 35.2809 63.1958 35.2166 63.1555 35.1536C63.1152 35.0881 63.0559 35.0389 62.9778 35.0062C62.8997 34.9734 62.7925 34.9469 62.6564 34.9268C62.5228 34.9041 62.3565 34.889 62.1574 34.8814C61.9583 34.8713 61.7176 34.8663 61.4353 34.8663ZM69.1781 34.9154C69.1781 35.2859 69.1479 35.596 69.0874 35.8455C69.0269 36.0925 68.9248 36.2903 68.7811 36.439C68.64 36.5877 68.4535 36.6936 68.2216 36.7566C67.9897 36.8196 67.7036 36.8511 67.3634 36.8511C67.0332 36.8511 66.7559 36.8259 66.5316 36.7755C66.3073 36.7251 66.1258 36.6394 65.9872 36.5184C65.8486 36.3975 65.749 36.2361 65.6885 36.0345C65.628 35.8329 65.5978 35.5808 65.5978 35.2784V33.0931H64.7018V32.4958H65.5978V31.3049H66.3237V32.4958H69.0571V33.0931H66.3237V35.2784C66.3237 35.5203 66.3413 35.7069 66.3766 35.8379C66.4144 35.969 66.4737 36.0648 66.5543 36.1252C66.635 36.1857 66.7408 36.221 66.8719 36.2311C67.0055 36.2412 67.168 36.2462 67.3596 36.2462C67.5108 36.2462 67.6457 36.2437 67.7641 36.2387C67.8851 36.2336 67.9897 36.2185 68.0779 36.1933C68.1687 36.1656 68.2455 36.1252 68.3085 36.0723C68.3716 36.0169 68.422 35.94 68.4598 35.8417C68.5001 35.7434 68.5291 35.6199 68.5467 35.4712C68.5644 35.32 68.5732 35.1347 68.5732 34.9154H69.1781ZM70.3879 32.4958H71.1138V36.8511H70.3879V32.4958ZM71.1138 31.7699H70.3879V31.044H71.1138V31.7699ZM74.3803 36.8511L72.0817 32.4958H72.9285L74.8642 36.3672L76.7999 32.4958H77.6468L75.3482 36.8511H74.3803ZM82.4672 36.2538C82.4596 36.284 82.4029 36.3596 82.2971 36.4806C82.2214 36.5714 82.1206 36.652 81.9946 36.7226C81.8686 36.7906 81.6997 36.8436 81.488 36.8814C81.2788 36.9217 81.0028 36.9419 80.66 36.9419C80.2038 36.9419 79.8144 36.9179 79.4918 36.87C79.1692 36.8247 78.9058 36.7541 78.7016 36.6583C78.4975 36.56 78.3475 36.4353 78.2517 36.284C78.1585 36.1328 78.1118 35.9526 78.1118 35.7434C78.1118 35.5241 78.137 35.3389 78.1875 35.1876C78.2404 35.0339 78.316 34.9053 78.4143 34.802C78.5151 34.6987 78.6361 34.618 78.7772 34.56C78.9184 34.5021 79.0784 34.458 79.2574 34.4277C79.4389 34.3975 79.6367 34.3786 79.851 34.371C80.0652 34.3634 80.2933 34.3597 80.5353 34.3597C80.8806 34.3597 81.1691 34.3748 81.401 34.405C81.6329 34.4328 81.8219 34.4693 81.9681 34.5147C82.1168 34.5575 82.229 34.6042 82.3046 34.6546C82.3802 34.705 82.4344 34.7516 82.4672 34.7944C82.4672 34.5122 82.4546 34.2715 82.4294 34.0723C82.4067 33.8732 82.3676 33.7069 82.3122 33.5733C82.2592 33.4397 82.1899 33.3338 82.1042 33.2557C82.0185 33.1751 81.9127 33.1146 81.7867 33.0742C81.6632 33.0339 81.5182 33.0087 81.3519 32.9986C81.1855 32.986 80.9952 32.9797 80.781 32.9797C80.4483 32.9797 80.1723 32.9885 79.953 33.0062C79.7338 33.0213 79.5598 33.0528 79.4313 33.1007C79.3028 33.1486 79.212 33.2154 79.1591 33.3011C79.1062 33.3843 79.0797 33.4939 79.0797 33.63H78.3538C78.3538 33.4006 78.3941 33.2066 78.4748 33.0478C78.558 32.889 78.6941 32.7604 78.8831 32.6621C79.0747 32.5613 79.3254 32.4882 79.6355 32.4429C79.9455 32.3975 80.3273 32.3748 80.781 32.3748C81.2246 32.3748 81.6001 32.4114 81.9076 32.4845C82.2151 32.5575 82.4634 32.6861 82.6524 32.8701C82.844 33.0541 82.9814 33.3023 83.0645 33.6149C83.1502 33.9249 83.1931 34.3181 83.1931 34.7944V36.8511H82.4672V36.2538ZM80.781 36.3672C81.1011 36.3672 81.3683 36.3521 81.5825 36.3218C81.7993 36.2916 81.9732 36.2462 82.1042 36.1857C82.2353 36.1252 82.3286 36.0496 82.384 35.9589C82.4395 35.8682 82.4672 35.7623 82.4672 35.6413C82.4672 35.5203 82.4344 35.4183 82.3689 35.3351C82.3059 35.2494 82.1988 35.1801 82.0475 35.1271C81.8988 35.0742 81.701 35.0364 81.454 35.0137C81.207 34.9885 80.902 34.9759 80.539 34.9759C80.1761 34.9759 79.8825 34.9822 79.6581 34.9948C79.4363 35.0074 79.2649 35.0364 79.144 35.0818C79.023 35.1271 78.9411 35.1939 78.8982 35.2822C78.8579 35.3704 78.8377 35.4901 78.8377 35.6413C78.8377 35.7925 78.8592 35.916 78.902 36.0118C78.9474 36.1051 79.0381 36.1782 79.1742 36.2311C79.3103 36.284 79.5057 36.3206 79.7602 36.3407C80.0173 36.3584 80.3576 36.3672 80.781 36.3672ZM84.4067 31.044H85.1326V36.8511H84.4067V31.044Z" fill="white"/>
</svg>
