<svg width="124" height="56" viewBox="0 0 124 56" fill="none" xmlns="http://www.w3.org/2000/svg">
    <path d="M41.2185 37.7164L22.8327 48.3325V46.0581L39.2485 36.5792V18.782L38.5796 19.1666V36.1912L22.8327 45.2821V43.0077L36.6095 35.054V20.3038L35.9406 20.6885V34.666L22.8327 42.2317V39.9573L33.9705 33.5288V21.829L33.3016 22.2137V33.1408L22.8327 39.1847V36.9103L31.3316 32.0036V23.3509L30.6626 23.7355V31.6156L22.8327 36.1343V33.8599L28.6926 30.4784V24.8727L28.0236 25.2573V30.0904L22.8327 33.0873V31.0303L26.2409 29.0636V26.2875L25.572 26.6722V28.679L22.8327 30.261V27.0969L41.9711 16.0494L41.3021 15.6647L22.1637 26.7156V30.6524L20.1937 31.7896V25.5784L39.3321 14.5309L38.6632 14.1462L19.5247 25.1971V32.1809L17.5547 33.3181V24.0599L36.6931 13.0124L36.0242 12.6277L16.8858 23.6786V33.7094L14.9157 34.8466V22.5414L34.0542 11.4939L33.3852 11.1092L14.2468 22.1601V35.238L12.2768 36.3752V21.0229L31.4152 9.97202L30.7462 9.58737L11.6078 20.6383V36.7631L9.63778 37.9003V19.4977L28.7762 8.45017L28.1073 8.06553L8.96884 19.1165V38.2883L7.18945 39.3152V17.8488L26.1372 6.90826L25.4716 6.52028L6.52051 17.4608V40.4557L8.96884 39.0409V41.8705L11.6078 40.3453V43.3924L14.2468 41.8672V44.9142L16.8858 43.389V46.436L19.5247 44.9109V47.9579L22.1637 46.4327V49.4797L41.8875 38.091V17.2468L41.2185 17.6314V37.703V37.7164ZM22.1637 42.6197L20.1937 43.7569V41.4825L22.1637 40.3453V42.6197ZM22.1637 39.5727L20.1937 40.7099V38.4355L22.1637 37.2983V39.5727ZM17.5547 36.9137L19.5247 35.7765V38.0509L17.5547 39.1881V36.9137ZM16.8858 39.5727L14.9157 40.7099V38.4355L16.8858 37.2983V39.5727ZM19.5247 38.8235V41.0979L17.5547 42.2351V39.9607L19.5247 38.8235ZM22.1637 36.5257L20.1937 37.6629V35.3885L22.1637 34.2513V36.5257ZM22.1637 31.4216V33.4786L20.1937 34.6158V32.5588L22.1637 31.4216ZM19.5247 32.9468V35.0038L17.5547 36.141V34.084L19.5247 32.9468ZM16.8858 34.4687V36.5257L14.9157 37.6629V35.6059L16.8858 34.4687ZM14.2468 35.9939V38.0509L12.2768 39.1881V37.1311L14.2468 35.9939ZM9.63778 40.7099V38.6529L11.6078 37.5157V39.5727L9.63778 40.7099ZM12.2768 42.2351V39.9607L14.2468 38.8235V41.0979L12.2768 42.2351ZM14.9157 43.7603V41.4859L16.8858 40.3487V42.6231L14.9157 43.7603ZM17.5547 45.2821V43.0077L19.5247 41.8705V44.1449L17.5547 45.2821ZM20.1937 46.8073V44.5329L22.1637 43.3957V45.6701L20.1937 46.8073Z" fill="white"/>
    <path d="M52.8989 22.3716H56.9284C59.5757 22.3716 60.5798 23.3105 60.5798 25.8143V28.0573C60.5798 30.5611 59.5757 31.5 56.9284 31.5H52.8989C50.2647 31.5 49.2476 30.5611 49.2476 28.0573V25.8143C49.2476 23.3105 50.2647 22.3716 52.8989 22.3716ZM51.2428 25.9578V27.9138C51.2428 29.2831 51.634 29.6874 52.9772 29.6874H56.8502C58.1934 29.6874 58.5846 29.2831 58.5846 27.9138V25.9578C58.5846 24.5885 58.1934 24.1843 56.8502 24.1843H52.9772C51.634 24.1843 51.2428 24.5885 51.2428 25.9578ZM65.7484 22.3716H71.4863C71.6819 22.3716 71.7862 22.4629 71.7862 22.6585V23.8974C71.7862 24.093 71.6819 24.1843 71.4863 24.1843H65.8267C64.4835 24.1843 64.0923 24.5885 64.0923 25.9578V26.2186H71.4211C71.6167 26.2186 71.708 26.3099 71.708 26.5055V27.5357C71.708 27.7313 71.6167 27.8226 71.4211 27.8226H64.0923V31.2131C64.0923 31.4087 64.001 31.5 63.8054 31.5H62.397C62.2014 31.5 62.0971 31.4087 62.0971 31.2131V25.8143C62.0971 23.3105 63.1143 22.3716 65.7484 22.3716ZM76.6241 22.3716H82.3619C82.5575 22.3716 82.6618 22.4629 82.6618 22.6585V23.8974C82.6618 24.093 82.5575 24.1843 82.3619 24.1843H76.7023C75.3591 24.1843 74.9679 24.5885 74.9679 25.9578V26.2186H82.2967C82.4923 26.2186 82.5836 26.3099 82.5836 26.5055V27.5357C82.5836 27.7313 82.4923 27.8226 82.2967 27.8226H74.9679V31.2131C74.9679 31.4087 74.8766 31.5 74.681 31.5H73.2726C73.077 31.5 72.9727 31.4087 72.9727 31.2131V25.8143C72.9727 23.3105 73.9899 22.3716 76.6241 22.3716ZM84.3439 22.3716H90.4468C93.2766 22.3716 94.4373 23.5061 94.4373 26.049V27.8226C94.4373 30.3655 93.2766 31.5 90.4468 31.5H84.3439C84.0831 31.5 83.9526 31.3696 83.9526 31.1088V22.7628C83.9526 22.502 84.0831 22.3716 84.3439 22.3716ZM85.9479 24.3668V29.5178C85.9479 29.6352 86 29.6874 86.1174 29.6874H90.3947C91.9335 29.6874 92.442 29.1918 92.442 27.653V26.2186C92.442 24.6798 91.9335 24.1843 90.3947 24.1843H86.1174C86 24.1843 85.9479 24.2364 85.9479 24.3668ZM96.1809 24.3407H101.814C104.162 24.3407 104.918 25.0971 104.918 26.988V30.4568C104.918 31.3044 104.709 31.5 103.953 31.5H97.7458C96.207 31.5 95.7375 30.9393 95.7375 29.6482V29.0223C95.7375 27.9269 96.207 27.314 97.7458 27.314H103.053V27.0662C103.053 26.2316 102.766 25.9056 101.632 25.9056H96.1809C96.0244 25.9056 95.9462 25.8404 95.9462 25.6709V24.5755C95.9462 24.419 96.0244 24.3407 96.1809 24.3407ZM102.675 30.0655C102.949 30.0655 103.053 29.9482 103.053 29.6222V28.4746H98.2804C97.7458 28.4746 97.5502 28.6963 97.5502 29.1136V29.3874C97.5502 29.8569 97.7458 30.0655 98.2804 30.0655H102.675ZM113.938 24.3407H115.399C115.581 24.3407 115.66 24.4972 115.568 24.6668L110.561 33.4952C110.222 34.0951 109.622 34.382 108.5 34.382H107.587C107.431 34.382 107.353 34.3037 107.353 34.1472V33.0779C107.353 32.9214 107.431 32.8432 107.587 32.8432H108.357C108.709 32.8432 108.905 32.7519 109.022 32.5432L109.726 31.3044C109.296 31.2653 109.1 31.1088 108.891 30.7436L105.371 24.6668C105.279 24.4972 105.357 24.3407 105.54 24.3407H107.04C107.196 24.3407 107.287 24.3929 107.353 24.5233L110.248 29.5439C110.391 29.7786 110.443 29.8438 110.561 29.8438L113.625 24.5233C113.69 24.3929 113.782 24.3407 113.938 24.3407Z" fill="white"/>
</svg>
