<svg width="100" height="22" viewBox="0 0 101 22" fill="none" xmlns="http://www.w3.org/2000/svg">
<path d="M58.5674 1.02637C58.5674 1.02637 58.8993 1.32772 58.8936 1.72481V20.1586C58.8993 20.5557 58.5674 20.857 58.5674 20.857H68.5734V16.0085C68.5734 16.0085 68.4828 16.4727 67.8452 16.4612H64.5203V1.72481C64.5147 1.32772 64.8465 1.02637 64.8465 1.02637H58.5674ZM92.1813 1.02637H83.6857V5.96163C83.6857 5.96163 83.7763 5.49738 84.4139 5.50886H86.9384V20.1586C86.944 20.5557 86.6121 20.857 86.6121 20.857H92.891C92.891 20.857 92.5591 20.5557 92.5647 20.1586V3.38496L92.1813 1.02637Z" fill="black"/>
<path d="M95.7212 1.02637V5.96163C95.7212 5.96163 95.6306 5.49738 94.993 5.50886H90.7303C90.7169 4.01209 90.6717 2.47527 90.5308 1.02637H95.7212Z" fill="black"/>
<path d="M97.4201 21.2967C99.121 21.2967 100.5 19.8863 100.5 18.1464C100.5 16.4065 99.121 14.9961 97.4201 14.9961C95.7192 14.9961 94.3403 16.4065 94.3403 18.1464C94.3403 19.8863 95.7192 21.2967 97.4201 21.2967Z" fill="black"/>
<path d="M99.2108 2.61533C99.2814 2.58651 99.3437 2.54768 99.3981 2.49835C99.4526 2.44902 99.4948 2.38895 99.5256 2.31788C99.5564 2.24682 99.5715 2.16378 99.5715 2.06879C99.5715 1.8722 99.5112 1.72225 99.3898 1.6187C99.2687 1.5154 99.076 1.46363 98.8115 1.46363H97.916V3.64932H98.2039V2.67882H98.687L99.3437 3.64981H99.6804L98.9857 2.67882C99.065 2.66539 99.1402 2.64415 99.2108 2.61533ZM98.5837 2.45H98.2039V1.6927H98.7305C98.8027 1.6927 98.8714 1.69783 98.9366 1.70784C99.002 1.7181 99.0606 1.73764 99.1131 1.76645C99.1656 1.79503 99.2074 1.83312 99.2379 1.88074C99.2689 1.92812 99.2843 1.99088 99.2843 2.06903C99.2843 2.16036 99.2641 2.23241 99.2245 2.28516C99.1843 2.33791 99.1294 2.37766 99.0667 2.39945C98.9942 2.42464 98.9183 2.4392 98.8416 2.44267C98.7566 2.44756 98.6706 2.45 98.5837 2.45ZM98.6081 0.609381C97.5661 0.610113 96.7282 1.4861 96.726 2.56258C96.7282 3.63857 97.5661 4.5148 98.6081 4.51529C99.6499 4.5148 100.488 3.63857 100.49 2.56258C100.488 1.4861 99.6499 0.610113 98.6081 0.609381ZM98.6081 4.34459C97.6662 4.34263 96.8974 3.54919 96.8974 2.56258C96.8974 1.57572 97.6659 0.782526 98.6081 0.780328C99.5498 0.782526 100.319 1.57572 100.319 2.56258C100.319 3.54919 99.55 4.34263 98.6081 4.34459ZM50.4951 0.589844C44.9088 0.589844 43.0162 5.26184 43.0162 10.9854C43.0162 16.8289 45.0358 21.3749 50.4695 21.3749C55.9032 21.3749 57.9743 16.9217 57.9743 10.9854C57.9743 5.09969 55.8985 0.589844 50.4951 0.589844ZM52.1743 12.0221C52.1743 15.8823 51.4226 16.9532 50.4954 16.9532C49.5681 16.9532 48.8164 15.9195 48.8164 12.0221V9.70233C48.8164 6.06457 49.5681 5.00664 50.4954 5.00664C51.4226 5.00664 52.1743 6.17593 52.1743 9.70233V12.0221ZM77.3197 15.064C77.3197 16.2523 76.709 16.876 75.9556 16.876C75.2022 16.876 74.5914 16.2445 74.5914 15.064L74.5909 14.9419V1.72469C74.5853 1.32761 74.9172 1.02625 74.9172 1.02625H68.6205C68.6205 1.02625 68.9523 1.32761 68.9467 1.72469V15.1131L68.9465 15.1734C68.9465 19.607 72.0817 21.3956 75.939 21.3956C79.7958 21.3956 82.911 19.3477 82.911 15.1651L82.9107 15.1241V1.72469C82.9051 1.32761 83.237 1.02625 83.237 1.02625H76.9918C76.9918 1.02625 77.3237 1.32761 77.318 1.72469V14.9919L77.3197 15.064ZM26.3385 10.593L26.3617 10.5881C28.3034 10.1348 29.5543 8.52695 29.5543 6.23234C29.5543 2.98897 27.2037 1.01843 22.7774 1.01843H16.4328C16.4328 1.01843 16.7647 1.31979 16.7591 1.71614V20.1238C16.7647 20.5201 16.4328 20.8215 16.4328 20.8215H23.5779L23.8456 20.8198C28.3298 20.8198 30.3533 18.4488 30.3533 15.423C30.3536 12.7303 28.7918 11.0638 26.3385 10.593ZM22.3173 5.0909H22.827C23.8593 5.0909 24.6964 5.73903 24.6964 7.04214C24.6964 8.11985 23.8593 8.99363 22.827 8.99363H22.3173V5.0909ZM22.9 16.794H22.3176V12.4871H22.8106C23.9902 12.4871 25.0364 13.1118 25.0364 14.6405C25.0361 16.0301 24.0795 16.794 22.9 16.794ZM8.56946 21.1067H8.59047L8.57996 21.1053L8.56946 21.1067ZM10.2609 20.831H16.4038C16.4038 20.831 16.1991 20.5455 15.9012 19.2151L11.9403 2.03997C11.9403 2.03997 11.7528 1.26338 12.2324 1.0221H5.0538C5.53343 1.26338 5.34588 2.03997 5.34588 2.03997L1.37623 19.1592C1.07829 20.4894 0.5 20.831 0.5 20.831H6.89882C6.50954 20.5915 6.5535 20.232 6.5535 20.232L6.93569 17.6648H10.2247L10.5681 20.0935C10.5681 20.0935 10.6482 20.5712 10.2609 20.831ZM7.50275 13.9846L8.62637 6.12562L9.71945 13.9846H7.50275ZM35.8359 16.8479C37.3082 16.8479 37.2127 15.5255 37.2127 15.5255C37.2171 14.5641 36.3902 13.9377 36.3902 13.9377L32.92 11.0247L32.8592 10.9727C31.7138 9.91748 30.9863 8.33671 30.9863 6.57008C30.9863 3.39241 33.2463 0.693389 37.0235 0.693389C38.1803 0.693389 39.3774 0.939554 40.3989 1.43628C40.3989 1.43628 40.9023 1.73251 41.3387 1.27437V6.46434C41.3387 6.46434 39.2309 4.98735 37.4909 4.98735C37.4909 4.98735 36.2088 4.97221 36.2088 6.17788C36.2088 6.17788 36.1936 6.83432 37.2315 7.62801C37.2315 7.62801 40.7421 10.1922 41.9326 12.1611C41.9326 12.1611 42.9243 13.7638 42.8025 15.6716C42.8025 15.6716 42.6193 21.4105 36.5751 21.4105C36.5751 21.4105 34.2141 21.432 32.1488 20.2505C32.1488 20.2505 31.4647 19.8244 31.0193 20.2369V14.3895C31.0193 14.3895 33.8145 16.8479 35.8359 16.8479Z" fill="black"/>
</svg>
