<svg width="102" height="32" viewBox="0 0 102 32" fill="none" xmlns="http://www.w3.org/2000/svg">
<g clip-path="url(#clip0_185_3562)">
<path d="M71.5527 2.72409C71.5527 2.72409 69.6782 3.47033 67.498 5.87327C65.3178 8.27621 64.048 10.9783 64.9877 11.6969C65.3486 11.97 66.1811 12.0221 67.6914 10.6564C69.0853 9.44618 70.1794 7.92909 70.8878 6.22445C71.8632 3.84589 71.5527 2.75335 71.5527 2.72734M83.4845 7.0471C81.062 5.80499 79.2915 4.28324 77.4495 3.34189C75.692 2.43957 74.5556 2.06239 73.1346 2.25261C72.9364 2.28794 72.7409 2.33683 72.5493 2.39893C72.5493 2.39893 73.2809 4.89779 70.3691 9.09562C67.4199 13.352 64.7438 13.3227 63.983 12.1538C63.1863 10.9198 64.2155 8.40465 65.9339 6.16592C67.7337 3.82476 70.8943 1.88355 70.8943 1.88355C70.8943 1.88355 69.8863 1.26737 67.4118 2.67044C64.9975 4.03286 60.8419 7.28447 56.9855 12.7683C53.1291 18.2521 52.365 21.2696 51.8122 23.6449C51.2594 26.0202 51.7618 28.5646 54.3956 28.5646C57.0294 28.5646 60.0957 24.5473 60.9606 23.1507C62.5685 20.5494 63.6172 16.5597 61.4288 17.1076C60.3509 17.3775 59.4779 18.5708 58.9267 19.7203C58.5788 20.4585 58.3127 21.2327 58.1333 22.0289C57.3686 22.3441 56.6505 22.7619 55.9986 23.271C55.2735 23.8081 54.5958 24.4065 53.9729 25.0594C53.9729 25.0594 53.9826 23.1605 55.4963 20.0877C57.0099 17.0149 59.7884 15.6118 61.3622 15.4802C62.7799 15.3663 64.6252 16.5694 63.0611 21.0079C61.4971 25.4463 56.8831 30.8424 52.0366 30.909C47.564 30.9708 44.6375 25.2626 50.8627 15.3013C57.7529 4.29624 65.8348 0.919446 68.4588 0.543885C71.0829 0.168324 71.9364 1.3259 71.9364 1.3259C73.516 0.67786 75.222 0.396583 76.926 0.50324C80.1305 0.719472 82.6082 2.98747 85.8793 4.58076C85.029 5.39366 84.2177 6.24721 83.4861 7.0471M97.881 3.34189C95.6601 4.7661 92.5874 6.05699 89.6349 5.7806C88.887 6.55286 88.0872 7.44705 87.2856 8.42253C92.4053 9.43541 96.8909 6.26347 99.2759 3.563C100.145 2.59209 100.892 1.51806 101.5 0.365046C100.414 1.49603 99.1989 2.4952 97.8794 3.34189M91.0624 17.766C91.1012 17.6985 91.1328 17.6271 91.1567 17.5531C91.1415 17.4358 91.0865 17.3273 91.001 17.2457C90.9155 17.164 90.8046 17.1141 90.6868 17.1043C90.1991 17.0816 89.5341 17.1742 87.7896 19.1057C86.3424 20.7007 85.0969 22.4677 84.0812 24.3668C83.0829 26.191 82.6781 27.5501 83.252 27.9013C83.4385 27.9979 83.6547 28.02 83.8568 27.9631C84.2454 27.8704 84.686 27.5062 85.3558 26.7307C85.6696 26.3665 86.0175 25.8512 86.4337 25.2805C87.588 23.71 90.4885 18.7659 91.0624 17.766ZM72.9412 19.8666C73.2322 19.1057 73.6029 17.6116 72.8322 17.0247C72.0047 16.402 69.8944 17.8636 69.883 19.3626C69.8684 20.8973 71.369 21.5916 71.7283 21.6891C71.9332 21.7444 72.0047 21.7363 72.1039 21.572C72.4221 21.0236 72.7019 20.4538 72.9412 19.8666ZM71.3446 22.6581C70.8217 22.4166 70.3338 22.1054 69.8944 21.733C69.4537 21.3634 69.0855 20.9152 68.8084 20.4112C68.7791 20.3624 68.7498 20.3998 68.7173 20.4437C68.6848 20.4876 68.5547 20.6063 67.4297 22.2549C66.3046 23.9034 64.5764 27.3193 66.1404 27.9013C67.1419 28.2736 68.8084 26.5194 69.7172 25.3569C70.3364 24.5455 70.8976 23.6915 71.3966 22.8012C71.4438 22.702 71.3966 22.6792 71.3462 22.6581M89.087 26.6039C88.6627 27.2835 88.1782 28.5874 89.5748 27.7761C91.2835 26.7893 93.7173 23.097 93.7173 23.097H94.8212C93.8168 24.6415 92.6983 26.1088 91.4753 27.4867C89.7438 29.4052 87.6319 31.148 86.1443 30.9757C84.4063 30.7725 84.951 28.4915 84.951 28.4915C84.951 28.4915 82.4651 31.1383 80.745 30.9481C78.4217 30.6912 79.1306 27.82 79.1306 27.82C79.1306 27.82 76.5033 31.044 74.7133 30.9448C71.9071 30.7822 72.6127 27.368 73.3931 24.9635C73.811 23.6775 74.1979 22.6678 74.1979 22.6678C74.1979 22.6678 73.9199 22.741 73.3216 22.8304C73.0094 22.8743 72.4404 22.9068 72.4404 22.9068C72.4404 22.9068 71.2714 24.9684 70.3366 26.2072C69.4018 27.4461 65.4283 31.7171 63.0904 30.8619C60.9281 30.0718 61.6434 26.7616 62.9018 24.1311C64.739 20.2958 69.9058 14.7859 72.8859 15.5143C75.9749 16.2638 72.9558 21.9005 72.9558 21.9005C72.9558 21.9005 72.9558 21.9216 72.9883 21.9362C73.0501 21.959 73.211 21.9769 73.5833 21.9037C73.9692 21.825 74.3473 21.7124 74.7133 21.5672C74.7133 21.5672 77.8186 15.0639 81.249 10.8092C84.6795 6.55448 91.5225 -0.773017 94.2083 0.99911C94.8586 1.43483 94.566 2.93544 93.6815 4.75634C93.2832 4.88574 92.8784 4.99428 92.4687 5.08151C93.0605 4.00685 93.4523 3.10128 93.5694 2.46884C93.9742 0.27075 88.8415 4.90755 85.1737 9.88901C82.9644 12.8921 81.0016 16.069 79.3046 19.3886C79.9671 18.9845 80.5996 18.533 81.197 18.0375C82.833 16.681 84.3878 15.2294 85.8533 13.6901C87.2645 12.2454 88.5881 10.7177 89.817 9.11513C90.2075 9.09624 90.5966 9.05608 90.9827 8.99482C89.6428 10.8135 88.1816 12.5397 86.6093 14.1616C85.1461 15.6411 83.5625 17.2328 82.1871 18.3887C80.9585 19.4335 79.6627 20.3964 78.3079 21.2713C78.3079 21.2713 75.1002 27.7403 76.8447 28.1549C77.8706 28.4021 79.8963 25.2821 79.8963 25.2821C79.8963 25.2821 82.5399 21.2485 84.1332 19.4292C86.3069 16.958 88.1782 15.5273 90.0479 15.5013C91.1372 15.4818 91.7794 16.6394 91.7794 16.6394L92.2915 15.846H95.4455C95.4455 15.846 89.5553 25.8414 89.0838 26.5942M97.8794 3.34189C95.6585 4.7661 92.5858 6.05699 89.6333 5.7806C88.8854 6.55286 88.0855 7.44705 87.284 8.42253C92.4037 9.43541 96.8893 6.26347 99.2743 3.563C100.144 2.59218 100.892 1.51815 101.5 0.365046C100.414 1.49603 99.1989 2.4952 97.8794 3.34189ZM53.5843 8.24532H50.5847L48.889 10.9848H51.8886L53.5843 8.24532ZM39.3813 17.7319C40.6576 15.9825 44.179 9.85162 44.179 9.85162C44.1642 9.73451 44.1096 9.62605 44.0243 9.54438C43.9391 9.4627 43.8284 9.41276 43.7108 9.40289C43.2231 9.38013 42.4102 9.54434 40.7957 11.5652C39.1813 13.5861 37.9278 15.194 37.0141 16.867C36.0126 18.6927 35.5753 19.9804 36.1508 20.3299C36.3376 20.4235 36.5521 20.4455 36.754 20.3917C37.1279 20.2974 37.6173 19.9219 38.2888 19.1496C38.6042 18.7887 38.9618 18.3026 39.3813 17.7319ZM23.2858 9.44029C22.4567 8.81435 20.348 10.2792 20.3366 11.7749C20.3236 13.3113 22.2339 13.7812 22.4811 13.7926C22.5537 13.7986 22.6266 13.7834 22.6908 13.7487C22.7349 13.723 22.77 13.6844 22.7916 13.6381C23.0162 13.1968 23.218 12.7442 23.3964 12.2822C23.6874 11.5213 24.0565 10.0272 23.2858 9.44029ZM22.0356 14.729C21.4638 14.5504 20.9174 14.2991 20.4098 13.9812C19.9178 13.6604 19.5178 13.2173 19.249 12.6951C19.2197 12.6464 19.1872 12.6838 19.1579 12.7277C19.1286 12.7716 18.9596 12.9829 17.8313 14.638C16.7029 16.2931 15.0316 19.678 16.5973 20.26C17.5955 20.6388 19.2815 18.87 20.1968 17.7124C20.8818 16.8027 21.5147 15.855 22.0925 14.8737C22.1299 14.7746 22.0925 14.7518 22.0372 14.7339M46.5348 15.7484H47.6339C47.6339 15.7484 42.1273 23.7149 39.0171 23.3442C37.2808 23.1409 37.7961 20.9981 37.7961 20.9981C37.7961 20.9981 35.3574 23.8531 33.1171 23.2743C31.0848 22.7524 32.3968 19.3723 32.3968 19.3723C32.166 19.465 27.7682 24.4221 24.6775 23.2336C21.4438 21.985 23.1232 17.8343 23.7378 16.5857C24.2597 15.5338 24.8368 14.5095 24.8368 14.5095C24.8368 14.5095 24.341 14.6494 24.0239 14.7209C23.7069 14.7924 23.2484 14.8835 23.2484 14.8835C23.2484 14.8835 21.7186 17.3693 20.7837 18.6098C19.8489 19.8503 15.8754 24.1132 13.5343 23.2645C11.1931 22.4158 11.7735 19.1398 13.0888 16.5386C15.2218 12.3196 20.283 7.1349 23.3314 7.92179C26.4106 8.70705 23.8614 13.7015 23.8614 13.7015C23.8614 13.7015 24.4743 13.7812 25.9424 12.7797C28.0559 11.3376 30.8458 7.45843 33.8666 7.91366C35.2908 8.12826 36.6174 9.58336 34.803 12.3472C34.2242 13.2349 33.2536 14.0283 32.5106 13.243C32.0473 12.7553 32.4521 11.866 32.9382 11.2579C33.1274 11.0101 33.3747 10.8125 33.6582 10.6827C33.9417 10.5528 34.2528 10.4947 34.564 10.5133C34.564 10.5133 35.0632 9.37526 33.7934 9.39151C32.7659 9.41102 30.1646 11.8058 28.6965 14.225C27.3503 16.4459 25.31 20.2291 27.3585 21.0534C29.2363 21.811 32.8098 17.5693 34.4649 15.3468C36.1199 13.1244 39.8918 8.08762 43.0556 7.88602C44.1449 7.81448 44.7936 8.80785 44.7936 8.80785L45.1594 8.22906H48.3232C48.3232 8.22906 42.3646 18.1725 41.8997 18.9252C41.5339 19.5138 41.0477 20.8372 42.3874 20.0958C43.7271 19.3544 46.5348 15.7484 46.5348 15.7484ZM44.8131 31.6813C42.4836 30.0687 39.6941 29.2547 36.8629 29.3613C36.0966 29.3822 35.346 29.5834 34.672 29.9486C33.9981 30.3139 33.4197 30.8328 32.9838 31.4634C31.7774 29.358 29.3924 28.0655 25.705 28.0948C19.7465 28.1631 13.8367 30.9107 9.15433 30.9074C4.66711 30.9074 1.39437 28.0866 1.50005 23.0775C1.69677 14.2868 9.12507 6.37077 14.6691 2.80863C17.8654 0.761743 20.5382 0.153692 22.286 0.350414C23.5606 0.491859 25.0937 1.96484 24.1264 4.13529C22.7054 7.30723 20.7431 7.0471 20.8162 5.53023C20.8569 4.54337 21.5137 3.92231 22.0079 3.57926C22.3217 3.36303 22.8761 3.30125 23.1655 3.29475C23.4468 3.05738 23.6533 1.32102 21.3771 1.89168C19.101 2.46233 16.3371 4.70595 13.7131 7.60476C11.089 10.5036 7.00339 15.9825 5.99377 21.7362C5.52229 24.4042 5.83119 29.2702 12.1572 29.215C17.5224 29.1711 25.4303 25.6382 32.6976 25.7113C35.5184 25.739 37.9733 26.4999 39.8869 27.6802C41.7663 28.8378 44.0197 30.5286 44.8196 31.6829" fill="black"/>
</g>
<defs>
<clipPath id="clip0_185_3562">
<rect width="101" height="32" fill="white" transform="translate(0.5)"/>
</clipPath>
</defs>
</svg>
