<svg width="101" height="32" viewBox="0 0 101 32" fill="none" xmlns="http://www.w3.org/2000/svg">
<g clip-path="url(#clip0_185_3181)">
<path d="M11.8202 10.9126C11.8202 10.5667 14.0166 10.3865 14.0166 7.47849C14.0166 4.73096 11.2888 3.86816 10.0657 3.86816H1.14442V5.0019H2.31761C2.68588 5.13079 3.00416 5.39647 3.00416 5.9344C3.00416 7.21807 2.96471 15.6816 2.96471 16.5641C2.96471 17.0232 3.35665 17.7728 3.92351 18.3897H1.13916V19.5484H10.2853C10.7667 19.5484 15.5502 19.1722 15.5502 15.291C15.5502 11.4097 11.8202 11.2598 11.8202 10.9139V10.9126ZM9.53431 18.3884H7.86001C6.6066 18.2555 6.16468 17.4006 6.16468 16.4431C6.16468 15.4002 6.2449 6.41446 6.2449 6.02384C6.2449 5.39384 6.02 5.1058 5.90689 5.00058H8.05861C8.84907 5.04662 10.6167 5.4162 10.6167 7.79809C10.6167 10.18 8.93193 10.4759 8.93193 10.4759H7.51805V11.6491H8.51106C8.95166 11.6491 12.1661 12.0397 12.1661 15.2897C12.1661 18.128 10.0657 18.3726 9.53431 18.3884Z" fill="black"/>
<path d="M45.5759 20.9147C42.9284 19.1997 41.4237 17.1847 39.7389 13.9045C39.4943 13.4271 39.589 13.1509 39.9494 12.9418C40.3097 12.7313 41.6644 11.9501 41.6644 10.0246C41.6644 8.09908 40.1901 6.39453 38.1449 6.39453H28.783V7.47697H30.3784C30.5915 7.67031 30.773 8.00832 30.773 8.6107V16.1444C30.773 16.1444 30.7559 17.7384 31.979 18.3882H30.0746C29.0711 18.0396 28.4095 17.1242 27.8229 15.951C27.0706 14.4464 23.8811 6.39453 23.8811 6.39453H21.5953C21.5953 6.39453 19.0384 13.0338 17.9244 15.8918C17.2958 17.507 16.4553 18.1422 15.8424 18.3895H14.7876V19.5482H19.3383V18.3895H17.3931C18.344 17.966 18.8924 16.6573 19.5435 14.9896H24.185C24.7716 16.3995 25.4647 17.7674 26.1907 18.3895H24.2257V19.5482H36.1549V18.3895H35.1514C34.5872 18.0857 33.9282 17.453 33.9282 16.1457C33.9282 13.8598 33.898 8.61202 33.898 8.61202C33.898 8.61202 33.8493 7.87812 33.5665 7.47829H36.923C37.6661 7.78737 38.5605 8.46997 38.5605 9.9654C38.5605 12.5222 35.763 12.4328 35.763 12.4328H35.3724V13.3955C35.3724 13.3955 36.485 13.2456 36.9664 14.449C37.4478 15.6525 38.0791 17.6687 40.215 19.6232C42.351 21.5789 45.0288 22.6614 47.5856 22.6614C48.7286 22.6614 48.8719 22.4878 48.8719 22.4878L48.9022 22.0064C48.9022 22.0064 47.4488 22.1326 45.5707 20.916L45.5759 20.9147ZM22.024 13.8756C21.0021 13.8756 20.4352 14.1255 19.8407 14.2399C19.8644 14.1781 19.8881 14.1176 19.9131 14.0558C20.9061 11.5581 21.8136 8.64227 21.8136 8.64227L22.049 8.66989C22.049 8.66989 23.0236 11.9685 23.7351 13.844C23.7785 13.9598 23.8246 14.0768 23.8693 14.1939C23.3366 14.0689 22.9263 13.873 22.0227 13.873L22.024 13.8756Z" fill="black"/>
<path d="M51.6217 18.3284C48.0917 18.3284 46.5673 14.6379 46.5673 12.4717C46.5673 10.3055 48.2219 7.07657 51.3206 7.07657C54.4193 7.07657 55.2439 9.38349 55.2439 9.90433V10.4252H56.3263V6.09277H55.2439V6.39396C55.2439 6.39396 55.1413 7.58557 54.7796 7.22519C54.4193 6.86482 53.4854 6.09277 50.8681 6.09277C48.2508 6.09277 43.0767 7.40669 43.0767 13.0925C43.0767 18.7782 48.402 19.7791 50.4775 19.7791C55.5924 19.7791 56.5552 17.2447 56.5552 17.2447V16.1438C56.5552 16.1438 55.1518 18.3271 51.6217 18.3271V18.3284Z" fill="black"/>
<path d="M69.5657 15.9208V16.0615C69.5657 17.2242 69.1645 18.1633 68.0295 18.3882H63.5984C63.0342 18.0844 62.3753 17.4517 62.3753 16.1444C62.3753 15.4355 62.3726 14.4425 62.3687 13.4087H65.1004C65.1004 13.4087 66.0487 13.3008 66.196 14.1886V15.2382H67.2785V10.4652H66.196V11.3477C65.883 12.5656 65.4371 12.225 64.1127 12.225C63.1105 12.225 62.683 12.4302 62.3647 12.5249C62.3555 10.5125 62.345 8.61072 62.345 8.61072C62.345 8.61072 62.2963 7.87682 62.0136 7.47698H67.4626C68.6213 7.47698 69.125 8.62519 69.125 8.94084V9.74313H70.2075V6.13281H69.125V7.10609C68.5003 6.26434 67.6691 6.39455 67.6691 6.39455H57.305V7.47698H58.8228C59.0359 7.67032 59.2174 8.00834 59.2174 8.61072V16.1444C59.2174 16.1444 59.2003 17.7385 60.4234 18.3882H57.3037V19.5508H68.0295C68.0295 19.5508 68.9712 19.4522 69.5657 18.7038V19.7784H70.6481V15.9195H69.5657V15.9208Z" fill="black"/>
<path d="M83.2442 15.9208V16.0142C83.2442 17.1768 82.6102 18.3882 81.3871 18.3882H77.6781C77.1139 18.0843 76.4549 17.4517 76.4549 16.1444C76.4549 13.8585 76.4247 8.6107 76.4247 8.6107C76.4247 8.6107 76.376 7.8768 76.0933 7.47697H77.9359V6.39453H71.4229V7.47697H72.9012C73.1142 7.67031 73.2957 8.00832 73.2957 8.6107V16.1444C73.2957 16.1444 73.2786 17.7384 74.5018 18.3882H71.6228V19.5508H81.7961C81.7961 19.5508 82.6471 19.4627 83.2429 18.8117V19.7784H84.3253V15.9195H83.2429L83.2442 15.9208Z" fill="black"/>
<path d="M20.9336 30.9265C20.8652 30.9265 20.806 30.9212 20.7376 30.916C20.351 30.8897 20.1445 30.7884 19.9103 30.4596C19.7144 30.1899 19.5237 29.8559 19.354 29.5849C19.2475 29.4153 19.1791 29.3837 18.9095 29.3837H18.724V30.2163C18.724 30.6674 18.7819 30.6937 19.2067 30.7358V30.8844H17.7915V30.7358C18.2308 30.6884 18.2689 30.6674 18.2689 30.2163V28.1014C18.2689 27.6515 18.2111 27.6344 17.7915 27.5871V27.4385H19.1436C19.5302 27.4385 19.7907 27.4858 19.9919 27.6187C20.2089 27.7568 20.3523 27.9948 20.3523 28.3184C20.3523 28.7734 20.0603 29.0602 19.6683 29.2298C19.7644 29.3942 19.9919 29.7493 20.151 29.9874C20.347 30.2689 20.4483 30.4004 20.5693 30.5332C20.7126 30.6871 20.8336 30.745 20.956 30.7765L20.9349 30.9252L20.9336 30.9265ZM18.9778 29.2048C19.254 29.2048 19.429 29.1628 19.5605 29.051C19.767 28.8971 19.8525 28.6853 19.8525 28.3986C19.8525 27.8317 19.4763 27.6252 19.0686 27.6252C18.9147 27.6252 18.8253 27.6463 18.7871 27.6779C18.7398 27.7147 18.724 27.7686 18.724 27.9054V29.2035H18.9778V29.2048Z" fill="black"/>
<path d="M24.369 27.3662C25.2752 27.3662 26.0867 28.0607 26.0867 29.1155C26.0867 30.2545 25.3133 30.9647 24.3374 30.9647C23.3615 30.9647 22.5776 30.1913 22.5776 29.1944C22.5776 28.1974 23.251 27.3662 24.369 27.3662ZM24.2625 27.5622C23.6693 27.5622 23.1287 28.0607 23.1287 29.051C23.1287 30.0414 23.6693 30.7635 24.4216 30.7635C25.0634 30.7635 25.5448 30.286 25.5448 29.2641C25.5448 28.1514 24.9569 27.5635 24.2625 27.5635V27.5622Z" fill="black"/>
<path d="M31.7261 27.5881C31.3868 27.6249 31.275 27.6788 31.2592 27.9221C31.254 28.0918 31.2434 28.3141 31.2434 28.8073V30.9327H31.0422L28.7734 28.1615V29.486C28.7734 29.9634 28.7892 30.2015 28.7997 30.3553C28.8102 30.625 28.9431 30.7052 29.3245 30.7368V30.8854H28.0369V30.7368C28.3657 30.7104 28.4933 30.6302 28.5143 30.3711C28.5301 30.2014 28.5406 29.9634 28.5406 29.4807V28.1286C28.5406 27.98 28.5301 27.8958 28.4341 27.7788C28.3328 27.6459 28.2223 27.6144 27.9619 27.5881V27.4395H28.7563L31.0041 30.1054V28.8073C31.0041 28.3141 30.9935 28.0865 30.9778 27.9274C30.962 27.6893 30.8397 27.6144 30.4161 27.5881V27.4395H31.7248V27.5881H31.7261Z" fill="black"/>
<path d="M37.579 27.4398C38.3261 27.4398 38.7982 27.5884 39.1271 27.9014C39.3862 28.1553 39.5782 28.5262 39.5782 29.0352C39.5782 29.6547 39.3243 30.1584 38.9153 30.4662C38.5128 30.7687 37.9986 30.8844 37.3462 30.8844H36.106V30.7358C36.561 30.6937 36.5834 30.6569 36.5834 30.2215V28.1066C36.5834 27.6515 36.5203 27.6292 36.106 27.5871V27.4385H37.579V27.4398ZM37.0437 30.1794C37.0437 30.5766 37.2134 30.6884 37.6106 30.6884C38.5641 30.6884 39.0521 30.0361 39.0521 29.1088C39.0521 28.5314 38.8561 28.0908 38.4379 27.837C38.1946 27.6831 37.8868 27.6252 37.5317 27.6252C37.2936 27.6252 37.166 27.6568 37.1134 27.6989C37.0661 27.7305 37.045 27.7896 37.045 27.9961V30.1794H37.0437Z" fill="black"/>
<path d="M43.2611 27.3662C44.1673 27.3662 44.9788 28.0607 44.9788 29.1155C44.9788 30.2545 44.2054 30.9647 43.2295 30.9647C42.2536 30.9647 41.4697 30.1913 41.4697 29.1944C41.4697 28.1974 42.1431 27.3662 43.2611 27.3662ZM43.1559 27.5622C42.5627 27.5622 42.0221 28.0607 42.0221 29.051C42.0221 30.0414 42.5627 30.7635 43.315 30.7635C43.9568 30.7635 44.4382 30.286 44.4382 29.2641C44.4382 28.1514 43.8503 27.5635 43.1559 27.5635V27.5622Z" fill="black"/>
<path d="M49.7438 30.8844V30.7358C50.1778 30.6937 50.1936 30.6621 50.1884 30.0939L50.1936 27.9317C49.7596 28.901 49.0599 30.4175 48.8744 30.8831H48.7363C48.5561 30.4004 47.9577 28.9431 47.5539 27.9843C47.4632 29.8388 47.4592 30.2583 47.4592 30.3583C47.4645 30.6555 47.5973 30.6976 47.9577 30.7345V30.8831H46.7017V30.7345C47.0094 30.7029 47.1357 30.6384 47.1791 30.353C47.2107 30.1202 47.2159 29.9295 47.354 27.9948C47.3751 27.7186 47.3225 27.6292 46.8555 27.5871V27.4385H47.7775L48.9494 30.1255L50.2054 27.4385H51.1327V27.5871C50.6776 27.6397 50.6184 27.6884 50.629 28.0593L50.65 30.0939C50.671 30.6608 50.6868 30.6871 51.1537 30.7358V30.8844H49.7438Z" fill="black"/>
<path d="M52.936 30.8844V30.7358C53.3701 30.6884 53.4135 30.6674 53.4135 30.2163V28.1119C53.4135 27.6555 53.3714 27.6344 52.936 27.5871V27.4385H54.3565V27.5871C53.9159 27.6344 53.8738 27.6555 53.8738 28.1119V30.2163C53.8738 30.6726 53.9159 30.6884 54.3565 30.7358V30.8844H52.936Z" fill="black"/>
<path d="M59.858 27.5881C59.5186 27.6249 59.4081 27.6788 59.391 27.9221C59.3858 28.0918 59.3753 28.3141 59.3753 28.8073V30.9327H59.174L56.9053 28.1615V29.486C56.9053 29.9634 56.921 30.2015 56.9316 30.3553C56.9421 30.625 57.0749 30.7052 57.4563 30.7368V30.8854H56.1687V30.7368C56.4975 30.7104 56.6238 30.6302 56.6462 30.3711C56.6619 30.2014 56.6725 29.9634 56.6725 29.4807V28.1286C56.6725 27.98 56.6619 27.8958 56.5659 27.7788C56.4646 27.6459 56.3542 27.6144 56.0938 27.5881V27.4395H56.8882L59.1359 30.1054V28.8073C59.1359 28.3141 59.1254 28.0865 59.1096 27.9274C59.0938 27.6893 58.9715 27.6144 58.548 27.5881V27.4395H59.8566V27.5881H59.858Z" fill="black"/>
<path d="M61.5874 30.8844V30.7358C62.0214 30.6884 62.0648 30.6674 62.0648 30.2163V28.1119C62.0648 27.6555 62.0227 27.6344 61.5874 27.5871V27.4385H63.0079V27.5871C62.5673 27.6344 62.5252 27.6555 62.5252 28.1119V30.2163C62.5252 30.6726 62.5673 30.6884 63.0079 30.7358V30.8844H61.5874Z" fill="black"/>
<path d="M67.9899 30.0365C67.9163 30.2903 67.7782 30.6731 67.6979 30.8361C67.5441 30.8677 67.1311 30.9637 66.7286 30.9637C65.462 30.9637 64.8149 30.1207 64.8149 29.1934C64.8149 28.1123 65.637 27.3652 66.8233 27.3652C67.2784 27.3652 67.6506 27.4599 67.8255 27.4876C67.8466 27.7256 67.8834 28.0439 67.9268 28.3096L67.7624 28.3464C67.6559 27.9913 67.5296 27.7743 67.2586 27.6625C67.1205 27.5993 66.9035 27.5612 66.7023 27.5612C65.8277 27.5612 65.366 28.2083 65.366 29.0816C65.366 30.1049 65.8961 30.7612 66.7549 30.7612C67.2955 30.7612 67.5612 30.5126 67.8308 29.9826L67.9899 30.0352V30.0365Z" fill="black"/>
<path d="M71.7965 30.8845V30.7358C72.141 30.6938 72.1831 30.6398 72.1095 30.4386C72.0411 30.2321 71.9346 29.9664 71.8228 29.6337H70.6785C70.5943 29.8717 70.5141 30.0782 70.4404 30.2966C70.3234 30.6411 70.3984 30.6832 70.8324 30.7358V30.8845H69.6079V30.7358C69.942 30.6938 70.0262 30.6569 70.2116 30.1795L71.3085 27.3978L71.4782 27.3662C71.8122 28.2724 72.1779 29.2746 72.5119 30.1913C72.6816 30.653 72.729 30.6951 73.1051 30.7372V30.8858H71.7965V30.8845ZM71.2664 28.0593C71.0968 28.5157 70.9166 28.9971 70.7574 29.4167H71.7478L71.2651 28.0593H71.2664Z" fill="black"/>
<path d="M78.2842 27.5881C77.9449 27.6249 77.8344 27.6788 77.8173 27.9221C77.8121 28.0918 77.8015 28.3141 77.8015 28.8073V30.9327H77.6003L75.3315 28.1615V29.486C75.3315 29.9634 75.3473 30.2015 75.3578 30.3553C75.3683 30.625 75.5012 30.7052 75.8826 30.7368V30.8854H74.595V30.7368C74.9238 30.7104 75.0501 30.6302 75.0724 30.3711C75.0882 30.2014 75.0987 29.9634 75.0987 29.4807V28.1286C75.0987 27.98 75.0882 27.8958 74.9922 27.7788C74.8909 27.6459 74.7804 27.6144 74.52 27.5881V27.4395H75.3144L77.5622 30.1054V28.8073C77.5622 28.3141 77.5516 28.0865 77.5359 27.9274C77.5201 27.6893 77.3978 27.6144 76.9742 27.5881V27.4395H78.2829V27.5881H78.2842Z" fill="black"/>
<path d="M81.7946 27.3662C82.7008 27.3662 83.511 28.0607 83.511 29.1155C83.511 30.2545 82.7376 30.9647 81.7617 30.9647C80.7858 30.9647 80.002 30.1913 80.002 29.1944C80.002 28.1974 80.6754 27.3662 81.7933 27.3662H81.7946ZM81.6894 27.5622C81.0962 27.5622 80.5557 28.0607 80.5557 29.051C80.5557 30.0414 81.0962 30.7635 81.8485 30.7635C82.4904 30.7635 82.9718 30.286 82.9718 29.2641C82.9718 28.1514 82.3838 27.5635 81.6894 27.5635V27.5622Z" fill="black"/>
<path d="M92.3497 6.11328C96.6466 6.11328 100.154 8.82135 100.154 12.7723C100.154 17.0442 96.6242 19.7325 92.2339 19.7325C87.5885 19.7325 84.2202 16.8035 84.2202 12.9328C84.2202 9.50264 87.0545 6.11328 92.3497 6.11328ZM92.0011 6.9958C89.6311 6.9958 87.8897 9.00154 87.8897 12.5514C87.8897 16.1012 89.4456 18.85 92.5825 18.85C94.7895 18.85 96.5085 17.0047 96.5085 13.3339C96.5085 9.36191 94.6961 6.9958 92.0025 6.9958H92.0011Z" fill="black"/>
<path d="M91.2393 5.21353L93.3423 1.14551C93.8987 1.15208 95.5611 1.10342 96.0846 1.22968L96.1333 1.40592L92.2783 5.23721L91.2406 5.21485L91.2393 5.21353Z" fill="black"/>
</g>
<defs>
<clipPath id="clip0_185_3181">
<rect width="100" height="31.25" fill="white" transform="translate(0.5 0.375)"/>
</clipPath>
</defs>
</svg>
