<svg width="100" height="38" viewBox="0 0 101 38" fill="none" xmlns="http://www.w3.org/2000/svg">
<path fill-rule="evenodd" clip-rule="evenodd" d="M73.5357 10.0979C75.4242 13.2098 74.9761 16.3217 72.1899 19.4336C70.4464 16.2485 71.1033 12.6611 73.5357 10.0979ZM38.8437 10.0165V17.5581C34.6323 16.3491 37.2344 10.6008 38.8437 10.0165ZM80.6148 12.3196C80.7859 21.3221 70.8474 25.3714 65.3318 18.4832L61.7847 21.7764C58.7939 21.862 56.8801 21.1709 56.8028 18.7795L56.7187 12.9526C56.5647 12.319 55.9585 12.0808 54.9041 12.2348C54.6222 15.3734 54.3403 18.5113 54.0597 21.6492H48.2752V18.2294L43.866 21.7853C41.7011 22.3813 40.2321 21.2735 39.0805 19.3926C38.2587 20.1828 37.4069 20.9423 36.4879 21.6355C34.2053 21.8442 32.2607 20.6481 30.6562 18.0467L26.5686 21.6847C23.7167 22.0706 22.0978 20.5311 21.3849 17.5793C21.3372 14.1297 21.3205 10.6796 21.3349 7.22963C21.2555 6.10201 20.2401 5.99459 19.092 6.03359L17.4471 21.6847H12.4132L12.3632 7.37948C12.225 6.2717 11.3143 5.88238 9.82131 6.03359L8.62527 21.7354H3.39157V8.52625C3.36146 6.86151 2.61291 5.89948 0.5 5.78453L4.58761 1.89603C8.04436 1.51902 9.8562 2.45026 10.0204 4.6877L13.2603 1.94598C17.0017 1.5286 18.8368 2.48789 19.092 4.5878L22.2319 1.89603C25.2398 1.71471 28.1102 2.22446 28.0274 4.62475C27.8618 8.18003 27.7311 11.3001 27.5655 14.8561C27.4239 17.4103 28.9299 18.1493 30.3572 17.398C29.1735 8.61588 36.0972 6.78214 45.9529 7.46295L45.5732 16.4134C45.5335 18.0186 47.2557 17.9269 48.4018 16.878C48.4606 13.6601 48.3135 8.95595 48.3101 6.4845C48.2704 5.31993 47.6211 5.08524 46.7548 4.97235C47.9796 3.80436 49.5554 2.35447 51.3146 0.918945C53.6649 1.20085 55.5787 3.38219 55.4528 5.01408L54.9875 11.2201L59.8429 6.91351C61.9544 7.05447 62.9951 7.81396 62.9671 9.19338V16.3703C62.9671 17.37 63.8251 17.6792 64.9931 17.5944C63.9804 11.6484 66.6811 8.56662 71.0725 6.78693C73.4379 8.76095 76.3363 9.33022 79.6015 8.94021L80.4034 11.0086L85.1745 6.82935C87.0172 6.87177 88.6505 8.0254 88.6785 9.44655V16.4969C88.6785 17.8482 90.0299 17.6512 91.592 16.7507V7.37811H98.0094L97.5441 15.1038C97.4182 17.1722 98.2762 18.1719 100.5 18.1014L96.1517 21.7744C94.0655 21.8572 92.5944 20.5236 91.633 18.0166L87.2854 21.901C84.8441 22.4155 82.2111 21.3734 82.1762 18.4805V13.0347C82.1625 12.4038 81.6425 12.1643 80.6148 12.3196Z" fill="black"/>
<path fill-rule="evenodd" clip-rule="evenodd" d="M73.5357 10.0979C75.4242 13.2098 74.9761 16.3217 72.1899 19.4336C70.4464 16.2485 71.1033 12.6611 73.5357 10.0979ZM38.8437 10.0165V17.5581C34.6323 16.3491 37.2344 10.6008 38.8437 10.0165ZM80.6148 12.3196C80.7859 21.3221 70.8474 25.3714 65.3318 18.4832L61.7847 21.7764C58.7939 21.862 56.8801 21.1709 56.8028 18.7795L56.7187 12.9526C56.5647 12.319 55.9585 12.0808 54.9041 12.2348C54.6222 15.3734 54.3403 18.5113 54.0597 21.6492H48.2752V18.2294L43.866 21.7853C41.7011 22.3813 40.2321 21.2735 39.0805 19.3926C38.2587 20.1828 37.4069 20.9423 36.4879 21.6355C34.2053 21.8442 32.2607 20.6481 30.6562 18.0467L26.5686 21.6847C23.7167 22.0706 22.0978 20.5311 21.3849 17.5793C21.3372 14.1297 21.3205 10.6796 21.3349 7.22963C21.2555 6.10201 20.2401 5.99459 19.092 6.03359L17.4471 21.6847H12.4132L12.3632 7.37948C12.225 6.2717 11.3143 5.88238 9.82131 6.03359L8.62527 21.7354H3.39157V8.52625C3.36146 6.86151 2.61291 5.89948 0.5 5.78453L4.58761 1.89603C8.04436 1.51902 9.8562 2.45026 10.0204 4.6877L13.2603 1.94598C17.0017 1.5286 18.8368 2.48789 19.092 4.5878L22.2319 1.89603C25.2398 1.71471 28.1102 2.22446 28.0274 4.62475C27.8618 8.18003 27.7311 11.3001 27.5655 14.8561C27.4239 17.4103 28.9299 18.1493 30.3572 17.398C29.1735 8.61588 36.0972 6.78214 45.9529 7.46295L45.5732 16.4134C45.5335 18.0186 47.2557 17.9269 48.4018 16.878C48.4606 13.6601 48.3135 8.95595 48.3101 6.4845C48.2704 5.31993 47.6211 5.08524 46.7548 4.97235C47.9796 3.80436 49.5554 2.35447 51.3146 0.918945C53.6649 1.20085 55.5787 3.38219 55.4528 5.01408L54.9875 11.2201L59.8429 6.91351C61.9544 7.05447 62.9951 7.81396 62.9671 9.19338V16.3703C62.9671 17.37 63.8251 17.6792 64.9931 17.5944C63.9804 11.6484 66.6811 8.56662 71.0725 6.78693C73.4379 8.76095 76.3363 9.33022 79.6015 8.94021L80.4034 11.0086L85.1745 6.82935C87.0172 6.87177 88.6505 8.0254 88.6785 9.44655V16.4969C88.6785 17.8482 90.0299 17.6512 91.592 16.7507V7.37811H98.0094L97.5441 15.1038C97.4182 17.1722 98.2762 18.1719 100.5 18.1014L96.1517 21.7744C94.0655 21.8572 92.5944 20.5236 91.633 18.0166L87.2854 21.901C84.8441 22.4155 82.2111 21.3734 82.1762 18.4805V13.0347C82.1625 12.4038 81.6425 12.1643 80.6148 12.3196Z" fill="black"/>
<path d="M20.3922 26.0273L21.6331 29.8464L25.6486 29.8464L22.4 32.2067L23.6408 36.0257L20.3922 33.6654L17.1435 36.0257L18.3844 32.2067L15.1357 29.8464L19.1513 29.8464L20.3922 26.0273Z" fill="black"/>
<path d="M35.4459 26.0273L36.6868 29.8464L40.7023 29.8464L37.4537 32.2067L38.6945 36.0257L35.4459 33.6654L32.1972 36.0257L33.4381 32.2067L30.1895 29.8464L34.205 29.8464L35.4459 26.0273Z" fill="black"/>
<path d="M50.5001 26.0273L51.741 29.8464L55.7565 29.8464L52.5079 32.2067L53.7487 36.0257L50.5001 33.6654L47.2514 36.0257L48.4923 32.2067L45.2437 29.8464L49.2592 29.8464L50.5001 26.0273Z" fill="black"/>
<path d="M65.5538 26.0273L66.7947 29.8464L70.8102 29.8464L67.5616 32.2067L68.8025 36.0257L65.5538 33.6654L62.3051 36.0257L63.546 32.2067L60.2974 29.8464L64.3129 29.8464L65.5538 26.0273Z" fill="black"/>
<path d="M80.6075 26.0273L81.8484 29.8464L85.8639 29.8464L82.6153 32.2067L83.8562 36.0257L80.6075 33.6654L77.3589 36.0257L78.5997 32.2067L75.3511 29.8464L79.3666 29.8464L80.6075 26.0273Z" fill="black"/>
</svg>
