<svg width="101" height="28" viewBox="0 0 101 28" fill="none" xmlns="http://www.w3.org/2000/svg">
<g clip-path="url(#clip0_185_3370)">
<path d="M2.46983 12.0855L0.863316 11.5463C0.610235 11.4583 0.489196 11.2712 0.500199 11.0071V9.58767C0.489196 9.29058 0.610235 9.11452 0.863316 9.0595L5.72687 8.01417C5.72687 8.01417 5.8259 7.99216 5.89193 7.99216C6.16701 7.99216 6.36508 8.14621 6.4531 8.44331L6.92626 10.1158C7.90557 8.52033 9.31402 7.73908 11.1516 7.75008H11.8448C12.1969 7.75008 12.373 7.92614 12.373 8.27825V11.6013C12.373 11.9424 12.1969 12.1185 11.8448 12.1185H11.7348C8.64281 12.0635 7.13532 13.2408 7.19034 15.6506V23.8812L8.79685 24.4314C9.06094 24.5194 9.17097 24.6955 9.15997 24.9596V26.324C9.15997 26.6761 8.98391 26.8522 8.6318 26.8522H1.02837C0.676256 26.8632 0.500199 26.6761 0.500199 26.324V24.9596C0.489196 24.6845 0.610235 24.5194 0.863316 24.4314L2.46983 23.8812V12.0855ZM27.5248 23.8812L29.1314 24.4314C29.3734 24.5305 29.4945 24.6955 29.4945 24.9596V26.324C29.4945 26.6431 29.3734 26.8192 29.1314 26.8522L24.6529 27.3143C24.3999 27.3364 24.2568 27.3584 24.2128 27.3584C23.9817 27.3584 23.8167 27.1933 23.7286 26.8852L23.3655 25.6308C22.0231 26.7972 20.5596 27.3804 18.9751 27.3804C17.1375 27.3804 15.7071 26.8082 14.6947 25.6638C13.7925 24.6735 13.3523 23.3421 13.3523 21.6805C13.3523 19.4468 14.1336 17.8403 15.7071 16.861C16.7744 16.2008 17.9958 15.7937 19.3712 15.6286C20.4496 15.5076 21.704 15.4305 23.1124 15.3755V14.2202C23.1124 13.0978 22.9034 12.3386 22.4962 11.9424C22.1001 11.5903 21.4509 11.4143 20.5266 11.4143C19.4483 11.4143 18.2159 11.6783 16.8404 12.1955C16.3123 12.3936 15.9712 12.4926 15.8171 12.4926C15.6631 12.4926 15.542 12.3716 15.454 12.1295L14.7057 9.96179C14.6287 9.74172 14.5957 9.58767 14.5957 9.49964C14.5957 9.09251 15.443 8.66338 17.1155 8.24524C18.3919 7.90413 19.6903 7.75008 20.9998 7.75008C23.4095 7.75008 25.1481 8.30026 26.2154 9.38961C27.1177 10.3249 27.5689 11.7664 27.5689 13.736V23.8702L27.5248 23.8812ZM23.0684 22.6048V18.4895C21.0878 18.5445 19.7564 18.7536 19.0741 19.1277C18.2489 19.5899 17.8307 20.3711 17.8307 21.4825C17.8307 22.2417 18.0838 22.8909 18.601 23.4191C19.0521 23.8592 19.6023 24.0793 20.2405 24.0793C21.1538 24.0793 22.0891 23.5952 23.0684 22.6158V22.6048ZM46.9241 23.8812L48.5306 24.4314C48.7837 24.5194 48.9047 24.6955 48.8937 24.9596V26.324C48.8937 26.6541 48.7837 26.8302 48.5306 26.8522L43.8431 27.3364C43.733 27.3474 43.678 27.3584 43.656 27.3584C43.3919 27.3584 43.2159 27.2043 43.1278 26.9072L42.7317 25.5758C41.0482 26.8522 39.3206 27.4794 37.5601 27.4794C35.7005 27.4794 34.27 26.8522 33.2797 25.5868C31.9043 23.8482 31.222 21.3064 31.222 17.9503C31.222 14.5943 31.9593 11.7884 33.4337 9.9948C34.6551 8.49832 36.3167 7.75008 38.4073 7.75008C39.7498 7.75008 41.0152 8.09119 42.2035 8.78441V5.03221L40.597 4.48204C40.344 4.40501 40.2229 4.21795 40.2339 3.95387V2.53441C40.2229 2.22632 40.344 2.05026 40.597 2.00624L46.1978 0.817864C46.3409 0.784854 46.4619 0.762847 46.5389 0.762847C46.803 0.762847 46.9461 0.927899 46.9461 1.236V23.8702L46.9241 23.8812ZM42.1815 22.5168V12.2175C41.3013 11.7664 40.421 11.5463 39.5187 11.5463C38.1432 11.5463 37.2079 11.9644 36.7128 12.8227C36.2066 13.703 35.9425 15.3315 35.9425 17.7083C35.9425 19.7659 36.1296 21.2514 36.5037 22.1757C36.9659 23.254 37.8572 23.7932 39.1666 23.7932C40.2449 23.7932 41.2462 23.3751 42.1705 22.5168H42.1815ZM53.042 12.2835L51.4465 11.7114C51.1934 11.6343 51.0724 11.4583 51.0834 11.2052V9.78574C51.0834 9.47764 51.1934 9.30158 51.4465 9.25757L57.0363 8.04718C57.2013 8.01417 57.3224 7.99216 57.3884 7.99216C57.6525 7.99216 57.7845 8.14621 57.7845 8.46531V23.8702L59.391 24.4204C59.6441 24.5084 59.7652 24.6845 59.7542 24.9486V26.313C59.7542 26.6651 59.5781 26.8412 59.226 26.8412H51.6006C51.2484 26.8412 51.0724 26.6541 51.0724 26.313V24.9486C51.0724 24.6735 51.1824 24.5084 51.4355 24.4204L53.031 23.8702V12.2725L53.042 12.2835ZM55.3528 0.509766C56.167 0.509766 56.8712 0.806861 57.4654 1.40105C58.0596 1.99524 58.3787 2.73248 58.3787 3.56874C58.3787 4.40501 58.0706 5.16426 57.4654 5.75845C56.8712 6.36364 56.134 6.67174 55.2757 6.67174C54.4175 6.67174 53.7242 6.37464 53.119 5.78045C52.5138 5.17526 52.2057 4.43802 52.2057 3.56874C52.2057 2.69947 52.5028 1.99524 53.097 1.40105C53.7022 0.806861 54.4505 0.509766 55.3418 0.509766L55.3528 0.509766ZM70.2515 7.76109C72.6063 7.76109 74.4989 8.56434 75.9183 10.1819C77.4588 11.9314 78.2401 14.4072 78.2401 17.5872C78.2401 21.1194 77.2828 23.7712 75.3572 25.5538C73.9817 26.8522 72.2322 27.4904 70.1085 27.4904C67.6767 27.4904 65.7401 26.6871 64.3096 25.0696C62.7691 23.3311 61.9879 20.8443 61.9879 17.6092C61.9879 14.6163 62.7141 12.2395 64.1556 10.501C65.6521 8.67438 67.6877 7.77209 70.2515 7.77209V7.76109ZM70.0314 11.5463C69.0521 11.5463 68.3149 11.9534 67.8418 12.7787C67.2916 13.725 67.0165 15.3535 67.0165 17.6422C67.0165 19.6119 67.2146 21.0753 67.6217 22.0217C68.0948 23.144 68.9201 23.7162 70.0975 23.7162C71.2748 23.7162 72.1771 23.1 72.6503 21.8896C73.0134 20.9653 73.2005 19.5349 73.2005 17.5872C73.2005 15.6396 73.0024 14.1651 72.5953 13.2298C72.1221 12.0965 71.2638 11.5353 70.0204 11.5353L70.0314 11.5463ZM96.4949 13.5049C97.5403 14.0001 98.3545 14.5393 98.9377 15.1114C99.983 16.1458 100.511 17.5102 100.511 19.1937C100.511 21.8346 99.6089 23.8812 97.7933 25.3447C96.2859 26.5551 94.3492 27.1713 91.9725 27.1713C89.8488 27.1713 87.7911 26.6321 85.8105 25.5648C85.1723 25.2347 84.8642 24.9596 84.8642 24.7615C84.8642 24.6405 84.9082 24.5084 84.9852 24.3544L86.3057 21.8566C86.4377 21.6145 86.5918 21.4935 86.7678 21.4935C86.8999 21.4935 87.0759 21.5595 87.274 21.6695C88.9245 22.5718 90.476 23.023 91.9285 23.023C94.5913 23.023 95.9227 21.8456 95.9227 19.4798C95.9227 17.1141 94.4263 15.8707 91.4443 15.8707H90.1459C89.7388 15.8707 89.5407 15.6616 89.5407 15.2765V12.4266C89.5407 12.0194 89.7388 11.8104 90.1459 11.8214H91.5323C94.2172 11.8214 95.5596 10.666 95.5596 8.34427C95.5596 7.35396 95.2625 6.59471 94.6793 6.04454C94.1512 5.56038 93.4249 5.3183 92.5227 5.3183C91.6864 5.3183 90.9051 5.63741 90.1899 6.26461C89.9918 6.44066 89.6617 6.77077 89.1886 7.26593C89.0125 7.44198 88.8585 7.54102 88.7264 7.54102C88.5944 7.54102 88.4403 7.47499 88.2863 7.34295L86.2066 5.43934C86.0416 5.2963 85.9646 5.14225 85.9646 4.9992C85.9646 4.81214 86.2066 4.47103 86.6798 3.93186C88.3413 2.13829 90.399 1.236 92.8528 1.236C95.0755 1.236 96.858 1.94022 98.1785 3.37068C99.3228 4.60308 99.895 6.17658 99.895 8.09119C99.895 9.38961 99.5979 10.4569 99.0147 11.3042C98.4425 12.1185 97.5953 12.8557 96.4839 13.5049H96.4949Z" fill="black"/>
</g>
<defs>
<clipPath id="clip0_185_3370">
<rect width="100" height="26.9806" fill="white" transform="translate(0.5 0.509766)"/>
</clipPath>
</defs>
</svg>
