<svg width="101" height="72" viewBox="0 0 101 72" fill="none" xmlns="http://www.w3.org/2000/svg">
<path fill-rule="evenodd" clip-rule="evenodd" d="M71.154 25.652L71.1902 19.3516H67.7103V26.3105C67.7103 28.6548 70.1646 30.5598 73.1682 30.5598C76.1719 30.5598 78.6262 28.6548 78.6262 26.3105V19.3516L75.1833 19.3885V25.652C75.1833 26.7146 74.3039 27.557 73.2052 27.557C72.0326 27.5562 71.154 26.7137 71.154 25.652ZM89.8706 30.0475H86.3907V11.6963H89.8706V30.0475ZM83.9733 30.0475H80.4934V11.6963H83.9733V30.0475ZM27.0904 23.3438C27.0904 22.1721 28.0429 21.2196 29.2146 21.2196C30.3863 21.2196 31.3388 22.1721 31.3388 23.3438H27.0904ZM34.7818 25.3219C34.8179 25.1019 34.8179 24.8457 34.8179 24.5895C34.8549 20.8164 32.3636 18.7292 29.1768 18.7292C25.9901 18.7292 23.4265 21.3297 23.4265 24.5534C23.4265 27.7771 25.9909 30.3767 29.1777 30.3767C31.595 30.3767 33.5 29.2781 34.4886 27.5562L31.6681 26.2375C31.3019 27.0069 30.4594 27.5562 29.47 27.5562C28.1512 27.5562 27.0895 26.5676 27.0895 25.395C27.0895 25.3219 27.0526 25.358 27.0526 25.285L34.7818 25.3219ZM40.1297 24.5525C40.1297 23.0137 41.2653 21.7689 42.6933 21.7689C44.1212 21.7689 45.2568 23.0146 45.2568 24.5525C45.2568 26.0905 44.1212 27.3361 42.6933 27.3361C41.2653 27.3731 40.1297 26.0913 40.1297 24.5525ZM45.2207 28.8388C44.3051 29.7913 43.0595 30.3406 41.7046 30.3406C38.811 30.3406 36.5037 27.7771 36.5037 24.6264C36.5037 21.4766 38.848 18.9123 41.7046 18.9123C43.0603 18.9123 44.269 19.4616 45.2207 20.3771V11.7332H48.7006V30.0105H45.2207V28.8388ZM60.4951 27.0069H57.1622V15.6886H59.5065C60.5321 15.6886 61.3745 16.531 61.3745 17.5566C61.3745 18.5822 60.5321 19.4246 59.5065 19.4246H58.297V22.5745H60.5312C61.7769 22.5745 62.6924 23.5631 62.6924 24.8087C62.6193 26.0544 61.8499 26.9338 60.4951 27.0069ZM63.718 14.0036C64.5235 14.8461 64.9636 15.9447 64.9636 17.1534C64.9636 18.4721 64.3773 19.6439 63.4257 20.5603C65.77 21.6589 66.4655 23.0877 66.4655 25.0657C66.4655 27.8132 64.0842 30.0105 61.1545 30.0836L53.4622 30.1205V12.6857L59.4326 12.7227C61.4106 12.7219 62.8755 13.0881 63.718 14.0036ZM16.6876 15.5794H14.7826V30.0475H11.0835V12.5757H17.2C17.2731 12.5757 17.3831 12.5757 17.4562 12.5757C20.3498 12.5757 22.7302 14.8831 22.7302 17.7406C22.7302 20.1579 21.0083 22.2091 18.7379 22.7584L23.8658 30.0475H19.4704L15.7343 24.3333V20.121H16.6137C17.9685 20.121 19.1042 19.0954 19.1042 17.8497C19.105 16.6049 18.0425 15.5794 16.6876 15.5794Z" fill="#25292C"/>
<path d="M64.1956 46.6032C64.1956 53.9065 58.2757 59.8265 50.9723 59.8265C43.669 59.8265 37.749 53.9065 37.749 46.6032C37.749 39.2998 43.669 33.3799 50.9723 33.3799C58.2757 33.3799 64.1956 39.2998 64.1956 46.6032Z" stroke="#25292C" stroke-width="9.5809"/>
<path fill-rule="evenodd" clip-rule="evenodd" d="M40.0189 38.5075C40.239 38.6175 40.4582 38.7275 40.6783 38.8737C41.7039 39.57 42.3632 40.1554 43.9381 41.4742C44.4144 41.9134 44.9267 42.6828 45.3299 43.1221C46.2093 44.1847 46.7587 44.9171 46.9048 45.7957C47.161 47.5537 47.3811 48.5432 48.0766 50.3373C48.1496 50.5204 48.4428 50.7766 48.6259 50.9597C49.0291 51.4721 49.2122 52.3515 49.9807 52.7908C50.3839 53.0108 50.457 53.0839 50.6031 53.1939C50.8232 53.3771 50.457 53.9995 49.3944 53.8533C49.9438 54.1464 49.8707 54.7689 49.0652 54.8058C47.4533 54.8419 46.5008 53.9633 46.2816 53.7433C46.2085 53.6702 45.8784 54.0364 45.3291 54.2926C44.7428 54.5857 43.9742 54.2926 43.388 54.4026C42.8386 54.5127 42.0692 54.8789 41.4838 54.8789C40.4213 54.915 40.2751 54.1826 40.2751 53.524C40.2751 53.414 40.2751 53.2679 40.2751 53.2309C40.1651 53.6341 39.7989 54.2934 39.7989 54.2934C39.6527 54.6227 39.4326 54.9898 39.0664 55.1359L37.9678 55.2821C37.0892 55.6483 36.2098 55.9414 35.2942 56.2707C34.7449 56.3807 34.1586 56.2707 33.7924 55.9414C33.4993 55.6852 33.28 55.3551 33.133 55.062C32.9499 54.9889 32.6937 55.062 32.5106 54.9889C32.3275 54.952 32.2175 54.8058 32.1075 54.6958L31.3381 53.414C31.265 53.2309 31.265 52.9747 31.3381 52.8277C31.4851 52.5346 31.8143 52.3884 32.1075 52.3884C32.6937 52.3515 33.3161 52.1684 33.8655 52.3884C34.1217 52.0953 34.4879 52.1323 34.8541 52.0592C34.7079 51.8761 34.4879 51.7291 34.3048 51.546C33.2792 51.8022 32.1436 51.619 31.155 51.4359C30.2394 51.2159 29.47 51.7652 28.5545 51.619L28.2613 52.2053C27.8582 52.6816 27.822 53.451 27.1627 53.7433C26.7234 53.8533 26.3572 54.1826 25.954 54.3657C25.2577 54.7319 24.2691 54.5857 23.5366 54.4387C23.2435 54.4018 22.9873 54.4388 22.7311 54.5488C22.4749 54.7319 22.2179 55.025 21.9256 55.2081C21.4863 55.3913 21.0831 55.7575 20.5708 55.7944C20.2776 55.7944 20.0215 55.6113 19.7283 55.6844C19.3621 56.0876 19.2159 56.71 18.6297 56.8561C18.0434 57.0023 17.3479 56.8931 16.7986 56.7461C16.6155 56.8192 16.5054 56.9662 16.2854 56.9292C15.8822 56.8192 15.516 56.7091 15.1498 56.526C15.0036 56.3799 14.9666 56.2329 14.9297 56.0498C14.9297 55.7936 15.1128 55.5735 15.2228 55.3904C15.2598 55.1342 15.2598 54.8041 15.369 54.5479C15.5521 54.1448 15.9553 53.9255 16.3215 53.7424C16.3584 53.4493 16.5415 53.1931 16.7977 53.0831C17.274 52.8269 17.7502 52.2776 18.3365 52.6068L18.9589 53.1561C19.5082 52.9 19.3621 52.3506 19.6552 51.9105C19.8014 51.6174 19.9845 51.2511 20.3516 51.2511C20.6077 51.2142 20.8648 51.2873 21.1209 51.2511C21.4872 51.1411 21.8534 50.995 22.1096 50.7018L22.0726 50.4818C21.7064 49.8224 21.6333 49.0169 21.5964 48.2105C20.974 48.2836 20.2776 48.3936 19.6552 48.2475C18.6666 48.1005 17.7141 47.332 17.3479 46.3795C16.9086 45.4269 17.0917 44.1082 17.7872 43.3027C18.3004 42.6803 18.9228 42.094 19.5452 41.6178C19.3251 41.5447 19.069 41.5817 18.8858 41.5078C17.9703 41.3608 17.0548 40.5553 16.8716 39.6397C16.7255 39.0534 16.8716 38.468 17.1648 37.9548C17.2748 37.8447 17.3849 37.7347 17.531 37.8078C17.9703 37.9909 18.1173 38.211 18.5566 38.4302L18.8128 38.5763C19.9845 38.9795 21.5233 38.9795 21.9626 40.3713C22.2557 41.47 21.5594 42.3494 20.7169 42.9718C20.0945 43.4111 19.4713 43.9974 19.142 44.6937C18.9959 45.206 19.069 45.6823 19.5082 46.0124C19.9475 46.4156 20.68 46.4156 21.2301 46.2325C22.2188 45.8293 23.1351 45.1699 24.0137 44.4744C24.8562 43.852 25.8818 43.595 26.9443 43.5589C27.4206 43.4489 27.8598 43.2296 28.263 42.9365C28.9224 42.3141 29.6179 41.7648 30.4973 41.5817C30.8635 41.5086 31.2667 41.4716 31.669 41.4347C31.9622 41.2885 32.1814 40.9223 32.4384 40.7384C33.574 39.7497 35.1489 39.7497 36.3946 38.9434C37.0909 38.3941 37.8594 38.064 38.8119 38.1009C39.2512 38.1379 39.6174 38.211 39.9837 38.3571L40.0189 38.5075ZM41.1915 50.4851C40.4221 50.5212 39.9459 50.7052 39.3965 50.7783C39.4326 51.2906 39.6897 51.6938 40.129 52.2431C40.276 51.4007 40.9714 51.1084 41.1915 50.4851Z" fill="white"/>
<path fill-rule="evenodd" clip-rule="evenodd" d="M60.9689 50.6323C61.3351 51.1816 61.5552 51.6948 61.8475 52.2442C62.1776 51.6218 62.4699 51.1086 62.7269 50.7062C62.7269 50.7415 61.8113 50.8515 60.9689 50.6323ZM61.7013 53.2689C61.6644 53.3789 61.5913 53.4151 61.4451 53.4151C61.5552 53.9274 61.2251 54.8068 60.3095 54.8799C59.7232 54.916 58.6977 54.3306 58.1853 54.2575C57.599 54.2206 56.5004 54.6607 55.841 53.7452C54.9985 54.7707 54.0099 55.0269 53.1675 55.0269C52.6912 55.0269 52.1419 54.7338 52.9113 54.1114C51.2994 54.6607 51.2994 53.5251 51.5564 53.342C51.7395 53.195 51.9596 53.0858 52.545 52.4995C54.8163 50.1191 53.9368 46.0529 56.4273 43.3424C57.3798 42.2799 58.1492 41.6944 60.0903 40.3026C60.7497 39.8264 61.409 39.204 62.0314 38.6908L62.0684 38.7269V38.6908C62.4716 38.4346 62.8008 38.1045 63.2401 38.0314C64.1195 37.9214 64.925 38.2145 65.6214 38.6538C65.9506 38.91 66.2438 39.2031 66.5369 39.5332C66.757 39.7533 67.0862 39.7533 67.3424 39.8625C68.1479 40.0086 68.8804 40.3018 69.5397 40.7419C70.016 41.0351 70.3822 41.5113 70.9315 41.5844C71.5909 41.6944 72.2133 41.9136 72.7996 42.2437C73.495 42.72 74.1544 43.2693 74.9607 43.4163C76.6457 43.5994 78.0375 44.5519 79.3931 45.4675C80.1625 45.9068 81.0781 46.4561 82.0306 46.1268C82.2868 46.0168 82.5068 45.7606 82.6169 45.5044C82.6899 44.882 82.3237 44.4058 81.9205 43.9295C81.115 42.977 79.7224 42.1715 79.8694 40.7797C80.1256 39.7541 81.2242 39.1679 82.1406 38.8747C82.6538 38.6916 83.2393 38.7647 83.6424 38.3254C83.8625 38.1784 83.9717 37.703 84.3018 37.8861C84.5949 38.0692 84.6319 38.4354 84.668 38.7286C84.8142 39.7172 84.5949 40.7066 83.6794 41.2921C83.2401 41.5483 82.8 41.6953 82.2876 41.7683C83.02 42.3907 83.7525 43.1232 84.1556 43.9295C84.4118 44.4058 84.5588 44.8451 84.5949 45.4313C84.558 46.4939 83.9356 47.4094 83.02 47.9588C82.4707 48.2519 81.8844 48.3619 81.262 48.3619C81.0058 48.3619 80.7858 48.2888 80.5657 48.2888C80.6757 48.8012 80.6757 49.4614 80.5657 50.0107C80.5287 50.3039 80.3456 50.597 80.3456 50.9632C80.4918 51.1464 80.6749 51.1464 80.895 51.1464C81.3712 51.1464 81.9205 51.1102 82.1406 51.6226C82.3607 52.0619 82.4707 52.6112 82.6538 53.0514C82.7269 53.1244 82.7639 53.3075 82.8739 53.2714C83.2031 52.9783 83.4963 52.6121 83.9725 52.7221C84.4118 53.0152 84.815 53.3084 85.2543 53.6376C85.3643 53.7477 85.4013 53.8938 85.4374 54.0769C85.8036 54.2231 86.2429 54.4801 86.353 54.8824C86.426 55.1386 86.3891 55.4318 86.463 55.688C86.573 55.9811 86.8662 56.3104 86.6461 56.6766L86.4999 56.7866L85.1451 57.1898C85.0351 57.1898 84.925 57.1167 84.852 57.0067C84.1556 56.9705 83.314 57.1898 82.7639 56.6774C82.5077 56.4573 82.3246 56.2012 82.1414 55.945C81.7383 56.165 81.1159 56.3112 80.6766 56.0181C79.798 55.3217 78.9186 54.6624 77.7099 54.6993C77.1975 54.8094 76.5373 54.9555 76.0249 54.7363C75.5487 54.3701 74.9633 54.187 74.5601 53.7107C74.0108 53.1244 73.9738 52.429 73.7907 51.6965C73.0213 51.8796 72.1788 51.7696 71.4103 51.7326C70.7879 51.6965 70.1646 51.8057 69.5792 51.9157C68.8468 52.0627 68.0412 52.1358 67.2349 52.0989L66.8687 52.392C67.0518 52.4281 67.2349 52.4281 67.381 52.5381L67.528 52.6843C68.1504 52.7574 68.8829 52.6482 69.4692 52.7943C69.6153 52.8313 69.7623 52.9774 69.8354 53.1236C69.9084 53.3067 69.9085 53.5268 69.7984 53.6729C69.4692 54.0761 69.3222 54.5885 68.8829 54.9547C68.7728 55.1008 68.4436 54.9177 68.4066 55.1747C68.2605 55.7971 67.6742 56.3473 67.0518 56.4565C66.7956 56.4926 66.5394 56.4565 66.3194 56.3834C65.5869 56.1272 64.8175 55.9072 64.0851 55.7241C63.8289 55.651 63.6458 55.3948 63.4257 55.2478C63.0965 55.2478 62.6563 55.3578 62.4371 55.0647C62.3271 54.9916 62.217 54.7716 62.1809 54.6254C62.0306 54.3314 61.8114 53.7821 61.7013 53.2689Z" fill="white"/>
<path fill-rule="evenodd" clip-rule="evenodd" d="M39.6539 42.9396C39.874 43.489 39.874 44.1853 39.727 44.7346C39.69 44.7716 39.6539 44.7716 39.617 44.7346C39.5069 44.2222 39.3969 43.746 39.2138 43.2697C39.1038 42.9766 38.7375 42.7574 38.9207 42.4273C38.9937 42.3542 39.1407 42.3542 39.2138 42.3912C39.4347 42.5365 39.5447 42.7565 39.6539 42.9396ZM45.295 47.8844C45.6982 48.3237 45.9544 48.8369 45.8443 49.4593C45.7713 49.5693 45.8074 49.7525 45.6243 49.7886C45.5512 49.8247 45.4773 49.7516 45.4773 49.6785C45.4412 49.3493 45.4412 49.0192 45.2572 48.763C45.0372 48.5429 44.8179 48.1406 44.4517 48.1406C44.1955 48.2137 44.0124 48.5068 43.8654 48.6899C43.8654 48.726 43.8285 48.726 43.7924 48.6899C43.6454 48.3598 43.9385 48.0675 44.0485 47.7744C44.2686 47.5543 44.1947 46.9689 44.6709 47.152C45.0019 47.3351 45.075 47.6643 45.295 47.8844ZM44.5626 52.0598C44.5987 52.2799 44.5987 52.5722 44.3795 52.7192C44.1594 52.7922 43.9032 52.8292 43.647 52.7922C43.574 52.7561 43.5009 52.7192 43.537 52.6461C43.647 52.3168 43.9763 51.9867 44.3064 51.9136C44.3795 51.9498 44.5256 51.9136 44.5626 52.0598ZM18.8493 39.2036C19.6917 39.4236 20.6073 39.4236 21.2305 40.083C21.5598 40.5223 21.5967 41.2186 21.3405 41.6948C20.8643 42.5373 19.8757 42.9766 19.2524 43.709C18.6662 44.2214 18.4469 44.9908 18.63 45.7232C18.8501 46.3826 19.5095 46.8588 20.1688 46.895C21.1944 46.9319 21.9999 46.3826 22.8424 45.9063C23.6848 45.3201 24.4542 44.5515 25.4429 44.2945C26.0653 44.0744 26.7977 44.1844 27.384 43.9283C28.0803 43.7813 28.5927 43.2319 29.1059 42.7557C29.6922 42.2794 30.3876 41.9863 31.194 42.0233C31.8895 42.1333 32.2926 41.4739 32.7689 41.0708C33.5744 40.3383 34.6369 40.2652 35.5894 39.8251C36.2488 39.605 36.7981 39.1288 37.4205 38.7995C38.0068 38.5434 38.8493 38.5064 39.4347 38.7265C39.8379 38.9096 40.2402 39.0927 40.5703 39.3489L43.427 41.7293C43.4639 41.8393 43.5731 41.8754 43.647 41.9493C44.4526 42.938 45.332 43.8905 45.9544 44.953C46.1744 45.3192 46.2475 45.7224 46.3576 46.1247C46.5037 47.7366 46.9438 49.1645 47.4562 50.5571C47.6032 50.7772 47.8955 50.9233 48.0425 51.1434C48.4818 51.7658 48.7749 52.5722 49.5074 52.9745L49.9467 53.1946C49.9828 53.2315 49.9828 53.3046 49.9467 53.3416L49.8736 53.4146C48.9942 53.5608 48.3356 53.0115 47.8955 52.3891C47.6024 51.8397 47.2361 51.2165 46.6137 50.9973C46.5768 50.9973 46.5407 51.0342 46.5407 51.0342C46.6137 51.2173 46.8338 51.4004 46.9069 51.5835C47.1631 51.9867 47.3831 52.3891 47.4932 52.7922C47.6393 53.2315 48.1156 53.5616 48.5187 53.8178L49.105 54.1109C49.1781 54.1471 49.2151 54.2571 49.142 54.331L49.0689 54.368C48.1164 54.4049 47.2739 54.0748 46.6146 53.3794C46.4684 53.1962 46.2484 53.0501 46.0283 53.0501C45.589 53.4163 45.1858 53.7825 44.5995 53.8195C44.0133 53.7094 43.3539 53.7094 42.8415 53.9295C42.3653 54.1126 41.889 54.2957 41.3397 54.3327C41.0835 54.3327 40.7904 54.2227 40.7173 53.9665C40.7173 53.6733 40.4972 53.3071 40.6812 52.9779L41.0474 52.4285C41.0474 52.3555 41.0104 52.2824 40.9374 52.2824C40.7904 52.2463 40.5342 52.5024 40.4981 52.2463C40.5342 51.6969 41.0474 51.3668 41.4136 51.0006C41.4867 50.5613 41.6698 50.1951 41.9629 49.865C41.9629 49.8281 41.926 49.755 41.8529 49.755C41.4136 49.8281 40.9374 49.9381 40.4611 49.9381C40.0579 50.1582 39.5817 50.3043 39.1424 50.1582C39.0324 50.0851 39.0693 49.975 39.1054 49.902C39.5817 49.2426 39.7648 48.4001 39.6548 47.5577C39.6178 47.5207 39.6178 47.4476 39.5447 47.4476C39.4717 47.4476 39.4717 47.5207 39.4347 47.5577C39.3247 48.3271 39.0685 48.9495 38.6653 49.5719C38.3361 49.902 37.8598 49.865 37.4566 50.0112C37.3466 50.0481 37.2366 50.1582 37.2366 50.2673C37.2366 50.5235 37.4197 50.7436 37.5297 50.9637L38.4452 52.6486C38.4814 53.1248 38.2621 53.5641 38.1521 53.9673C38.1891 54.0404 38.2621 54.0034 38.3352 53.9673C38.6645 53.6742 38.8845 53.308 38.9946 52.9048C39.0315 52.7217 38.9585 52.5016 38.8845 52.3555L37.932 50.4874C38.0051 50.3774 38.1521 50.3774 38.2613 50.3413C38.4814 50.3413 38.6645 50.4513 38.8837 50.5244C39.1038 51.1107 39.323 51.66 39.7262 52.1723C39.7992 52.4655 39.9093 52.9048 39.6892 53.161C39.4691 53.5641 39.2499 53.9304 38.9929 54.3327C38.7367 54.5889 38.3705 54.5528 38.0404 54.5889H37.7473C36.9048 55.0282 36.0254 55.3213 35.1098 55.6145C34.7066 55.7976 34.2673 55.6506 33.9381 55.3944C33.6088 55.1382 33.4988 54.772 33.2787 54.4788C33.0225 54.1857 32.6563 54.4419 32.3632 54.2588C32.107 53.8556 31.8869 53.4894 31.6669 53.0871C31.6669 52.977 31.6669 52.867 31.7769 52.7939C32.1062 52.6839 32.4363 52.6839 32.8025 52.6478C33.1317 52.6108 33.4618 52.6839 33.6819 52.9039C34.1212 53.4163 34.2682 54.0757 34.9275 54.4058C35.4038 54.4419 35.8431 54.2957 36.2832 54.0757C36.5394 53.9295 36.8325 53.7095 36.8325 53.4163C36.7964 52.7939 36.3563 52.3177 35.88 51.9514C35.3307 51.6583 34.7814 51.2921 34.3782 50.7789C34.1951 50.5227 34.122 50.1926 34.012 49.9003C33.975 49.8272 33.8659 49.8272 33.7919 49.8633C33.5719 50.0464 33.7558 50.3396 33.7558 50.5596C33.7919 50.7058 33.8659 50.8528 33.7919 50.9989C33.4988 51.2551 33.0595 51.109 32.6563 51.1451C31.8869 51.109 31.1545 50.7789 30.349 50.852C29.5796 50.8881 28.5179 51.4013 27.9316 50.6319C27.6385 49.8995 27.7116 49.02 27.8585 48.2876C27.8585 48.2145 27.7855 48.1414 27.7124 48.1414C27.6393 48.1045 27.5662 48.1414 27.5293 48.2145C27.3462 48.9469 27.2731 49.7525 27.1261 50.5219C26.833 51.1812 26.3567 51.9136 25.6612 52.2437C25.0388 52.573 24.3425 52.683 23.647 52.72C22.3283 52.757 21.0466 53.0131 20.2402 54.1487C20.1671 54.2588 20.0571 54.3319 20.0941 54.4788C20.131 54.515 20.2402 54.5519 20.2772 54.515C21.1927 53.4894 22.3653 53.0862 23.684 53.1232C24.9658 53.1232 26.2114 52.9031 27.0169 51.8044C27.237 51.5483 27.3462 51.2921 27.5293 51.0351C27.6754 51.0351 27.7855 51.2182 27.8955 51.2912C27.9316 51.6575 27.6024 51.9136 27.4923 52.2437C27.3462 52.61 27.1631 53.0131 26.796 53.1962C26.3567 53.3063 26.0266 53.5994 25.6604 53.8186C25.2572 54.0018 24.781 54.0748 24.3047 53.9656C23.7184 53.8556 22.9499 53.7095 22.3997 53.9656C22.1066 54.1487 21.8865 54.478 21.5942 54.625C21.191 54.7711 20.8618 55.1374 20.3855 55.1012C20.0563 55.0282 19.6892 54.8081 19.3969 55.1012C19.0676 55.4313 18.9576 55.9807 18.5175 56.1638C18.0051 56.4569 17.4549 56.1638 16.9056 56.1277C16.9787 55.6153 17.0518 55.1021 17.3819 54.7359C17.6019 54.6989 17.785 54.6628 17.9312 54.5158C18.1513 54.3327 18.2974 54.0765 18.4444 53.8564C18.8837 53.5633 19.433 53.3441 19.7262 52.8678C19.9462 52.3916 19.9462 51.9884 20.3125 51.5861L20.4956 51.513L21.4481 51.4399C21.8512 51.2568 22.1805 51.0737 22.5467 50.8175C22.6567 50.7075 22.6929 50.5244 22.6567 50.3782C22.4736 49.902 22.3275 49.6088 22.2175 49.1326C22.1074 48.6194 22.1805 48.144 22.1074 47.5577C22.0705 47.5207 22.0343 47.4107 21.9613 47.4107C21.3389 47.5577 20.7156 47.7408 20.0201 47.6307C19.0676 47.5207 18.1151 46.8983 17.7489 45.9458C17.4197 45.1403 17.4927 43.9677 18.1151 43.3084C18.7014 42.6121 19.3969 42.0627 20.0563 41.5134C20.1663 41.4403 20.1663 41.2933 20.2024 41.1842C20.2024 41.0372 20.0563 40.928 19.9462 40.891C19.5069 40.781 19.0307 40.928 18.5914 40.7449C17.859 40.4887 17.2727 39.7924 17.1996 39.023C17.1626 38.6929 17.2366 38.4006 17.4197 38.1074C17.9337 38.6542 18.3369 39.0566 18.8493 39.2036ZM16.762 54.9534V55.0634C16.5789 55.4666 16.4689 55.979 16.3227 56.4552C15.9934 56.4183 15.7364 56.3083 15.4802 56.2352C15.4072 56.1621 15.4802 56.089 15.4802 56.0151C15.7734 55.722 15.7003 55.3927 15.7734 54.9895C15.8103 54.7695 16.0296 54.5864 16.2127 54.4772C16.4689 54.5502 16.615 54.7703 16.762 54.9534ZM18.3369 53.4885C18.1538 53.8548 17.8976 54.2579 17.5314 54.4772C17.3852 54.5133 17.2021 54.5133 17.0921 54.4402C17.019 54.3671 16.872 54.2941 16.872 54.1471C16.909 54.0009 16.8351 53.8178 16.9821 53.7439C17.2752 53.5608 17.5683 53.3777 17.8245 53.1576C17.8976 53.1206 18.0076 53.0845 18.0807 53.1576C18.1538 53.2324 18.2999 53.3416 18.3369 53.4885ZM35.9548 53.3416C35.9918 53.4877 36.211 53.6708 36.0648 53.8178C35.7717 54.0379 35.4785 54.184 35.1123 54.1109C34.8192 53.8909 34.8562 53.4885 34.6 53.2315C34.5269 53.0115 34.1968 53.0115 34.2707 52.7922L34.3807 52.7192C34.7839 52.7192 35.1501 52.7192 35.5525 52.6461C35.9178 52.6461 35.8086 53.0854 35.9548 53.3416Z" fill="#25292C"/>
<path fill-rule="evenodd" clip-rule="evenodd" d="M58.1835 47.5917C58.4036 47.8848 58.5497 48.1779 58.6959 48.5072C58.732 48.5803 58.6959 48.6533 58.6589 48.7273C58.6228 48.8003 58.5489 48.8743 58.4389 48.8003C58.1827 48.7273 58.2188 48.3241 57.9265 48.361C57.7064 48.361 57.5603 48.5442 57.3772 48.6542C57.0479 48.9473 56.6447 49.2405 56.5717 49.6428C56.4986 49.789 56.5356 50.009 56.3886 50.1191C56.3155 50.156 56.2055 50.0829 56.2055 50.009C56.1685 49.4597 56.3516 48.9104 56.7548 48.5442C57.158 48.2149 57.4141 47.7748 57.7434 47.4085C57.9635 47.3355 58.1105 47.4455 58.1835 47.5917ZM58.2936 52.2802C58.3666 52.4264 58.5136 52.6095 58.4036 52.7926C58.2574 52.9026 58.0004 52.8296 57.8173 52.8296C57.5972 52.7195 57.5611 52.4634 57.5242 52.2072C57.5242 52.1341 57.5242 52.0971 57.5972 52.0241C57.8904 52.0241 58.1466 52.0602 58.2936 52.2802ZM63.6046 41.5113C63.7146 41.6574 63.6046 41.8044 63.5315 41.9144C63.0191 42.3907 62.4328 42.8669 62.0666 43.4524C61.9196 43.6355 61.8465 43.8556 61.7373 44.0387C61.7373 44.0748 61.7004 44.0748 61.6643 44.0748C61.5542 43.7816 61.7012 43.4885 61.7743 43.1954C62.0305 42.536 62.5798 41.8766 63.1661 41.4374C63.2745 41.3651 63.5315 41.3282 63.6046 41.5113ZM65.6187 39.2409C65.985 39.4971 66.1681 40.0103 66.6074 40.1203C67.3768 40.3034 68.1453 40.4865 68.8416 40.8166C69.354 41.0728 69.7941 41.439 70.2334 41.8053C70.6727 42.0253 71.1859 42.0253 71.6252 42.1715C72.2846 42.3546 72.8339 42.8308 73.4202 43.234C74.1896 43.8564 75.2882 43.7464 76.1677 44.1495C77.5594 44.5888 78.6951 45.6883 80.0138 46.3477C80.6731 46.7139 81.6987 46.8601 82.3942 46.4577C82.8335 46.1276 83.1266 45.7253 83.0535 45.139C82.7974 43.7103 81.2225 42.9409 80.4531 41.7691C80.3069 41.476 80.1969 41.1098 80.27 40.7805C80.5261 40.0842 81.2955 39.7188 81.9179 39.4257C82.4311 39.1695 83.0535 39.2426 83.5298 38.9494C83.7129 38.8394 83.8229 38.6932 83.9691 38.5832C84.0791 38.5832 84.0791 38.6932 84.1152 38.7663C84.2614 39.6088 84.1152 40.4882 83.3828 40.9636C83.0897 41.1467 82.7604 41.2568 82.4303 41.3298C82.1372 41.4399 81.5878 41.2198 81.6248 41.6961C81.6979 41.9161 81.9179 42.0992 82.101 42.2454C83.0897 43.0509 83.9691 44.1134 84.1152 45.3591C84.1522 46.3477 83.4928 47.1902 82.6134 47.5933C81.991 47.8495 81.1847 47.9596 80.5261 47.7764C80.343 47.7403 80.0499 47.5933 79.9399 47.8134C79.9037 48.0696 80.0869 48.2896 80.0869 48.5458C80.1599 49.0221 80.1599 49.6084 80.0138 50.0477C79.9407 50.4139 79.5745 50.8171 79.9037 51.1833C80.233 51.6595 80.8562 51.5125 81.3686 51.6226C81.6618 51.6587 81.7348 51.9888 81.8449 52.2088C81.9549 52.465 81.9549 52.7951 82.0649 53.0144C82.0649 53.5267 82.6512 53.7468 82.9444 54.0761C83.3106 54.4792 83.6037 55.1386 84.2261 55.1016C84.4092 55.5409 84.5554 55.9071 84.6293 56.4203L84.5562 56.4934C84.0438 56.4934 83.4206 56.6404 83.0183 56.2734C82.579 55.9802 82.4689 55.2108 81.8457 55.4309C81.5895 55.651 81.1863 55.724 80.8571 55.577C80.5639 55.467 80.3447 55.1739 80.0516 55.0277C79.2091 54.4053 78.1105 54.1122 77.0118 54.3314C76.3894 54.5145 75.8762 54.0752 75.3638 53.7451C74.7045 53.452 74.5214 52.7565 74.3752 52.1333L74.2652 51.4008C74.2652 51.3277 74.3382 51.2547 74.4122 51.2547H74.5222C74.8884 52.1341 75.6208 53.0857 76.5733 53.4158C77.4519 53.7821 78.2583 53.3058 79.2108 53.4889C80.0902 53.599 80.7857 54.1483 81.482 54.6976C81.5551 54.6976 81.592 54.6615 81.6282 54.5876V54.5515C80.8226 53.5259 79.7232 53.0135 78.4044 53.0866C77.3427 53.3067 76.2432 52.9396 75.6208 52.0241C75.2907 51.5117 75.0346 50.9615 74.9245 50.3391C74.8145 49.6428 74.6683 48.8743 74.4483 48.2149C74.3752 48.1788 74.3021 48.1049 74.2282 48.1418L74.1551 48.2519C74.2652 48.9112 74.4483 49.7537 74.2282 50.4492C74.0451 50.9985 73.4958 51.2185 72.9465 51.2547C72.3971 51.2916 71.9209 51.1816 71.3716 51.1816C70.0898 51.1446 68.9903 51.6578 67.6724 51.5108C67.7825 51.2177 68.0017 50.8884 67.8925 50.5222C67.8564 50.4492 67.7463 50.4492 67.6724 50.4492C67.4162 50.5961 67.4524 50.9254 67.3062 51.1085C67.0131 51.5848 66.5007 51.9879 65.9875 52.0971C65.6213 52.3903 65.2551 52.7934 64.9619 53.1227C64.8519 53.2327 64.8519 53.4158 64.8888 53.599C65.145 54.2214 65.8775 54.2953 66.4637 54.4784C66.7569 54.5145 67.0131 54.4053 67.1231 54.1483C67.3793 53.7451 67.4162 53.1227 67.9656 53.0496H69.2112C69.3212 53.0866 69.3943 53.1597 69.4313 53.2697L69.3952 53.4528C69.139 53.7821 68.992 54.2222 68.6627 54.4414C68.4796 54.5145 68.1865 54.4414 68.0764 54.6245C68.0034 55.0638 67.8933 55.504 67.4902 55.7232C67.197 56.0163 66.7208 55.8702 66.3545 55.7601C65.6952 55.504 64.9997 55.3939 64.3403 55.1739C64.0472 55.1008 63.9372 54.7346 63.644 54.6615C63.3509 54.5884 63.0216 54.8076 62.8016 54.5515C62.6554 54.2583 62.5815 54.0021 62.5084 53.672C62.3984 53.452 62.3253 53.2327 62.2884 52.9757C62.2522 52.7557 62.2884 52.6095 62.3614 52.4264L63.277 50.7784C63.35 50.6684 63.4231 50.5583 63.5332 50.5222C63.7532 50.5583 63.9724 50.6684 64.1925 50.7784L64.1564 50.8884L63.2409 52.3172C63.0208 52.7935 63.2409 53.3058 63.4609 53.709C63.497 53.7451 63.534 53.819 63.571 53.7821C63.5348 53.4889 63.4979 53.1958 63.571 52.9026C63.644 52.6465 63.791 52.3533 63.9741 52.1333L64.7066 51.0346C64.7796 50.8515 64.7796 50.5584 64.6335 50.4122C64.3042 50.0829 63.8641 50.009 63.571 49.5697C62.9486 48.7642 62.9116 47.8117 62.8385 46.7861C62.8385 46.7131 62.7654 46.603 62.6554 46.5661C62.5823 46.53 62.5093 46.6391 62.4723 46.6761C62.2892 47.3355 62.3992 48.141 62.5823 48.7273C62.6924 49.2035 62.9116 49.6428 63.0947 50.0829C63.1308 50.156 63.0577 50.266 62.9847 50.266C62.5084 50.303 61.996 50.266 61.5198 50.193C60.8974 50.0829 60.4212 49.6067 59.9079 49.2405C59.8349 49.2044 59.7979 49.2774 59.7618 49.3135C59.9079 50.009 60.6773 50.4122 60.9335 51.0716C61.0797 51.5839 61.5929 51.9871 61.7029 52.5734C61.7029 52.6465 61.6298 52.7565 61.5568 52.7934C61.3736 52.8304 61.1905 52.7204 61.0444 52.8304C61.0074 53.1235 61.2275 53.4528 61.0805 53.7459C60.8974 54.0021 60.6773 54.3322 60.3481 54.3322C59.7257 54.1122 59.1024 53.856 58.4431 53.6729C57.9668 53.6359 57.5275 53.7098 57.0882 53.7459C56.6851 53.6729 56.3919 53.3067 56.0627 53.0496C55.9526 53.0135 55.8796 53.0135 55.8065 53.0866C55.1102 53.7829 54.3416 54.5515 53.2791 54.5153C53.206 54.5153 53.169 54.4423 53.169 54.3692V54.2961C53.6453 53.8929 54.1946 53.4536 54.3777 52.8674C54.5239 52.3911 54.964 52.0249 55.1102 51.5486C55.1471 51.4756 55.074 51.4386 55.0001 51.4017L54.8901 51.4747C54.3777 52.0241 53.9746 52.5734 53.6083 53.1966C53.2052 53.5998 52.6558 53.819 52.0704 53.6729C51.9973 53.6359 51.9973 53.5267 52.0334 53.4528C54.2316 52.0971 54.4878 49.7167 55.0732 47.5555C55.5125 46.1268 55.8056 44.625 56.9412 43.4532C58.6262 41.6221 60.7504 40.4865 62.5823 38.8747C62.8755 38.6185 63.1317 38.3984 63.4979 38.3623C64.2639 38.3984 64.9594 38.7277 65.6187 39.2409ZM85.691 54.8076C85.8741 55.0638 85.801 55.43 85.8741 55.7232C85.9102 55.9433 86.1672 56.0894 86.0572 56.3095L85.2878 56.5657C85.1417 56.5657 85.2147 56.3825 85.1417 56.3095C85.0686 55.8702 84.9585 55.5401 84.8124 55.1008C84.7754 54.8446 85.0325 54.6615 85.2156 54.5145C85.3978 54.5145 85.5448 54.6976 85.691 54.8076ZM83.8969 53.2327C84.19 53.4889 84.5562 53.672 84.7754 53.9652C84.8124 54.1113 84.7024 54.2583 84.6293 54.3684C84.5193 54.4784 84.3731 54.5515 84.19 54.5515C84.0069 54.5515 83.8607 54.4414 83.7507 54.2953C83.5676 54.0391 83.3114 53.7829 83.2383 53.4898C83.3836 53.3058 83.6398 53.0127 83.8969 53.2327ZM66.9375 52.9396C66.9013 53.2697 66.7913 53.599 66.6443 53.9282C66.5343 54.1483 66.2411 54.0744 66.0219 54.0383C65.8019 53.9652 65.4726 53.9282 65.4356 53.6351C65.3987 53.3419 65.5457 53.0858 65.6918 52.8657C66.0211 52.8296 66.3881 52.9026 66.7174 52.8296C66.8274 52.8296 66.9375 52.8665 66.9375 52.9396Z" fill="#25292C"/>
</svg>
