<svg width="101" height="46" viewBox="0 0 101 46" fill="none" xmlns="http://www.w3.org/2000/svg">
<path d="M100.5 14.6094L74.1568 24.6155L75.6887 21.3124L39.9884 33.5123L41.9654 29.4223L0.509483 45.3558L31.6368 37.5418L29.0863 42.4525L67.6767 28.081L65.4713 32.3615L100.5 14.6094ZM94.6122 2.49245C94.799 2.49245 94.9744 2.47743 94.9744 2.25098C94.9744 2.06799 94.8046 2.03593 94.6499 2.03593H94.3481V2.49245H94.6122ZM94.348 3.3188H94.1217V1.84729H94.6858C95.031 1.84729 95.2027 1.97553 95.2027 2.2643C95.2027 2.52823 95.0405 2.64519 94.8216 2.6698L95.2385 3.3188H94.9914L94.6008 2.68109H94.3481L94.348 3.3188ZM94.6178 3.64708C95.1951 3.64708 95.6536 3.19428 95.6536 2.57926C95.6536 1.97553 95.1951 1.51901 94.6178 1.51901C94.033 1.51901 93.5765 1.97553 93.5765 2.57926C93.5765 3.19428 94.033 3.64708 94.6178 3.64708ZM93.318 2.57926C93.318 1.84729 93.9123 1.30587 94.6178 1.30587C95.314 1.30587 95.9081 1.84729 95.9081 2.57926C95.9081 3.31868 95.314 3.86213 94.6178 3.86213C93.9123 3.86213 93.318 3.31879 93.318 2.57926ZM23.7569 6.73143L19.1897 10.5874C19.1897 10.5874 17.3729 8.54623 17.2315 8.38773C17.073 8.52354 13.3358 11.6929 13.3358 11.6929L13.8678 6.43137L0.5 17.6958L9.62876 13.3134L7.28383 32.9933C7.28383 32.9933 10.0796 35.061 10.3117 35.2177C10.5476 33.3405 12.8038 15.3131 12.9265 14.3321L12.9339 14.2926L15.577 12.0626L16.1392 12.6173L14.013 30.5693C14.013 30.5693 16.8541 32.6898 17.0353 32.8124C17.0559 32.6349 18.9595 16.3657 19.4123 12.4853L22.0383 10.2629L22.5966 10.8156L20.5441 28.3206L23.5664 30.5485L26.0376 9.24422L23.7569 6.73143ZM31.1765 10.6687L28.0223 11.2044L27.6317 14.2944L30.7822 13.6984L31.1765 10.6687ZM48.1305 11.9646L46.8628 21.7782L46.1629 22.5291L44.9763 21.5443L46.1554 12.3155L42.9993 13.0833L41.7844 22.6857L40.8524 23.927L39.8563 23.046L41.0411 13.3832L37.8735 14.0455L36.8152 22.8328L35.5023 24.6175L34.576 23.8666L36.6209 7.33143L33.5289 7.83141L31.6218 23.7176L30.0483 25.8834L29.2674 25.2344L30.5766 15.551L27.4205 16.1961L25.9585 27.4191L28.7372 29.5979L31.4726 25.9022L34.3308 28.1888L37.0831 24.4459L40.0337 27.0115L42.9445 23.1592L45.3102 25.2419L49.4021 20.7955L50.6586 11.4139L48.1305 11.9646ZM55.62 18.4164L54.3466 19.9785L53.6656 19.3918L54.703 11.2252L56.4179 12.1345L55.62 18.4164ZM83.3555 6.72781L84.8476 8.46325L82.9951 9.48388L83.3555 6.72781ZM91.2882 5.10526L92.6616 6.74463L90.9618 7.70679L91.2882 5.10526ZM91.49 11.542L90.5807 10.778L90.7675 9.28012L95.0121 6.87852L91.5882 2.63762L88.4659 5.36378L87.7322 11.2554L83.5723 13.5454L82.5819 12.7325L82.7857 11.1478L87.4 8.60278L83.6818 4.11489L80.2879 7.00292L79.5711 12.5945L78.0638 14.0549L75.6905 9.36885L81.0067 4.51847L78.5938 4.86932L74.5908 8.27823L75.5472 0.643555L72.6533 1.04352L71.0384 14.1208L69.2858 16.0468L68.8726 15.6998L69.9235 7.403L66.807 8.11793L65.8335 15.6205L64.4488 17.2958L63.8584 16.7826L64.9034 8.55379L61.7643 9.17807L60.7928 16.8731L59.3402 18.722L58.7026 18.1635L59.7854 9.57058L56.6539 10.244L56.5821 10.9119L54.3956 9.85732L51.3226 13.7813L50.434 20.7895L53.4052 23.3156L56.1331 19.7991L58.4761 21.7896L61.0342 18.5051L63.2339 20.4311L65.6486 17.2655L67.9502 19.2653L71.0667 15.879L73.4399 17.7598L74.1511 12.0117L76.647 17.1317L79.9578 13.9057L82.1066 15.7148L88.5074 12.1796L90.1431 13.5907L96.0214 10.1535L96.1817 8.89144L91.49 11.542Z" fill="black"/>
</svg>
