<svg width="101" height="24" viewBox="0 0 101 24" fill="none" xmlns="http://www.w3.org/2000/svg">
<g clip-path="url(#clip0_114_2174)">
<path d="M22.0958 23.0641C20.3937 19.3407 18.6384 15.5109 16.883 11.628C15.1277 7.74499 13.3192 3.91521 11.6703 0.191801C11.6171 0.0854181 11.5107 0.0322266 11.3511 0.0322266C11.2447 0.0322266 11.0852 0.0854181 11.032 0.191801L0.50006 23.0641C0.446868 23.1705 0.50006 23.2769 0.553251 23.3833C0.606443 23.4365 0.712826 23.4897 0.819209 23.4897H3.74474C3.85112 23.4897 3.95751 23.4365 4.06389 23.2769L6.45751 17.9578H16.0852V18.011C16.4043 18.7556 16.7767 19.5535 17.0958 20.2982C17.5745 21.3088 18.0532 22.3195 18.4788 23.3301C18.5852 23.4897 18.6915 23.5429 18.7979 23.5429H21.7767C21.883 23.5429 21.9894 23.4897 22.0426 23.4365C22.149 23.3301 22.149 23.2237 22.0958 23.0641ZM7.84049 14.9258L11.2979 7.10669L11.3511 7.21308L14.8086 14.9258H7.84049Z" fill="black"/>
<path d="M31.6171 9.12797C29.9682 9.12797 28.532 9.76627 27.3618 11.0429L27.2554 11.1492V0.298184C27.2554 0.191801 27.0958 0.0322266 26.9363 0.0322266H24.3299C24.1703 0.0322266 24.0107 0.191801 24.0107 0.298184V23.2237C24.0107 23.3833 24.1703 23.5429 24.3299 23.5429H26.9363C27.149 23.5429 27.2554 23.4365 27.2554 23.2237V22.0003L27.3618 22.1067C28.532 23.2769 30.0214 23.9684 31.5107 23.9684C36.1384 23.9684 38.2129 20.0854 38.2129 16.4684C38.2129 12.9046 35.9256 9.12797 31.6171 9.12797ZM30.9788 21.0961C28.4256 21.0961 27.0958 18.8088 27.0958 16.5216C27.0958 14.3407 28.4788 12.0003 30.9788 12.0003C33.3724 12.0003 35.0214 13.862 35.0214 16.5216C35.0214 18.8088 33.798 21.0961 30.9788 21.0961Z" fill="black"/>
<path d="M43.2659 0.0322266H40.6595C40.4999 0.0322266 40.3403 0.191801 40.3403 0.298184V23.2237C40.3403 23.3833 40.4999 23.5429 40.6595 23.5429H43.2659C43.4254 23.5429 43.585 23.4365 43.585 23.2237V0.298184C43.5318 0.191801 43.3722 0.0322266 43.2659 0.0322266Z" fill="black"/>
<path d="M52.6278 9.12793C48.4257 9.12793 45.8193 12.0003 45.8193 16.6279C45.8193 20.9364 48.6385 23.9684 52.681 23.9684C55.447 23.9684 57.7342 22.5854 59.064 20.1386V20.0854C59.064 19.979 59.0108 19.8726 58.8513 19.7662L56.6704 18.5428C56.5108 18.4364 56.4044 18.4896 56.2449 18.596C55.3938 19.979 54.5427 21.096 52.681 21.096C50.6066 21.096 49.1704 19.713 49.0108 17.6918V17.6386H58.9044C59.064 17.6386 59.2236 17.5322 59.2236 17.3726V16.9471C59.2768 13.3301 57.5215 9.12793 52.6278 9.12793ZM49.2768 14.9258V14.8726C49.7023 13.4364 50.9789 12.0003 52.6278 12.0003C54.4896 12.0003 55.5534 13.4896 55.9789 14.8726V14.9258H49.2768Z" fill="black"/>
<path d="M69.5957 9.55336H66.4042V5.88314C66.4042 5.72357 66.2978 5.61719 66.085 5.61719H63.4787C63.3191 5.61719 63.1595 5.72357 63.1595 5.88314V7.4257C63.1595 8.11719 63.1595 9.55336 61.2446 9.55336H60.7127C60.5531 9.55336 60.3936 9.71293 60.3936 9.81931V12.2661C60.3936 12.4789 60.6595 12.5321 60.7127 12.5321H63.1595V18.4363C63.1595 22.2129 64.5957 24.0214 67.6276 24.0214C68.5319 24.0214 69.2233 23.9151 69.7021 23.7023C69.8085 23.7023 69.9148 23.5427 69.9148 23.4363V20.8831C69.9148 20.7236 69.7553 20.6172 69.5957 20.6172C69.5425 20.6172 69.4361 20.6704 69.3829 20.6704C69.0106 20.83 68.6382 20.9895 68.1063 20.9895C67.9999 20.9895 67.8404 20.9895 67.734 20.9895C66.4042 20.6704 66.4042 18.9683 66.4042 17.798V12.5853H69.5957C69.6489 12.5853 69.9148 12.5853 69.9148 12.3193V9.87251C69.9148 9.71293 69.8084 9.55336 69.5957 9.55336Z" fill="black"/>
<path d="M78.7446 9.12793C74.5425 9.12793 71.2446 12.3726 71.2446 16.5215C71.2446 20.6705 74.5425 23.9152 78.7446 23.9152C82.9468 23.9152 86.2446 20.6705 86.2446 16.5215C86.2446 12.3726 82.9468 9.12793 78.7446 9.12793ZM78.7446 20.9364C76.4042 20.9364 74.4893 18.9684 74.4893 16.5747C74.4893 14.1811 76.4042 12.213 78.7446 12.213C81.0851 12.213 83.0531 14.1811 83.0531 16.5747C83.0531 18.9684 81.1382 20.9364 78.7446 20.9364Z" fill="black"/>
<path d="M95.1809 9.12793C93.798 9.12793 92.415 9.65984 91.5639 10.5641L91.4575 10.6705L91.4043 9.81942C91.4043 9.71304 91.2448 9.55346 91.0852 9.55346H88.4788C88.3192 9.55346 88.1597 9.71304 88.1597 9.81942V23.2237C88.1597 23.3832 88.3192 23.5428 88.4788 23.5428H91.0852C91.298 23.5428 91.4043 23.4364 91.4043 23.2237V17.1067C91.4043 14.8726 91.4043 12.0535 94.3831 12.0535C96.8299 12.0535 97.0426 13.6492 97.0426 15.6173V23.2769C97.0426 23.4364 97.2022 23.596 97.3618 23.596H99.9682C100.128 23.596 100.287 23.4896 100.287 23.2769V15.2981C100.234 10.9896 98.6916 9.12793 95.1809 9.12793Z" fill="black"/>
</g>
<defs>
<clipPath id="clip0_114_2174">
<rect width="100" height="23.9362" fill="white" transform="translate(0.5 0.0322266)"/>
</clipPath>
</defs>
</svg>
