<svg width="653" height="736" viewBox="0 0 653 736" fill="none" xmlns="http://www.w3.org/2000/svg">
<path opacity="0.1" d="M684.161 615.797L321.636 825.354V780.458L645.317 593.349V242.04L632.127 249.633V585.69L321.636 765.141V720.245L593.283 563.243V272.081L580.093 279.674V555.584L321.636 704.928V660.032L541.249 533.136V302.188L528.059 309.78V525.477L321.636 644.781V599.885L489.214 503.03V332.228L476.024 339.821V495.371L321.636 584.568V539.672L437.18 472.923V362.268L423.99 369.861V465.264L321.636 524.421V483.817L388.839 444.995V390.196L375.649 397.789V437.403L321.636 468.632V406.174L699 188.1L685.81 180.507L308.446 398.647V476.356L269.602 498.804V376.199L646.966 158.125L633.776 150.533L256.412 368.673V506.529L217.568 528.977V346.225L594.932 128.151L581.742 120.558L204.378 338.698V536.701L165.534 559.149V316.25L542.897 98.1763L529.707 90.5836L152.344 308.724V566.874L113.499 589.322V286.276L490.863 68.1358L477.673 60.5431L100.309 278.683V596.98L61.4651 619.428V256.169L438.829 38.0953L425.639 30.5026L48.2752 248.643V627.087L13.1899 647.356V223.62L386.794 7.65867L373.671 0L0 215.961V669.87L48.2752 641.942V697.798L100.309 667.691V727.838L152.344 697.732V757.879L204.378 727.772V787.919L256.412 757.813V817.96L308.446 787.853V848L697.351 623.192V211.736L684.161 219.329V615.533V615.797ZM308.446 712.587L269.602 735.035V690.139L308.446 667.691V712.587ZM308.446 652.44L269.602 674.888V629.992L308.446 607.544V652.44ZM217.568 599.951L256.412 577.504V622.399L217.568 644.847V599.951ZM204.378 652.44L165.534 674.888V629.992L204.378 607.544V652.44ZM256.412 637.651V682.546L217.568 704.994V660.098L256.412 637.651ZM308.446 592.293L269.602 614.741V569.845L308.446 547.397V592.293ZM308.446 491.542V532.146L269.602 554.594V513.989L308.446 491.542ZM256.412 521.648V562.252L217.568 584.7V544.096L256.412 521.648ZM204.378 551.689V592.293L165.534 614.741V574.136L204.378 551.689ZM152.344 581.795V622.399L113.499 644.847V604.243L152.344 581.795ZM61.4651 674.888V634.283L100.309 611.836V652.44L61.4651 674.888ZM113.499 704.994V660.098L152.344 637.651V682.546L113.499 704.994ZM165.534 735.101V690.205L204.378 667.757V712.653L165.534 735.101ZM217.568 765.141V720.245L256.412 697.798V742.693L217.568 765.141ZM269.602 795.248V750.352L308.446 727.904V772.8L269.602 795.248Z" fill="#858585"/>
</svg>
