<svg width="87" height="45" viewBox="0 0 87 45" fill="none" xmlns="http://www.w3.org/2000/svg">
<path d="M84.8836 15.0497C84.8836 14.2466 85.5354 13.5981 86.3352 13.5981V12.963C85.5321 12.963 84.8836 12.3111 84.8836 11.5113C84.8836 10.7116 85.5354 10.0597 86.3352 10.0597V9.59934C85.7875 9.70015 85.2229 9.75391 84.645 9.75391C79.9339 9.75391 76.1166 6.27941 76.1166 1.99172C76.1166 1.43727 76.1805 0.89291 76.3048 0.37207L10.6017 0.37207C10.7226 0.896271 10.7898 1.43727 10.7898 1.99172C10.7898 6.27941 6.97258 9.75391 2.2615 9.75391C1.68353 9.75391 1.11565 9.70015 0.571289 9.59934V10.0631C0.594811 10.0631 0.618333 10.0597 0.645215 10.0597C1.44832 10.0597 2.09685 10.7116 2.09685 11.5113C2.09685 12.3111 1.44496 12.963 0.645215 12.963C0.621693 12.963 0.594811 12.963 0.571289 12.9596V13.6014C0.594811 13.6014 0.618333 13.5981 0.645215 13.5981C1.44832 13.5981 2.09685 14.2499 2.09685 15.0497C2.09685 15.8494 1.44496 16.5013 0.645215 16.5013C0.621693 16.5013 0.594811 16.5013 0.571289 16.498V17.1398C0.594811 17.1398 0.618333 17.1364 0.645215 17.1364C1.44832 17.1364 2.09685 17.7883 2.09685 18.588C2.09685 19.3878 1.44496 20.0397 0.645215 20.0397C0.621693 20.0397 0.594811 20.0397 0.571289 20.0363V20.6781C0.594811 20.6781 0.618333 20.6748 0.645215 20.6748C1.44832 20.6748 2.09685 21.3266 2.09685 22.1264C2.09685 22.9261 1.44496 23.578 0.645215 23.578C0.621693 23.578 0.594811 23.578 0.571289 23.5747V24.2165C0.594811 24.2165 0.618333 24.2131 0.645215 24.2131C1.44832 24.2131 2.09685 24.865 2.09685 25.6647C2.09685 26.4645 1.44496 27.1164 0.645215 27.1164C0.621693 27.1164 0.594811 27.1164 0.571289 27.113V27.7548C0.594811 27.7548 0.618333 27.7515 0.645215 27.7515C1.44832 27.7515 2.09685 28.4034 2.09685 29.2031C2.09685 30.0028 1.44496 30.6547 0.645215 30.6547C0.621693 30.6547 0.594811 30.6547 0.571289 30.6514V31.2932C0.594811 31.2932 0.618333 31.2898 0.645215 31.2898C1.44832 31.2898 2.09685 31.9417 2.09685 32.7414C2.09685 33.5412 1.44496 34.1931 0.645215 34.1931C0.621693 34.1931 0.594811 34.1931 0.571289 34.1897L0.571289 34.8315C0.594811 34.8315 0.618333 34.8282 0.645215 34.8282C1.44832 34.8282 2.09685 35.4801 2.09685 36.2798C2.09685 37.0795 1.44496 37.7314 0.645215 37.7314C0.621693 37.7314 0.594811 37.7314 0.571289 37.7281V38.2019C1.11901 38.1011 1.68353 38.0473 2.2615 38.0473C6.42822 38.0473 9.89265 40.7657 10.642 44.3579H76.2712C77.0172 40.7657 80.485 38.0473 84.6517 38.0473C85.2297 38.0473 85.7975 38.1011 86.3419 38.2019V37.7314C85.5388 37.7314 84.8903 37.0795 84.8903 36.2798C84.8903 35.4801 85.5422 34.8282 86.3419 34.8282V34.1931C85.5388 34.1931 84.8903 33.5412 84.8903 32.7414C84.8903 31.9417 85.5422 31.2898 86.3419 31.2898V30.6547C85.5388 30.6547 84.8903 30.0028 84.8903 29.2031C84.8903 28.4034 85.5422 27.7515 86.3419 27.7515V27.1164C85.5388 27.1164 84.8903 26.4645 84.8903 25.6647C84.8903 24.865 85.5422 24.2131 86.3419 24.2131V23.578C85.5388 23.578 84.8903 22.9261 84.8903 22.1264C84.8903 21.3266 85.5422 20.6748 86.3419 20.6748V20.0397C85.5388 20.0397 84.8903 19.3878 84.8903 18.588C84.8903 17.7883 85.5422 17.1364 86.3419 17.1364V16.5013C85.5388 16.5013 84.8903 15.8494 84.8903 15.0497H84.8836Z" fill="#E5E5E5"/>
<path d="M71.782 37.5027H15.1247C12.9069 37.5027 11.0991 35.6983 11.0991 33.4771V11.2658C11.0991 9.04805 12.9036 7.24023 15.1247 7.24023L71.782 7.24023C73.9998 7.24023 75.8076 9.04469 75.8076 11.2658V33.4771C75.8076 35.6949 74.0032 37.5027 71.782 37.5027ZM15.1247 7.8854C13.2598 7.8854 11.7409 9.40424 11.7409 11.2692V33.4805C11.7409 35.3454 13.2598 36.8643 15.1247 36.8643H71.782C73.647 36.8643 75.1658 35.3454 75.1658 33.4805V11.2658C75.1658 9.40088 73.647 7.88204 71.782 7.88204L15.1247 7.88204V7.8854Z" fill="white"/>
<path d="M18.759 7.57959H18.1172V37.1835H18.759V7.57959Z" fill="white"/>
<path d="M57.3513 18.6826C57.5844 19.5525 57.7779 20.4329 58.0505 21.2922C58.3232 22.1515 58.1474 22.919 57.6631 23.642C56.8498 24.877 55.7039 25.8197 54.426 26.5859C48.9112 29.8859 42.9408 31.4856 36.5331 31.2956C35.3307 31.2364 34.1042 30.9293 32.9568 30.6011C31.8596 30.3018 31.2205 29.4984 30.9528 28.3411C30.5686 26.749 30.1448 25.1674 29.6709 23.5569C29.3559 22.5395 29.5895 21.6717 30.1818 20.8773C31.0742 19.6211 32.3097 18.6968 33.6272 17.92C39.0948 14.7598 44.9571 13.2314 51.2356 13.4137C52.5171 13.4517 53.812 13.698 55.023 14.2635C55.8936 14.6659 56.4797 15.2717 56.6944 16.2312C56.8668 17.0326 57.1288 17.8523 57.3513 18.6826ZM56.0993 16.8568C55.9334 17.0284 55.8543 17.0496 55.8253 17.0997C53.8401 19.4963 51.3555 21.1367 48.4537 22.1686C45.0773 23.3275 41.701 24.4865 38.081 24.736C35.621 24.8866 33.1795 24.9476 30.8394 23.9642C30.7893 23.9352 30.7102 23.9564 30.5916 23.9882C30.9942 25.4907 31.3756 26.9141 31.7676 28.3771C31.9265 28.9702 32.233 29.4813 32.7816 29.631C33.7603 29.962 34.7891 30.322 35.8439 30.4632C38.5207 30.8054 41.1465 30.4832 43.7484 29.9132C47.3994 29.1468 50.9339 27.9454 54.0772 25.9166C55.0889 25.2641 55.958 24.3956 56.7982 23.5772C57.4329 22.9409 57.598 22.1339 57.3148 21.2351C56.9073 20.0305 56.6473 18.7441 56.3189 17.5184C56.2264 17.3313 56.184 17.1731 56.0993 16.8568ZM43.5188 20.9905C45.9809 20.3732 48.4853 19.9141 51.0561 19.8609C51.354 19.8658 51.7494 19.7599 51.9549 19.5777C52.9927 18.7063 54.0701 17.8243 55.0366 16.8449C56.0716 15.8048 55.9841 15.3197 54.5359 14.8178C53.3779 14.4501 52.162 14.1826 50.9595 14.1233C46.8354 13.9147 42.8574 14.7263 39.0384 16.131C36.719 16.9644 34.4632 18.035 32.4927 19.5377C31.6892 20.1767 30.9359 20.8448 30.5046 21.7655C30.1205 22.5465 30.1735 22.7442 30.9545 23.1282C32.4662 23.8673 34.117 24.0183 35.765 24.0005C35.9733 23.9871 36.2395 23.8734 36.4266 23.7808C38.6901 22.581 41.0385 21.6975 43.5188 20.9905ZM49.6624 20.8276C45.6152 21.0645 41.7403 22.1028 38.1169 23.9212C42.1535 23.6448 45.9147 22.3403 49.6624 20.8276Z" fill="#858585"/>
<path d="M33.379 22.0547C33.5591 22.7268 34.261 23.1321 34.9331 22.952C35.6448 22.7613 36.0105 22.07 35.8198 21.3583C35.6397 20.6861 34.9485 20.3204 34.2763 20.5005C33.6041 20.6806 33.1989 21.3825 33.379 22.0547ZM35.1477 21.5384C35.2324 21.8547 35.0694 22.195 34.753 22.2798C34.4367 22.3645 34.1359 22.1909 34.0512 21.8746C33.9664 21.5583 34.1401 21.2575 34.4564 21.1727C34.7621 21.0484 35.0629 21.2221 35.1477 21.5384Z" fill="#858585"/>
<path d="M50.7155 17.3246C50.8956 17.9968 51.5975 18.402 52.2696 18.2219C52.9813 18.0312 53.347 17.3399 53.1563 16.6282C52.9762 15.9561 52.2849 15.5904 51.6128 15.7705C50.9117 16.0007 50.546 16.692 50.7155 17.3246ZM52.4948 16.8479C52.5795 17.1642 52.4164 17.5045 52.1001 17.5893C51.7838 17.6741 51.483 17.5004 51.3983 17.1841C51.3135 16.8678 51.4872 16.567 51.8035 16.4822C52.0697 16.3685 52.41 16.5316 52.4948 16.8479Z" fill="#858585"/>
<path d="M42.0973 18.5321C42.2774 19.2043 42.9793 19.6095 43.6514 19.4294C44.3631 19.2387 44.7288 18.5474 44.5381 17.8357C44.358 17.1636 43.6667 16.7979 42.9946 16.978C42.2829 17.1687 41.9172 17.8599 42.0973 18.5321ZM43.866 18.0158C43.9507 18.3321 43.7876 18.6725 43.4713 18.7572C43.155 18.842 42.8542 18.6683 42.7695 18.352C42.6847 18.0357 42.8584 17.7349 43.1747 17.6501C43.4409 17.5364 43.7812 17.6995 43.866 18.0158Z" fill="#858585"/>
<path d="M46.3336 17.7359C46.5138 18.4081 47.2156 18.8133 47.8878 18.6332C48.5995 18.4425 48.9652 17.7512 48.7745 17.0395C48.5944 16.3674 47.9031 16.0017 47.2309 16.1818C46.5192 16.3725 46.1535 17.0638 46.3336 17.7359ZM48.1023 17.2196C48.1871 17.536 48.024 17.8763 47.7077 17.961C47.3914 18.0458 47.0906 17.8721 47.0058 17.5558C46.9211 17.2395 47.0947 16.9387 47.411 16.854C47.6772 16.7403 48.0176 16.9033 48.1023 17.2196Z" fill="#858585"/>
<path d="M37.6506 19.8084C37.8307 20.4805 38.5325 20.8857 39.2047 20.7056C39.9164 20.5149 40.2821 19.8237 40.0914 19.112C39.9113 18.4398 39.22 18.0741 38.5478 18.2542C37.8863 18.4739 37.481 19.1757 37.6506 19.8084ZM39.4298 19.3316C39.5146 19.6479 39.3515 19.9883 39.0352 20.073C38.7189 20.1578 38.4181 19.9841 38.3333 19.6678C38.2486 19.3515 38.4222 19.0507 38.7385 18.9659C39.0443 18.8416 39.3451 19.0153 39.4298 19.3316Z" fill="#858585"/>
<path d="M68.0207 7.57959H67.3789V37.1835H68.0207V7.57959Z" fill="white"/>
</svg>
