<svg width="32" height="33" viewBox="0 0 32 33" fill="none" xmlns="http://www.w3.org/2000/svg">
<path d="M6.66667 2.89746C4.10782 2.89746 2 5.00529 2 7.56413V26.2308C2 28.7896 4.10782 30.8975 6.66667 30.8975H25.3333C27.8922 30.8975 30 28.7896 30 26.2308V7.56413C30 5.00529 27.8922 2.89746 25.3333 2.89746H6.66667ZM16 9.11968H19.1111C19.1111 10.683 21.3993 12.2308 22.2222 12.2308V15.3419C21.2811 15.3419 20.1502 14.9284 19.1111 14.2299V20.0086C19.1111 22.5815 17.0173 24.6752 14.4444 24.6752C11.8716 24.6752 9.77778 22.5815 9.77778 20.0086C9.77778 17.4357 11.8716 15.3419 14.4444 15.3419V18.453C13.5858 18.453 12.8889 19.1515 12.8889 20.0086C12.8889 20.8657 13.5858 21.5641 14.4444 21.5641C15.3031 21.5641 16 20.8657 16 20.0086V9.11968Z" fill="white"/>
</svg>
