<svg width="87" height="45" viewBox="0 0 87 45" fill="none" xmlns="http://www.w3.org/2000/svg">
<path d="M84.616 15.1649C84.616 14.3618 85.2679 13.7133 86.0676 13.7133V13.0782C85.2645 13.0782 84.616 12.4263 84.616 11.6266C84.616 10.8268 85.2679 10.1749 86.0676 10.1749V9.71458C85.5199 9.81538 84.9554 9.86915 84.3774 9.86915C79.6663 9.86915 75.8491 6.39464 75.8491 2.10695C75.8491 1.55251 75.9129 1.00814 76.0372 0.487305L10.3341 0.487305C10.4551 1.01151 10.5223 1.55251 10.5223 2.10695C10.5223 6.39464 6.705 9.86915 1.99392 9.86915C1.41596 9.86915 0.848073 9.81538 0.303711 9.71458V10.1783C0.327233 10.1783 0.350755 10.1749 0.377637 10.1749C1.18074 10.1749 1.82927 10.8268 1.82927 11.6266C1.82927 12.4263 1.17738 13.0782 0.377637 13.0782C0.354115 13.0782 0.327233 13.0782 0.303711 13.0748L0.303711 13.7166C0.327233 13.7166 0.350755 13.7133 0.377637 13.7133C1.18074 13.7133 1.82927 14.3652 1.82927 15.1649C1.82927 15.9647 1.17738 16.6165 0.377637 16.6165C0.354115 16.6165 0.327233 16.6166 0.303711 16.6132V17.255C0.327233 17.255 0.350755 17.2516 0.377637 17.2516C1.18074 17.2516 1.82927 17.9035 1.82927 18.7033C1.82927 19.503 1.17738 20.1549 0.377637 20.1549C0.354115 20.1549 0.327233 20.1549 0.303711 20.1515V20.7934C0.327233 20.7934 0.350755 20.79 0.377637 20.79C1.18074 20.79 1.82927 21.4419 1.82927 22.2416C1.82927 23.0414 1.17738 23.6933 0.377637 23.6933C0.354115 23.6933 0.327233 23.6933 0.303711 23.6899V24.3317C0.327233 24.3317 0.350755 24.3283 0.377637 24.3283C1.18074 24.3283 1.82927 24.9802 1.82927 25.78C1.82927 26.5797 1.17738 27.2316 0.377637 27.2316C0.354115 27.2316 0.327233 27.2316 0.303711 27.2282L0.303711 27.8701C0.327233 27.8701 0.350755 27.8667 0.377637 27.8667C1.18074 27.8667 1.82927 28.5186 1.82927 29.3183C1.82927 30.1181 1.17738 30.77 0.377637 30.77C0.354115 30.77 0.327233 30.77 0.303711 30.7666V31.4084C0.327233 31.4084 0.350755 31.4051 0.377637 31.4051C1.18074 31.4051 1.82927 32.0569 1.82927 32.8567C1.82927 33.6564 1.17738 34.3083 0.377637 34.3083C0.354115 34.3083 0.327233 34.3083 0.303711 34.305V34.9468C0.327233 34.9468 0.350755 34.9434 0.377637 34.9434C1.18074 34.9434 1.82927 35.5953 1.82927 36.395C1.82927 37.1948 1.17738 37.8467 0.377637 37.8467C0.354115 37.8467 0.327233 37.8467 0.303711 37.8433V38.3171C0.851433 38.2163 1.41596 38.1625 1.99392 38.1625C6.16064 38.1625 9.62507 40.881 10.3744 44.4731H76.0036C76.7496 40.881 80.2174 38.1625 84.3841 38.1625C84.9621 38.1625 85.53 38.2163 86.0743 38.3171V37.8467C85.2712 37.8467 84.6227 37.1948 84.6227 36.395C84.6227 35.5953 85.2746 34.9434 86.0743 34.9434V34.3083C85.2712 34.3083 84.6227 33.6564 84.6227 32.8567C84.6227 32.0569 85.2746 31.4051 86.0743 31.4051V30.77C85.2712 30.77 84.6227 30.1181 84.6227 29.3183C84.6227 28.5186 85.2746 27.8667 86.0743 27.8667V27.2316C85.2712 27.2316 84.6227 26.5797 84.6227 25.78C84.6227 24.9802 85.2746 24.3283 86.0743 24.3283V23.6933C85.2712 23.6933 84.6227 23.0414 84.6227 22.2416C84.6227 21.4419 85.2746 20.79 86.0743 20.79V20.1549C85.2712 20.1549 84.6227 19.503 84.6227 18.7033C84.6227 17.9035 85.2746 17.2516 86.0743 17.2516V16.6165C85.2712 16.6165 84.6227 15.9647 84.6227 15.1649H84.616Z" fill="#E5E5E5"/>
<path d="M71.514 37.618H14.8566C12.6389 37.618 10.8311 35.8135 10.8311 33.5924V11.3811C10.8311 9.16329 12.6355 7.35547 14.8566 7.35547L71.514 7.35547C73.7318 7.35547 75.5396 9.15993 75.5396 11.3811V33.5924C75.5396 35.8101 73.7351 37.618 71.514 37.618ZM14.8566 8.00064C12.9917 8.00064 11.4729 9.51948 11.4729 11.3844V33.5957C11.4729 35.4607 12.9917 36.9795 14.8566 36.9795H71.514C73.3789 36.9795 74.8978 35.4607 74.8978 33.5957V11.3811C74.8978 9.51612 73.3789 7.99728 71.514 7.99728L14.8566 7.99728V8.00064Z" fill="white"/>
<path d="M18.4914 7.69482H17.8496V37.2987H18.4914V7.69482Z" fill="white"/>
<path d="M67.7531 7.69482H67.1113V37.2987H67.7531V7.69482Z" fill="white"/>
<path d="M57.187 23.6808H56.3384L52.0273 16.1832L43.715 13.1493V11.7915C43.715 11.679 43.6703 11.571 43.5907 11.4915C43.5111 11.4119 43.4032 11.3672 43.2906 11.3672C43.1781 11.3672 43.0702 11.4119 42.9906 11.4915C42.911 11.571 42.8663 11.679 42.8663 11.7915V13.1493L34.554 16.1832L29.9798 24.1052H29.1821C29.0696 24.1052 28.9617 24.1499 28.8821 24.2294C28.8025 24.309 28.7578 24.4169 28.7578 24.5295C28.7578 24.642 28.8025 24.7499 28.8821 24.8295C28.9617 24.9091 29.0696 24.9538 29.1821 24.9538H30.0308L31.5541 33.5929H55.0272L56.6227 24.5295H57.187C57.2995 24.5295 57.4075 24.4848 57.487 24.4052C57.5666 24.3256 57.6113 24.2177 57.6113 24.1052C57.6113 23.9926 57.5666 23.8847 57.487 23.8051C57.4075 23.7255 57.2995 23.6808 57.187 23.6808ZM42.7602 32.7442H37.4563V29.4388C37.4577 27.994 38.005 26.603 38.9886 25.5447C39.9722 24.4863 41.3194 23.8388 42.7602 23.7318V32.7442ZM43.6089 23.7318C45.0497 23.8388 46.3969 24.4863 47.3805 25.5447C48.3641 26.603 48.9114 27.994 48.9128 29.4388V32.7442H43.6089V23.7318ZM43.1846 22.8831C41.4406 22.8843 39.7684 23.5775 38.5352 24.8107C37.3021 26.0439 36.6088 27.7161 36.6077 29.46V32.7655H33.3192V26.8632C33.3192 24.2186 34.3698 21.6824 36.2398 19.8123C38.1098 17.9423 40.6461 16.8918 43.2906 16.8918C45.9352 16.8918 48.4715 17.9423 50.3415 19.8123C52.2115 21.6824 53.2621 24.2186 53.2621 26.8632V32.7442H49.7615V29.4388C49.7603 27.6949 49.0671 26.0226 47.8339 24.7895C46.6007 23.5563 44.9285 22.863 43.1846 22.8619V22.8831ZM50.2537 18.5933L51.6412 17.2058L55.3794 23.6808H53.6312C53.0159 21.6965 51.8436 19.9306 50.2537 18.5933ZM50.9538 16.6966L49.579 18.0671C47.8635 16.8369 45.8244 16.1375 43.715 16.0559V14.0616L50.9538 16.6966ZM42.8663 16.0559C40.8424 16.1313 38.8813 16.7787 37.2102 17.9229L35.7039 16.6499L42.8663 14.0446V16.0559ZM34.9698 17.1591L36.5101 18.4321C34.7105 19.8799 33.4202 21.8645 32.827 24.0967H30.96L34.9698 17.1591ZM30.8794 24.9538H32.6318C32.516 25.5837 32.4578 26.2228 32.4578 26.8632V32.7442H32.2542L30.8794 24.9538ZM54.3016 32.7442H54.098V26.8632C54.0974 26.0784 54.0121 25.2959 53.8434 24.5295H55.7486L54.3016 32.7442Z" fill="#858585"/>
</svg>
