<svg width="87" height="45" viewBox="0 0 87 45" fill="none" xmlns="http://www.w3.org/2000/svg">
<path d="M85.2498 15.0497C85.2498 14.2466 85.9017 13.5981 86.7014 13.5981V12.963C85.8983 12.963 85.2498 12.3111 85.2498 11.5113C85.2498 10.7116 85.9017 10.0597 86.7014 10.0597V9.59934C86.1537 9.70015 85.5892 9.75391 85.0112 9.75391C80.3001 9.75391 76.4829 6.27941 76.4829 1.99172C76.4829 1.43727 76.5467 0.89291 76.671 0.37207L10.9679 0.37207C11.0888 0.896271 11.156 1.43727 11.156 1.99172C11.156 6.27941 7.33879 9.75391 2.62771 9.75391C2.04975 9.75391 1.48186 9.70015 0.9375 9.59934V10.0631C0.961022 10.0631 0.984544 10.0597 1.01143 10.0597C1.81453 10.0597 2.46306 10.7116 2.46306 11.5113C2.46306 12.3111 1.81117 12.963 1.01143 12.963C0.987904 12.963 0.961022 12.963 0.9375 12.9596V13.6014C0.961022 13.6014 0.984544 13.5981 1.01143 13.5981C1.81453 13.5981 2.46306 14.2499 2.46306 15.0497C2.46306 15.8494 1.81117 16.5013 1.01143 16.5013C0.987904 16.5013 0.961022 16.5013 0.9375 16.498V17.1398C0.961022 17.1398 0.984544 17.1364 1.01143 17.1364C1.81453 17.1364 2.46306 17.7883 2.46306 18.588C2.46306 19.3878 1.81117 20.0397 1.01143 20.0397C0.987904 20.0397 0.961022 20.0397 0.9375 20.0363V20.6781C0.961022 20.6781 0.984544 20.6748 1.01143 20.6748C1.81453 20.6748 2.46306 21.3266 2.46306 22.1264C2.46306 22.9261 1.81117 23.578 1.01143 23.578C0.987904 23.578 0.961022 23.578 0.9375 23.5747V24.2165C0.961022 24.2165 0.984544 24.2131 1.01143 24.2131C1.81453 24.2131 2.46306 24.865 2.46306 25.6647C2.46306 26.4645 1.81117 27.1164 1.01143 27.1164C0.987904 27.1164 0.961022 27.1164 0.9375 27.113V27.7548C0.961022 27.7548 0.984544 27.7515 1.01143 27.7515C1.81453 27.7515 2.46306 28.4034 2.46306 29.2031C2.46306 30.0028 1.81117 30.6547 1.01143 30.6547C0.987904 30.6547 0.961022 30.6547 0.9375 30.6514V31.2932C0.961022 31.2932 0.984544 31.2898 1.01143 31.2898C1.81453 31.2898 2.46306 31.9417 2.46306 32.7414C2.46306 33.5412 1.81117 34.1931 1.01143 34.1931C0.987904 34.1931 0.961022 34.1931 0.9375 34.1897L0.9375 34.8315C0.961022 34.8315 0.984544 34.8282 1.01143 34.8282C1.81453 34.8282 2.46306 35.4801 2.46306 36.2798C2.46306 37.0795 1.81117 37.7314 1.01143 37.7314C0.987904 37.7314 0.961022 37.7314 0.9375 37.7281V38.2019C1.48522 38.1011 2.04975 38.0473 2.62771 38.0473C6.79443 38.0473 10.2589 40.7657 11.0082 44.3579H76.6374C77.3834 40.7657 80.8512 38.0473 85.0179 38.0473C85.5959 38.0473 86.1638 38.1011 86.7081 38.2019V37.7314C85.905 37.7314 85.2565 37.0795 85.2565 36.2798C85.2565 35.4801 85.9084 34.8282 86.7081 34.8282V34.1931C85.905 34.1931 85.2565 33.5412 85.2565 32.7414C85.2565 31.9417 85.9084 31.2898 86.7081 31.2898V30.6547C85.905 30.6547 85.2565 30.0028 85.2565 29.2031C85.2565 28.4034 85.9084 27.7515 86.7081 27.7515V27.1164C85.905 27.1164 85.2565 26.4645 85.2565 25.6647C85.2565 24.865 85.9084 24.2131 86.7081 24.2131V23.578C85.905 23.578 85.2565 22.9261 85.2565 22.1264C85.2565 21.3266 85.9084 20.6748 86.7081 20.6748V20.0397C85.905 20.0397 85.2565 19.3878 85.2565 18.588C85.2565 17.7883 85.9084 17.1364 86.7081 17.1364V16.5013C85.905 16.5013 85.2565 15.8494 85.2565 15.0497H85.2498Z" fill="#E5E5E5"/>
<path d="M72.1483 37.5027H15.4909C13.2732 37.5027 11.4653 35.6983 11.4653 33.4771V11.2658C11.4653 9.04805 13.2698 7.24023 15.4909 7.24023L72.1483 7.24023C74.366 7.24023 76.1739 9.04469 76.1739 11.2658V33.4771C76.1739 35.6949 74.3694 37.5027 72.1483 37.5027ZM15.4909 7.8854C13.626 7.8854 12.1071 9.40424 12.1071 11.2692V33.4805C12.1071 35.3454 13.626 36.8643 15.4909 36.8643H72.1483C74.0132 36.8643 75.532 35.3454 75.532 33.4805V11.2658C75.532 9.40088 74.0132 7.88204 72.1483 7.88204L15.4909 7.88204V7.8854Z" fill="white"/>
<path d="M19.1252 7.57959H18.4834V37.1835H19.1252V7.57959Z" fill="white"/>
<path d="M68.3869 7.57959H67.7451V37.1835H68.3869V7.57959Z" fill="white"/>
<path d="M44.2937 12.8474C44.2268 12.6414 44.0348 12.502 43.8182 12.502C43.6016 12.502 43.4096 12.6414 43.3426 12.8474L41.349 18.9832H34.8976C34.6809 18.9832 34.489 19.1226 34.422 19.3286C34.3551 19.5347 34.4284 19.7603 34.6037 19.8877L39.823 23.6797L37.8294 29.8155C37.7625 30.0215 37.8358 30.2472 38.011 30.3745C38.1863 30.5018 38.4236 30.5018 38.5988 30.3745L43.8182 26.5824L49.0375 30.3745C49.2128 30.5018 49.4501 30.5018 49.6253 30.3745C49.8005 30.2472 49.8739 30.0215 49.8069 29.8155L47.8133 23.6797L53.0327 19.8877C53.2079 19.7603 53.2812 19.5347 53.2143 19.3286C53.1474 19.1226 52.9554 18.9832 52.7388 18.9832H46.2873L44.2937 12.8474Z" stroke="#858585" stroke-linejoin="round"/>
</svg>
