<svg width="87" height="45" viewBox="0 0 87 45" fill="none" xmlns="http://www.w3.org/2000/svg">
<path d="M84.616 15.0497C84.616 14.2466 85.2679 13.5981 86.0676 13.5981V12.963C85.2645 12.963 84.616 12.3111 84.616 11.5113C84.616 10.7116 85.2679 10.0597 86.0676 10.0597V9.59934C85.5199 9.70015 84.9554 9.75391 84.3774 9.75391C79.6663 9.75391 75.8491 6.27941 75.8491 1.99172C75.8491 1.43727 75.9129 0.89291 76.0372 0.37207L10.3341 0.37207C10.4551 0.896271 10.5223 1.43727 10.5223 1.99172C10.5223 6.27941 6.705 9.75391 1.99392 9.75391C1.41596 9.75391 0.848073 9.70015 0.303711 9.59934V10.0631C0.327233 10.0631 0.350755 10.0597 0.377637 10.0597C1.18074 10.0597 1.82927 10.7116 1.82927 11.5113C1.82927 12.3111 1.17738 12.963 0.377637 12.963C0.354115 12.963 0.327233 12.963 0.303711 12.9596L0.303711 13.6014C0.327233 13.6014 0.350755 13.5981 0.377637 13.5981C1.18074 13.5981 1.82927 14.2499 1.82927 15.0497C1.82927 15.8494 1.17738 16.5013 0.377637 16.5013C0.354115 16.5013 0.327233 16.5013 0.303711 16.498V17.1398C0.327233 17.1398 0.350755 17.1364 0.377637 17.1364C1.18074 17.1364 1.82927 17.7883 1.82927 18.588C1.82927 19.3878 1.17738 20.0397 0.377637 20.0397C0.354115 20.0397 0.327233 20.0397 0.303711 20.0363V20.6781C0.327233 20.6781 0.350755 20.6748 0.377637 20.6748C1.18074 20.6748 1.82927 21.3266 1.82927 22.1264C1.82927 22.9261 1.17738 23.578 0.377637 23.578C0.354115 23.578 0.327233 23.578 0.303711 23.5747V24.2165C0.327233 24.2165 0.350755 24.2131 0.377637 24.2131C1.18074 24.2131 1.82927 24.865 1.82927 25.6647C1.82927 26.4645 1.17738 27.1164 0.377637 27.1164C0.354115 27.1164 0.327233 27.1164 0.303711 27.113L0.303711 27.7548C0.327233 27.7548 0.350755 27.7515 0.377637 27.7515C1.18074 27.7515 1.82927 28.4034 1.82927 29.2031C1.82927 30.0028 1.17738 30.6547 0.377637 30.6547C0.354115 30.6547 0.327233 30.6547 0.303711 30.6514V31.2932C0.327233 31.2932 0.350755 31.2898 0.377637 31.2898C1.18074 31.2898 1.82927 31.9417 1.82927 32.7414C1.82927 33.5412 1.17738 34.1931 0.377637 34.1931C0.354115 34.1931 0.327233 34.1931 0.303711 34.1897V34.8315C0.327233 34.8315 0.350755 34.8282 0.377637 34.8282C1.18074 34.8282 1.82927 35.4801 1.82927 36.2798C1.82927 37.0795 1.17738 37.7314 0.377637 37.7314C0.354115 37.7314 0.327233 37.7314 0.303711 37.7281V38.2019C0.851433 38.1011 1.41596 38.0473 1.99392 38.0473C6.16064 38.0473 9.62507 40.7657 10.3744 44.3579H76.0036C76.7496 40.7657 80.2174 38.0473 84.3841 38.0473C84.9621 38.0473 85.53 38.1011 86.0743 38.2019V37.7314C85.2712 37.7314 84.6227 37.0795 84.6227 36.2798C84.6227 35.4801 85.2746 34.8282 86.0743 34.8282V34.1931C85.2712 34.1931 84.6227 33.5412 84.6227 32.7414C84.6227 31.9417 85.2746 31.2898 86.0743 31.2898V30.6547C85.2712 30.6547 84.6227 30.0028 84.6227 29.2031C84.6227 28.4034 85.2746 27.7515 86.0743 27.7515V27.1164C85.2712 27.1164 84.6227 26.4645 84.6227 25.6647C84.6227 24.865 85.2746 24.2131 86.0743 24.2131V23.578C85.2712 23.578 84.6227 22.9261 84.6227 22.1264C84.6227 21.3266 85.2746 20.6748 86.0743 20.6748V20.0397C85.2712 20.0397 84.6227 19.3878 84.6227 18.588C84.6227 17.7883 85.2746 17.1364 86.0743 17.1364V16.5013C85.2712 16.5013 84.6227 15.8494 84.6227 15.0497H84.616Z" fill="#E5E5E5"/>
<path d="M71.514 37.5027H14.8566C12.6389 37.5027 10.8311 35.6983 10.8311 33.4771V11.2658C10.8311 9.04805 12.6355 7.24023 14.8566 7.24023L71.514 7.24023C73.7318 7.24023 75.5396 9.04469 75.5396 11.2658V33.4771C75.5396 35.6949 73.7351 37.5027 71.514 37.5027ZM14.8566 7.8854C12.9917 7.8854 11.4729 9.40424 11.4729 11.2692V33.4805C11.4729 35.3454 12.9917 36.8643 14.8566 36.8643H71.514C73.3789 36.8643 74.8978 35.3454 74.8978 33.4805V11.2658C74.8978 9.40088 73.3789 7.88204 71.514 7.88204L14.8566 7.88204V7.8854Z" fill="white"/>
<path d="M18.4914 7.57959H17.8496V37.1835H18.4914V7.57959Z" fill="white"/>
<path d="M67.7531 7.57959H67.1113V37.1835H67.7531V7.57959Z" fill="white"/>
<path fill-rule="evenodd" clip-rule="evenodd" d="M36.9245 13.7944H50.2294L57.4665 29.6146V30.9353H50.3228L49.696 24.8098L47.394 30.9353H30.2773V29.034L36.9245 13.7944ZM37.5052 14.681L31.1639 29.2186V30.0486H42.6389L49.2701 14.6809L37.5052 14.681ZM49.9557 15.3287L56.5798 29.8086V30.0487H51.124L50.3851 22.8416L49.5297 22.7319L46.7799 30.0487H43.6041L49.9557 15.3287Z" fill="#858585"/>
</svg>
