<svg fill="#fdf731" height="44" viewBox="0 0 36 44" width="36" xmlns="http://www.w3.org/2000/svg"><path d="m35.2185 31.7164-18.3858 10.6161v-2.2744l16.4158-9.4789v-17.7972l-.6689.3846v17.0246l-15.7469 9.0909v-2.2744l13.7768-7.9537v-14.7502l-.6689.3847v13.9775l-13.1079 7.5657v-2.2744l11.1378-6.4285v-11.6998l-.6689.3847v10.9271l-10.4689 6.0439v-2.2744l8.4989-4.9067v-8.6527l-.669.3846v7.8801l-7.8299 4.5187v-2.2744l5.8599-3.3815v-5.6057l-.669.3846v4.8331l-5.1909 2.9969v-2.057l3.4082-1.9667v-2.7761l-.6689.3847v2.0068l-2.7393 1.582v-3.1641l19.1384-11.0475-.669-.38469-19.1384 11.05089v3.9368l-1.97 1.1372v-6.2112l19.1384-11.04754-.6689-.38464-19.1385 11.05088v6.9838l-1.97 1.1372v-9.2582l19.1384-11.04754-.6689-.38464-19.1384 11.05088v10.0308l-1.97007 1.1372v-12.3052l19.13847-11.04754-.669-.38464-19.13841 11.05088v13.0779l-1.97004 1.1372v-15.3523l19.13845-11.05088-.669-.38464-19.13839 11.05092v16.1248l-1.97003 1.1372v-18.4025l19.13842-11.04762-.6689-.38465-19.13846 11.05097v19.1718l-1.77939 1.0269v-21.4664l18.94775-10.940535-.6656-.387986-18.951092 10.940521v22.9949l2.448332-1.4148v2.8296l2.63897-1.5252v3.0471l2.63898-1.5252v3.047l2.63901-1.5252v3.047l2.6389-1.5251v3.047l2.639-1.5252v3.047l19.7238-11.3887v-20.8442l-.669.3846v20.0716zm-19.0548 4.9033-1.97 1.1372v-2.2744l1.97-1.1372zm0-3.047-1.97 1.1372v-2.2744l1.97-1.1372zm-4.609-2.659 1.97-1.1372v2.2744l-1.97 1.1372zm-.6689 2.659-1.97007 1.1372v-2.2744l1.97007-1.1372zm2.6389-.7492v2.2744l-1.97 1.1372v-2.2744zm2.639-2.2978-1.97 1.1372v-2.2744l1.97-1.1372zm0-5.1041v2.057l-1.97 1.1372v-2.057zm-2.639 1.5252v2.057l-1.97 1.1372v-2.057zm-2.6389 1.5219v2.057l-1.97007 1.1372v-2.057zm-2.63901 1.5252v2.057l-1.97004 1.1372v-2.057zm-4.60901 4.716v-2.057l1.97003-1.1372v2.057zm2.63897 1.5252v-2.2744l1.97004-1.1372v2.2744zm2.63898 1.5252v-2.2744l1.97007-1.1372v2.2744zm2.63897 1.5218v-2.2744l1.97-1.1372v2.2744zm2.639 1.5252v-2.2744l1.97-1.1372v2.2744z" fill="#fff"/></svg>