<svg width="118" height="54" viewBox="0 0 118 54" fill="none" xmlns="http://www.w3.org/2000/svg">
<path d="M39.6705 36.3001L21.975 46.5176V44.3286L37.7745 35.2056V18.0767L37.1307 18.4469V34.8322L21.975 43.5818V41.3928L35.2346 33.7377V19.5414L34.5908 19.9116V33.3643L21.975 40.6459V38.4569L32.6947 32.2698V21.0093L32.0509 21.3795V31.8964L21.975 37.7133V35.5243L30.1548 30.8019V22.474L29.511 22.8442V30.4285L21.975 34.7775V32.5885L27.6149 29.334V23.9387L26.9711 24.3089V28.9605L21.975 31.8449V29.8651L25.2553 27.9723V25.3004L24.6115 25.6706V27.6021L21.975 29.1247V26.0794L40.3948 15.4467L39.751 15.0765L21.3312 25.7124V29.5013L19.4352 30.5958V24.6179L37.855 13.9852L37.2111 13.615L18.7913 24.251V30.9725L16.8953 32.067V23.1565L35.3151 12.5237L34.6712 12.1535L16.2514 22.7895V32.4436L14.3554 33.5381V21.695L32.7752 11.0622L32.1314 10.692L13.7116 21.328V33.9148L11.8155 35.0093V20.2335L30.2353 9.59752L29.5915 9.22732L11.1717 19.8633V35.3827L9.27561 36.4772V18.7656L27.6954 8.13282L27.0516 7.76262L8.63179 18.3986V36.8506L6.91921 37.8389V17.1786L25.1555 6.64881L24.5149 6.27539L6.27539 16.8051V38.9366L8.63179 37.5749V40.2983L11.1717 38.8304V41.763L13.7116 40.2951V43.2277L16.2514 41.7598V44.6924L18.7913 43.2245V46.1571L21.3312 44.6892V47.6218L40.3144 36.6607V16.5991L39.6705 16.9693V36.2873V36.3001ZM21.3312 41.0194L19.4352 42.1139V39.9249L21.3312 38.8304V41.0194ZM21.3312 38.0867L19.4352 39.1812V36.9922L21.3312 35.8977V38.0867ZM16.8953 35.5275L18.7913 34.433V36.622L16.8953 37.7165V35.5275ZM16.2514 38.0867L14.3554 39.1812V36.9922L16.2514 35.8977V38.0867ZM18.7913 37.3657V39.5547L16.8953 40.6492V38.4602L18.7913 37.3657ZM21.3312 35.1541L19.4352 36.2486V34.0596L21.3312 32.9651V35.1541ZM21.3312 30.2417V32.2215L19.4352 33.316V31.3362L21.3312 30.2417ZM18.7913 31.7097V33.6894L16.8953 34.7839V32.8042L18.7913 31.7097ZM16.2514 33.1744V35.1541L14.3554 36.2486V34.2689L16.2514 33.1744ZM13.7116 34.6423V36.622L11.8155 37.7165V35.7368L13.7116 34.6423ZM9.27561 39.1812V37.2015L11.1717 36.107V38.0867L9.27561 39.1812ZM11.8155 40.6492V38.4602L13.7116 37.3657V39.5547L11.8155 40.6492ZM14.3554 42.1171V39.9281L16.2514 38.8336V41.0226L14.3554 42.1171ZM16.8953 43.5818V41.3928L18.7913 40.2983V42.4873L16.8953 43.5818ZM19.4352 45.0497V42.8607L21.3312 41.7662V43.9552L19.4352 45.0497Z" fill="white"/>
<path d="M50.9121 18.2124H54.7904C57.3382 18.2124 58.3046 19.1161 58.3046 21.5259V23.6846C58.3046 26.0944 57.3382 26.998 54.7904 26.998H50.9121C48.3768 26.998 47.3979 26.0944 47.3979 23.6846V21.5259C47.3979 19.1161 48.3768 18.2124 50.9121 18.2124ZM49.3182 21.6639V23.5465C49.3182 24.8644 49.6947 25.2535 50.9874 25.2535H54.715C56.0078 25.2535 56.3843 24.8644 56.3843 23.5465V21.6639C56.3843 20.3461 56.0078 19.957 54.715 19.957H50.9874C49.6947 19.957 49.3182 20.3461 49.3182 21.6639ZM63.2792 18.2124H68.8016C68.9898 18.2124 69.0902 18.3003 69.0902 18.4885V19.6809C69.0902 19.8691 68.9898 19.957 68.8016 19.957H63.3545C62.0617 19.957 61.6852 20.3461 61.6852 21.6639V21.9149H68.7388C68.9271 21.9149 69.0149 22.0028 69.0149 22.1911V23.1826C69.0149 23.3708 68.9271 23.4587 68.7388 23.4587H61.6852V26.7219C61.6852 26.9102 61.5974 26.998 61.4091 26.998H60.0536C59.8653 26.998 59.7649 26.9102 59.7649 26.7219V21.5259C59.7649 19.1161 60.7439 18.2124 63.2792 18.2124ZM73.7464 18.2124H79.2688C79.4571 18.2124 79.5575 18.3003 79.5575 18.4885V19.6809C79.5575 19.8691 79.4571 19.957 79.2688 19.957H73.8217C72.529 19.957 72.1525 20.3461 72.1525 21.6639V21.9149H79.2061C79.3943 21.9149 79.4822 22.0028 79.4822 22.1911V23.1826C79.4822 23.3708 79.3943 23.4587 79.2061 23.4587H72.1525V26.7219C72.1525 26.9102 72.0646 26.998 71.8763 26.998H70.5208C70.3326 26.998 70.2322 26.9102 70.2322 26.7219V21.5259C70.2322 19.1161 71.2111 18.2124 73.7464 18.2124ZM81.1764 18.2124H87.0502C89.7737 18.2124 90.8908 19.3043 90.8908 21.7518V23.4587C90.8908 25.9061 89.7737 26.998 87.0502 26.998H81.1764C80.9253 26.998 80.7998 26.8725 80.7998 26.6215V18.5889C80.7998 18.3379 80.9253 18.2124 81.1764 18.2124ZM82.7201 20.1327V25.0903C82.7201 25.2033 82.7703 25.2535 82.8833 25.2535H87C88.481 25.2535 88.9705 24.7765 88.9705 23.2955V21.9149C88.9705 20.4339 88.481 19.957 87 19.957H82.8833C82.7703 19.957 82.7201 20.0072 82.7201 20.1327ZM92.5689 20.1076H97.9909C100.25 20.1076 100.978 20.8356 100.978 22.6554V25.994C100.978 26.8098 100.777 26.998 100.049 26.998H94.0751C92.594 26.998 92.1422 26.4584 92.1422 25.2158V24.6134C92.1422 23.5591 92.594 22.9692 94.0751 22.9692H99.1833V22.7307C99.1833 21.9275 98.9071 21.6137 97.8152 21.6137H92.5689C92.4183 21.6137 92.343 21.551 92.343 21.3878V20.3335C92.343 20.1829 92.4183 20.1076 92.5689 20.1076ZM98.8193 25.6174C99.0829 25.6174 99.1833 25.5045 99.1833 25.1907V24.0862H94.5896C94.0751 24.0862 93.8868 24.2996 93.8868 24.7012V24.9648C93.8868 25.4166 94.0751 25.6174 94.5896 25.6174H98.8193ZM109.659 20.1076H111.065C111.241 20.1076 111.316 20.2582 111.228 20.4214L106.409 28.9183C106.082 29.4957 105.505 29.7718 104.426 29.7718H103.547C103.397 29.7718 103.321 29.6965 103.321 29.5459V28.5167C103.321 28.3661 103.397 28.2908 103.547 28.2908H104.288C104.627 28.2908 104.815 28.2029 104.928 28.0021L105.606 26.8098C105.191 26.7721 105.003 26.6215 104.802 26.2701L101.414 20.4214C101.326 20.2582 101.401 20.1076 101.577 20.1076H103.02C103.171 20.1076 103.258 20.1578 103.321 20.2833L106.108 25.1154C106.246 25.3413 106.296 25.4041 106.409 25.4041L109.358 20.2833C109.421 20.1578 109.509 20.1076 109.659 20.1076Z" fill="white"/>
<path d="M48.5329 32.2389V35.8994H47.8343V32.2389H47.1357V31.7076H47.8343V31.6712C47.8343 31.3874 47.8658 31.1509 47.9289 30.9617C47.992 30.7725 48.0963 30.6208 48.2418 30.5068C48.3874 30.3928 48.579 30.3128 48.8168 30.2667C49.0569 30.2182 49.3517 30.1939 49.701 30.1939H50.5124V30.7761H49.6973C49.4766 30.7761 49.2922 30.781 49.1443 30.7907C48.9963 30.8004 48.8762 30.8331 48.784 30.8889C48.6943 30.9447 48.63 31.0332 48.5912 31.1545C48.5524 31.2758 48.5329 31.448 48.5329 31.6712V31.7076H50.5124V32.2389H48.5329ZM53.4234 35.9795C52.9576 35.9795 52.5622 35.9479 52.2372 35.8849C51.9121 35.8194 51.6477 35.7078 51.4439 35.5501C51.2402 35.3924 51.0922 35.1814 51 34.917C50.9078 34.6525 50.8617 34.3202 50.8617 33.92C50.8617 33.4615 50.9078 33.083 51 32.7847C51.0922 32.4839 51.2402 32.2449 51.4439 32.0678C51.6477 31.8908 51.9121 31.767 52.2372 31.6967C52.5622 31.6263 52.9576 31.5912 53.4234 31.5912C53.7557 31.5912 54.0432 31.6154 54.2858 31.6639C54.5308 31.7125 54.7394 31.7828 54.9116 31.875C55.0863 31.9672 55.227 32.0788 55.3337 32.2098C55.4429 32.3407 55.5278 32.479 55.5884 32.6246C55.6515 32.7677 55.6939 32.9363 55.7158 33.1303C55.74 33.3244 55.7522 33.5294 55.7522 33.7453L55.6939 33.9782H51.5604C51.5604 34.2984 51.5919 34.5616 51.655 34.7678C51.718 34.9715 51.8223 35.1207 51.9679 35.2153C52.1134 35.3099 52.3051 35.3706 52.5428 35.3973C52.7805 35.4215 53.0741 35.4337 53.4234 35.4337C53.7436 35.4337 54.008 35.4252 54.2166 35.4082C54.4277 35.3888 54.5951 35.3536 54.7188 35.3027C54.8425 35.2517 54.9286 35.1814 54.9771 35.0916C55.0281 34.9994 55.0535 34.8806 55.0535 34.735H55.7522C55.7522 34.9606 55.7121 35.1535 55.6321 35.3136C55.5545 35.4713 55.4247 35.5998 55.2427 35.6993C55.0608 35.7963 54.8207 35.8667 54.5223 35.9103C54.2263 35.9564 53.86 35.9795 53.4234 35.9795ZM53.4234 32.1734C53.1905 32.1734 52.9819 32.1782 52.7975 32.1879C52.6156 32.1976 52.4555 32.2195 52.3172 32.2534C52.1814 32.285 52.0649 32.3323 51.9679 32.3953C51.8709 32.456 51.792 32.5287 51.7314 32.6137C51.6732 32.6961 51.6295 32.8138 51.6004 32.9666C51.5737 33.117 51.5604 33.2989 51.5604 33.5124H55.0535C55.0535 33.2286 55.0232 33.0066 54.9626 32.8465C54.9019 32.684 54.8061 32.5506 54.6751 32.4463C54.5441 32.342 54.3755 32.2704 54.1693 32.2316C53.9631 32.1928 53.7145 32.1734 53.4234 32.1734ZM59.1289 33.9891C58.799 33.9891 58.5091 33.9842 58.2592 33.9745C58.0094 33.9648 57.7935 33.9454 57.6115 33.9163C57.432 33.8848 57.2816 33.8411 57.1603 33.7853C57.0415 33.7295 56.9469 33.6555 56.8765 33.5634C56.8062 33.4688 56.7564 33.3535 56.7273 33.2177C56.6982 33.0794 56.6837 32.9302 56.6837 32.7701C56.6837 32.5518 56.7298 32.3686 56.8219 32.2207C56.9141 32.0703 57.0621 31.949 57.2659 31.8568C57.4696 31.7622 57.7341 31.6943 58.0591 31.653C58.3842 31.6118 58.7796 31.5912 59.2453 31.5912C59.7062 31.5912 60.0859 31.6154 60.3843 31.6639C60.6851 31.7125 60.9228 31.7877 61.0974 31.8895C61.2745 31.989 61.3982 32.1151 61.4686 32.268C61.5389 32.4208 61.5741 32.6027 61.5741 32.8138H60.8755C60.8755 32.6828 60.85 32.5761 60.7991 32.4936C60.7505 32.4111 60.6644 32.3468 60.5407 32.3007C60.417 32.2522 60.2496 32.2195 60.0386 32.2025C59.83 32.1831 59.5655 32.1734 59.2453 32.1734C58.896 32.1734 58.6025 32.1782 58.3648 32.1879C58.127 32.1976 57.9354 32.2219 57.7898 32.2607C57.6443 32.2995 57.54 32.3589 57.4769 32.439C57.4138 32.519 57.3823 32.6294 57.3823 32.7701C57.3823 32.8526 57.3872 32.9339 57.3969 33.0139C57.409 33.0915 57.4345 33.1558 57.4733 33.2068C57.5121 33.2577 57.5691 33.2965 57.6443 33.3232C57.7195 33.3499 57.8214 33.3705 57.9499 33.3851C58.0809 33.3972 58.2423 33.4045 58.4339 33.4069C58.6255 33.4069 58.8572 33.4069 59.1289 33.4069C59.4588 33.4069 59.7475 33.4142 59.9949 33.4287C60.2448 33.4433 60.4607 33.4688 60.6426 33.5051C60.8245 33.5415 60.9749 33.5973 61.0938 33.6725C61.2127 33.7477 61.3073 33.8302 61.3776 33.92C61.4504 34.0073 61.5013 34.1116 61.5304 34.2329C61.5596 34.3517 61.5741 34.49 61.5741 34.6477C61.5741 34.8054 61.5596 34.9473 61.5304 35.0734C61.5013 35.1971 61.4504 35.3075 61.3776 35.4045C61.3048 35.4992 61.2054 35.5816 61.0792 35.652C60.9555 35.7199 60.7991 35.7757 60.6099 35.8194C60.4206 35.8606 60.1938 35.8909 59.9294 35.9103C59.6674 35.9322 59.3618 35.9431 59.0125 35.9431C58.5758 35.9431 58.2083 35.9212 57.9099 35.8776C57.614 35.8339 57.375 35.7648 57.1931 35.6702C57.0112 35.5731 56.8802 35.4482 56.8001 35.2954C56.7225 35.1426 56.6837 34.9558 56.6837 34.735H57.3823C57.3823 34.8806 57.4066 34.9994 57.4551 35.0916C57.506 35.1814 57.5934 35.2517 57.7171 35.3027C57.8408 35.3536 58.007 35.3888 58.2156 35.4082C58.4266 35.4252 58.6922 35.4337 59.0125 35.4337C59.3036 35.4337 59.551 35.4276 59.7548 35.4155C59.9609 35.4009 60.1332 35.3791 60.2715 35.35C60.4097 35.3209 60.5189 35.2857 60.5989 35.2444C60.679 35.2032 60.7396 35.1535 60.7809 35.0953C60.8221 35.037 60.8476 34.9728 60.8573 34.9024C60.8694 34.8296 60.8755 34.7496 60.8755 34.6622C60.8755 34.5822 60.8694 34.5118 60.8573 34.4512C60.8476 34.3881 60.8233 34.3263 60.7845 34.2656C60.7457 34.2026 60.6887 34.1553 60.6135 34.1237C60.5383 34.0922 60.4352 34.0667 60.3042 34.0473C60.1756 34.0255 60.0155 34.0109 59.8239 34.0036C59.6323 33.9939 59.4006 33.9891 59.1289 33.9891ZM66.581 34.0364C66.581 34.393 66.5519 34.6914 66.4937 34.9315C66.4354 35.1692 66.3372 35.3597 66.1989 35.5028C66.0631 35.6459 65.8836 35.7478 65.6604 35.8084C65.4372 35.8691 65.1619 35.8994 64.8344 35.8994C64.5166 35.8994 64.2498 35.8752 64.0339 35.8266C63.818 35.7781 63.6433 35.6956 63.5099 35.5792C63.3765 35.4628 63.2807 35.3075 63.2225 35.1135C63.1642 34.9194 63.1351 34.6768 63.1351 34.3857V32.2825H62.2727V31.7076H63.1351V30.5614H63.8338V31.7076H66.4646V32.2825H63.8338V34.3857C63.8338 34.6186 63.8507 34.7981 63.8847 34.9242C63.9211 35.0504 63.9781 35.1426 64.0557 35.2008C64.1333 35.259 64.2352 35.293 64.3614 35.3027C64.4899 35.3124 64.6464 35.3172 64.8308 35.3172C64.9763 35.3172 65.1061 35.3148 65.2201 35.3099C65.3365 35.3051 65.4372 35.2905 65.5221 35.2663C65.6095 35.2396 65.6834 35.2008 65.7441 35.1498C65.8047 35.0965 65.8532 35.0225 65.8896 34.9279C65.9284 34.8333 65.9563 34.7144 65.9733 34.5713C65.9903 34.4257 65.9988 34.2474 65.9988 34.0364H66.581ZM67.7454 31.7076H68.444V35.8994H67.7454V31.7076ZM68.444 31.009H67.7454V30.3103H68.444V31.009ZM71.5879 35.8994L69.3755 31.7076H70.1906L72.0536 35.4337L73.9166 31.7076H74.7317L72.5194 35.8994H71.5879ZM79.3711 35.3245C79.3638 35.3536 79.3092 35.4264 79.2073 35.5428C79.1346 35.6301 79.0375 35.7078 78.9162 35.7757C78.795 35.8412 78.6324 35.8921 78.4287 35.9285C78.2273 35.9673 77.9617 35.9867 77.6318 35.9867C77.1927 35.9867 76.8179 35.9637 76.5074 35.9176C76.1969 35.8739 75.9434 35.806 75.7469 35.7138C75.5504 35.6192 75.4061 35.4992 75.3139 35.3536C75.2242 35.2081 75.1793 35.0346 75.1793 34.8333C75.1793 34.6222 75.2035 34.4439 75.2521 34.2984C75.303 34.1504 75.3758 34.0267 75.4704 33.9272C75.5674 33.8278 75.6839 33.7501 75.8197 33.6944C75.9555 33.6386 76.1096 33.5961 76.2818 33.567C76.4565 33.5379 76.6469 33.5197 76.8531 33.5124C77.0593 33.5051 77.2788 33.5015 77.5117 33.5015C77.844 33.5015 78.1218 33.5161 78.345 33.5452C78.5681 33.5718 78.7501 33.607 78.8908 33.6507C79.0339 33.6919 79.1418 33.7368 79.2146 33.7853C79.2874 33.8338 79.3396 33.8787 79.3711 33.92C79.3711 33.6483 79.359 33.4166 79.3347 33.225C79.3129 33.0333 79.2753 32.8732 79.2219 32.7446C79.171 32.6161 79.1042 32.5142 79.0218 32.439C78.9393 32.3614 78.8374 32.3031 78.7161 32.2643C78.5973 32.2255 78.4578 32.2013 78.2977 32.1916C78.1376 32.1794 77.9544 32.1734 77.7482 32.1734C77.428 32.1734 77.1624 32.1819 76.9513 32.1988C76.7403 32.2134 76.5729 32.2437 76.4492 32.2898C76.3255 32.3359 76.2381 32.4002 76.1872 32.4827C76.1363 32.5627 76.1108 32.6682 76.1108 32.7992H75.4122C75.4122 32.5785 75.451 32.3917 75.5286 32.2389C75.6087 32.086 75.7396 31.9623 75.9216 31.8677C76.1059 31.7707 76.3473 31.7003 76.6457 31.6567C76.9441 31.613 77.3116 31.5912 77.7482 31.5912C78.1752 31.5912 78.5366 31.6263 78.8326 31.6967C79.1285 31.767 79.3674 31.8908 79.5494 32.0678C79.7337 32.2449 79.866 32.4839 79.946 32.7847C80.0285 33.083 80.0697 33.4615 80.0697 33.92V35.8994H79.3711V35.3245ZM77.7482 35.4337C78.0563 35.4337 78.3134 35.4191 78.5196 35.39C78.7282 35.3609 78.8956 35.3172 79.0218 35.259C79.1479 35.2008 79.2377 35.128 79.291 35.0407C79.3444 34.9533 79.3711 34.8515 79.3711 34.735C79.3711 34.6186 79.3396 34.5203 79.2765 34.4403C79.2158 34.3578 79.1127 34.2911 78.9672 34.2402C78.8241 34.1892 78.6336 34.1528 78.3959 34.131C78.1582 34.1067 77.8647 34.0946 77.5153 34.0946C77.166 34.0946 76.8834 34.1007 76.6675 34.1128C76.454 34.1249 76.2891 34.1528 76.1727 34.1965C76.0562 34.2402 75.9774 34.3044 75.9361 34.3893C75.8973 34.4742 75.8779 34.5895 75.8779 34.735C75.8779 34.8806 75.8985 34.9994 75.9398 35.0916C75.9834 35.1814 76.0708 35.2517 76.2018 35.3027C76.3328 35.3536 76.5208 35.3888 76.7658 35.4082C77.0132 35.4252 77.3407 35.4337 77.7482 35.4337ZM81.2377 30.3103H81.9364V35.8994H81.2377V30.3103Z" fill="white"/>
</svg>
