<svg width="101" height="50" viewBox="0 0 101 50" fill="none" xmlns="http://www.w3.org/2000/svg">
<g clip-path="url(#clip0_185_3461)">
<path fill-rule="evenodd" clip-rule="evenodd" d="M98.5809 10.8535C98.0723 10.8535 97.5845 11.0556 97.2248 11.4152C96.8652 11.7749 96.6631 12.2627 96.6631 12.7714C96.6631 13.28 96.8652 13.7678 97.2248 14.1275C97.5845 14.4872 98.0723 14.6892 98.5809 14.6892C98.833 14.689 99.0825 14.6391 99.3151 14.5423C99.5478 14.4454 99.7591 14.3036 99.9368 14.125C100.115 13.9463 100.255 13.7344 100.351 13.5012C100.447 13.2681 100.495 13.0183 100.494 12.7663C100.494 12.259 100.292 11.7724 99.9337 11.4137C99.5749 11.055 99.0883 10.8535 98.5809 10.8535ZM98.5809 14.4584C98.359 14.4585 98.1391 14.4148 97.9341 14.3297C97.729 14.2447 97.5428 14.12 97.3861 13.9628C97.2293 13.8055 97.1052 13.6189 97.0208 13.4136C96.9364 13.2083 96.8934 12.9883 96.8942 12.7663C96.8944 12.5451 96.9383 12.3261 97.0232 12.1219C97.1081 11.9176 97.2324 11.7321 97.3891 11.576C97.5457 11.4198 97.7316 11.2961 97.9361 11.2118C98.1406 11.1276 98.3598 11.0844 98.5809 11.0849C99.0269 11.0849 99.4545 11.2621 99.7699 11.5774C100.085 11.8927 100.262 12.3204 100.262 12.7663C100.263 12.9879 100.221 13.2076 100.137 13.4127C100.053 13.6178 99.9292 13.8043 99.773 13.9615C99.6168 14.1187 99.4311 14.2435 99.2265 14.3288C99.022 14.414 98.8026 14.4581 98.5809 14.4584Z" fill="black"/>
<path fill-rule="evenodd" clip-rule="evenodd" d="M99.5666 12.2647C99.5666 12.0841 99.4864 11.8933 99.3256 11.803C99.1647 11.7078 98.984 11.6977 98.8023 11.6977H97.8692V13.8413H98.13V12.8521H98.6121L99.224 13.8413H99.5361L98.8879 12.8521C99.27 12.8419 99.5666 12.6864 99.5666 12.2647ZM98.5319 12.6463H98.13V11.8885H98.7425C99.0086 11.8885 99.2999 11.9286 99.2999 12.2599C99.3004 12.6966 98.8323 12.6463 98.5319 12.6463ZM34.3689 44.3994L21.8709 38.2966C21.5962 38.1544 21.4545 37.791 21.4599 37.5531L21.493 34.184C21.4978 33.9467 21.5448 33.703 21.8564 33.4796C23.1925 32.6277 27.3302 30.3376 31.6047 24.099C37.2977 15.7899 31.6047 8.80899 22.7073 10.7095C14.8049 12.3973 6.75991 16.676 3.27051 19.0025C0.160561 21.0756 0.592394 23.5806 0.506348 25.8269C0.678974 26.7766 1.02476 26.6905 1.80238 25.7403C7.58991 20.3846 16.4013 16.3244 18.0426 15.6333C19.6839 14.9423 23.5715 12.61 28.1501 13.6463C32.548 14.6425 31.4791 20.6219 30.1366 23.1487C28.668 25.9129 24.4784 29.9298 22.5779 30.9233C21.8559 31.3007 21.5849 30.9233 21.5849 30.3183L21.8874 17.3174C21.8874 16.4537 21.4984 16.0646 20.6347 16.3671L19.2526 17.0582C18.3024 17.6199 18.3456 17.8358 18.2591 18.5268L18.0496 33.5149C18.0426 33.8382 17.8919 34.0979 17.7139 34.1744L13.2053 36.7103C12.169 37.2287 12.4277 38.0064 13.2053 38.2656L16.8337 39.9929C17.6979 40.3382 17.9571 40.5974 17.9571 41.461L17.8272 48.7177C21.0671 48.07 21.2824 46.5147 21.369 45.4779V43.2749C21.4551 42.7565 21.7576 42.5839 22.1894 42.6705L32.7281 47.767C33.6784 48.1993 34.1968 48.0256 34.8878 46.8172C35.5784 45.6089 35.6649 45.0044 34.3689 44.3994ZM52.7865 26.0909C51.3221 26.9364 50.6444 28.5189 51.2216 29.5177C51.7977 30.5172 53.54 30.685 55.0055 29.8384C56.4709 28.9924 57.1048 27.4532 56.5276 26.4543C55.9515 25.4554 54.2519 25.2443 52.7865 26.0909Z" fill="black"/>
<path fill-rule="evenodd" clip-rule="evenodd" d="M47.3828 27.1656C46.9846 27.6509 46.2166 29.1313 45.7848 30.0383C45.353 30.9447 44.446 32.9964 43.539 32.9964C42.5802 32.9964 42.4589 30.6214 42.4589 29.7572C42.4589 28.893 41.9405 28.7636 41.6813 28.8069C41.4221 28.8502 40.6878 29.1089 40.4719 30.0164C40.2559 30.9233 39.0898 34.8542 37.7937 34.8542C36.9734 34.8542 36.3684 32.4786 36.3256 31.7442C36.2823 31.0104 35.9365 30.4054 35.2022 30.4054C34.6838 30.4054 34.036 30.6646 33.7768 30.9671C33.5176 31.2696 33.4749 31.7442 32.0923 31.4423C30.8395 31.399 29.6301 32.0473 28.1619 34.5089C27.278 35.9909 26.5597 38.753 27.9027 39.8646C29.1555 40.9009 31.3579 39.0437 32.0062 38.2661C32.654 37.489 33.2157 36.9273 33.4749 36.496C33.7335 36.0636 33.9933 36.1069 34.1226 36.5388C34.252 36.9711 34.9863 38.6552 35.9371 38.6124C36.8873 38.5691 38.0968 37.8348 39.5221 35.3293C39.7813 34.8109 40.1699 34.8542 40.2565 35.286C40.3431 35.7184 40.9042 37.1437 41.8545 37.1437C42.7614 37.1437 43.7705 35.7029 44.2734 34.8547C44.6186 34.2716 45.137 34.5527 45.137 35.1139C45.137 35.6751 44.8778 48.9352 44.8778 48.9352C44.8778 49.5397 45.1151 49.7123 45.547 49.7123H47.4261C47.7713 49.7123 48.0738 49.4104 48.0738 48.9352L48.4624 27.4467C48.4629 26.9278 47.8798 26.5612 47.3828 27.1656ZM32.6978 35.6313C32.3087 36.2795 31.2724 38.0069 30.3655 37.7049C29.8903 37.4457 30.5237 35.7178 30.8406 35.1134C31.3157 34.2064 32.7085 32.7618 33.3455 33.1263C33.9505 33.4716 33.0863 34.9835 32.6978 35.6313ZM98.509 22.3834C98.3369 22.5346 98.0558 22.7938 97.4295 22.5127C96.3493 22.0809 96.2633 20.0511 95.7021 18.1933C95.1971 16.5248 93.9817 16.6295 93.5424 17.3943L92.225 19.5107C91.9872 19.9426 91.4693 20.9361 90.9504 20.9361C90.3459 20.9361 90.6163 20.0719 90.6489 19.2082C90.6698 18.6252 90.3026 17.8914 89.6981 17.8914C89.0071 17.8914 88.2733 18.949 87.7116 20.159C87.3193 21.0051 86.3076 24.2406 85.033 24.2406C84.2126 24.2406 84.126 21.865 84.0832 21.1306C84.0405 20.3963 83.7808 19.4894 83.047 19.4894C82.5499 19.4894 82.2266 19.748 81.9668 20.0505C81.7082 20.353 81.6654 20.6117 80.7579 20.4824C79.5052 20.4391 77.4321 21.6058 75.9634 24.0674C75.0794 25.5495 74.0153 28.6573 75.3589 29.7689C76.6117 30.8052 78.8569 28.3863 79.5052 27.6092C80.1524 26.8316 80.7141 26.2699 80.9738 25.8386C81.2325 25.4062 81.4917 25.4495 81.6211 25.8819C81.7504 26.3137 82.4853 27.9983 83.4355 27.955C84.3863 27.9117 85.1628 27.6958 86.5887 25.1903C86.8474 24.6724 87.3225 24.6078 87.4091 25.0396C87.4957 25.4714 87.5823 26.6162 88.4892 26.6162C90.0434 26.6162 91.8055 22.8329 92.2469 21.951C92.6355 21.1734 93.2613 21.3893 93.4778 21.9724C93.7867 22.8072 94.0603 25.4928 95.7449 25.4928C97.4295 25.4928 98.5737 23.7003 98.919 23.1386C99.3086 22.5779 99.106 21.8612 98.509 22.3834ZM80.1957 24.9749C79.8071 25.6227 78.9429 27.048 78.036 26.7455C77.5609 26.4863 78.1509 25.2341 78.4683 24.6291C78.9435 23.7222 80.3357 22.2567 80.9738 22.6207C81.5778 22.9665 80.5842 24.3266 80.1957 24.9749ZM71.8514 22.711C71.8514 22.711 68.1802 20.0329 67.1434 18.824C66.447 18.0116 66.9275 17.3986 67.3593 17.0534C69.9503 15.3255 74.0105 12.6474 75.6091 8.50114C77.1488 4.50455 74.7449 1.02903 73.017 0.467331C70.6494 -0.301738 65.6309 1.24495 63.1255 5.9096C61.5034 8.93083 60.7509 9.92651 60.5345 18.1329C60.4928 19.6871 60.4479 21.4588 60.4479 23.4026C60.4479 25.3464 60.232 30.6155 60.0155 31.6085C59.1951 33.9408 61.6573 32.5587 62.7797 31.6523C63.9031 30.7448 63.816 29.3846 63.816 28.8016C63.816 28.0667 63.8598 15.1096 64.2483 12.2155C64.4904 10.4155 64.7673 7.07577 66.6667 4.18174C68.5677 1.28771 70.511 2.45441 71.0299 2.92899C71.5478 3.40412 72.2827 4.61357 71.8931 7.07577C71.2897 10.8965 66.8826 15.0663 65.7592 16.3618C64.6369 17.6573 64.8961 18.7807 65.5444 19.6876C66.0045 20.3327 67.1424 21.5881 68.3085 22.7543C69.4747 23.9205 69.3448 24.9573 69.1727 25.7349C68.5672 28.0667 62.2613 34.3732 62.2613 34.3732C60.9219 35.7985 62.304 38.1309 62.7791 38.908C63.2553 39.6856 63.8592 39.4269 64.2478 38.7786C65.803 35.8851 72.4975 28.8876 72.4975 28.8876C74.4434 26.4254 73.622 24.0498 71.8514 22.711Z" fill="black"/>
</g>
<defs>
<clipPath id="clip0_185_3461">
<rect width="100" height="49.5199" fill="white" transform="translate(0.5 0.240234)"/>
</clipPath>
</defs>
</svg>
