<svg width="101" height="48" viewBox="0 0 101 48" fill="none" xmlns="http://www.w3.org/2000/svg">
<g clip-path="url(#clip0_185_3670)">
<path d="M99.4062 38.406C100.077 37.7677 100.501 36.8716 100.501 35.873C100.501 34.8743 100.043 34.0467 99.4168 33.4137L71.1813 5.17924L62.6594 13.7011L84.889 35.9307H53.3944C51.8547 35.8847 50.6347 35.3683 49.6029 34.3675L35.4707 20.2353C34.0048 18.8495 31.9978 17.9727 29.8219 17.9727C29.8144 17.9727 29.8069 17.9738 29.8005 17.9738L12.5536 17.9727V12.0759H30.4164C33.9556 12.0791 37.1131 13.5268 39.428 15.8514L49.9686 26.392L58.4905 17.8701L47.7446 7.1242C43.2516 2.7018 37.1858 0.0244141 30.3843 0.0244141C30.3768 0.0244141 30.3693 0.0244141 30.3619 0.0244141H0.5V30.0253H25.7748V30.0274C27.4182 30.0392 28.9023 30.7149 29.9748 31.8013L43.8151 45.6416C45.2233 47.0241 47.1255 47.8956 49.234 47.9747H87.467C89.0762 47.9533 90.5304 47.2946 91.591 46.2372L99.4126 38.4167L99.4072 38.4071L99.4062 38.406Z" fill="black"/>
<path d="M77.7606 0.0244141C75.8157 0.0244141 74.2695 1.62935 74.2695 3.53474V3.55399C74.2695 5.46045 75.7953 7.04507 77.7606 7.04507C79.7259 7.04507 81.2506 5.44014 81.2506 3.53474V3.51443C81.2506 1.60796 79.728 0.0244141 77.7606 0.0244141ZM80.8497 3.53474C80.8497 5.24019 79.5056 6.66335 77.7617 6.66335C76.0177 6.66335 74.6737 5.25943 74.6737 3.55292V3.53367C74.6737 1.8293 76.0167 0.405065 77.7617 0.405065C79.5067 0.405065 80.8497 1.80898 80.8497 3.51336V3.53367V3.53474Z" fill="black"/>
<path d="M76.4644 1.72656H78.1592C78.9355 1.72656 79.3332 2.08476 79.3332 2.68674C79.3332 3.36785 78.8617 3.54107 78.7462 3.5817V3.59132C78.9601 3.62126 79.2733 3.78058 79.2733 4.34193C79.2733 4.75466 79.3332 5.13211 79.4669 5.27645H78.8007C78.7067 5.12248 78.7067 4.92895 78.7067 4.75466C78.7067 4.10349 78.5719 3.8148 77.9999 3.8148H77.0857V5.27645H76.4634V1.72656H76.4644ZM77.0857 3.34219H78.1047C78.4971 3.34219 78.712 3.14759 78.712 2.77549C78.712 2.3232 78.418 2.23338 78.095 2.23338H77.0857V3.34219Z" fill="black"/>
</g>
<defs>
<clipPath id="clip0_185_3670">
<rect width="100" height="47.9503" fill="white" transform="translate(0.5 0.0244141)"/>
</clipPath>
</defs>
</svg>
