<svg fill="none" height="250" viewBox="0 0 440 250" width="440" xmlns="http://www.w3.org/2000/svg" xmlns:xlink="http://www.w3.org/1999/xlink">
    <filter id="a" color-interpolation-filters="sRGB" filterUnits="userSpaceOnUse" height="153.418" width="128" x="156" y="-2">
        <feFlood flood-opacity="0" result="BackgroundImageFix"/>
        <feColorMatrix in="SourceAlpha" result="hardAlpha" type="matrix" values="0 0 0 0 0 0 0 0 0 0 0 0 0 0 0 0 0 0 127 0"/>
        <feOffset dy="2"/>
        <feGaussianBlur stdDeviation="2"/>
        <feComposite in2="hardAlpha" operator="out"/>
        <feColorMatrix type="matrix" values="0 0 0 0 0 0 0 0 0 0 0 0 0 0 0 0 0 0 0.6 0"/>
        <feBlend in2="BackgroundImageFix" mode="normal" result="effect1_dropShadow_79_3182"/>
        <feBlend in="SourceGraphic" in2="effect1_dropShadow_79_3182" mode="normal" result="shape"/>
    </filter>
    <filter id="b" color-interpolation-filters="sRGB" filterUnits="userSpaceOnUse" height="56" width="416" x="12" y="159.418">
        <feFlood flood-opacity="0" result="BackgroundImageFix"/>
        <feColorMatrix in="SourceAlpha" result="hardAlpha" type="matrix" values="0 0 0 0 0 0 0 0 0 0 0 0 0 0 0 0 0 0 127 0"/>
        <feOffset dy="2"/>
        <feGaussianBlur stdDeviation="2"/>
        <feComposite in2="hardAlpha" operator="out"/>
        <feColorMatrix type="matrix" values="0 0 0 0 0 0 0 0 0 0 0 0 0 0 0 0 0 0 0.6 0"/>
        <feBlend in2="BackgroundImageFix" mode="normal" result="effect1_dropShadow_79_3182"/>
        <feBlend in="SourceGraphic" in2="effect1_dropShadow_79_3182" mode="normal" result="shape"/>
    </filter>
    <filter id="c" color-interpolation-filters="sRGB" filterUnits="userSpaceOnUse" height="42" width="127" x="156.5" y="207.418">
        <feFlood flood-opacity="0" result="BackgroundImageFix"/>
        <feColorMatrix in="SourceAlpha" result="hardAlpha" type="matrix" values="0 0 0 0 0 0 0 0 0 0 0 0 0 0 0 0 0 0 127 0"/>
        <feOffset dy="2"/>
        <feGaussianBlur stdDeviation="2"/>
        <feComposite in2="hardAlpha" operator="out"/>
        <feColorMatrix type="matrix" values="0 0 0 0 0 0 0 0 0 0 0 0 0 0 0 0 0 0 0.6 0"/>
        <feBlend in2="BackgroundImageFix" mode="normal" result="effect1_dropShadow_79_3182"/>
        <feBlend in="SourceGraphic" in2="effect1_dropShadow_79_3182" mode="normal" result="shape"/>
    </filter>
    <clipPath id="d">
    <path d="m0 0h440v209.418h-440z"/>
    </clipPath>
    <g clip-path="url(#d)">
        <g filter="url(#a)">
            <path d="m277.453 105.599-62.236 35.935v-7.699l55.567-32.086v-60.2432l-2.264 1.302v57.6282l-53.303 30.773v-7.699l46.634-26.9235v-49.9293l-2.264 1.302v47.3139l-44.37 25.6099v-7.699l37.701-21.7603v-39.6037l-2.264 1.302v36.9884l-35.437 20.4586v-7.699l28.768-16.609v-29.2896l-2.264 1.302v26.6742l-26.504 15.2954v-7.6984l19.835-11.4464v-18.9754l-2.264 1.3021v16.36l-17.571 10.1443v-6.9629l11.536-6.6572v-9.3971l-2.264 1.302v6.7931l-9.272 5.3552v-10.7104l64.783-37.396-2.264-1.302-64.784 37.4073v13.3258l-6.668 3.8494v-21.0247l64.783-37.3959-2.264-1.302-64.784 37.4073v23.6399l-6.668 3.8495v-31.3389l64.783-37.3959-2.264-1.302-64.784 37.4073v33.9541l-6.668 3.8494v-41.653l64.783-37.3959-2.264-1.3021-64.784 37.4073v44.2684l-6.668 3.8498v-51.9676l64.783-37.4073-2.264-1.302-64.784 37.4073v54.5826l-6.668 3.849v-62.2923l64.783-37.39601-2.264-1.30201-64.783 37.40732v64.897l-6.024 3.475v-72.663l64.138-37.03367-2.253-1.31333-64.149 37.0337v77.8373l8.288-4.789v9.578l8.932-5.162v10.314l8.933-5.163v10.314l8.933-5.163v10.315l8.933-5.163v10.314l8.933-5.163v10.315l66.765-38.551v-70.5579l-2.264 1.302v67.9419zm-64.501 16.597-6.668 3.85v-7.699l6.668-3.849zm0-10.314-6.668 3.85v-7.699l6.668-3.85zm-15.601-9.001 6.668-3.849v7.699l-6.668 3.849zm-2.265 9.001-6.668 3.85v-7.699l6.668-3.85zm8.933-2.536v7.699l-6.668 3.849v-7.698zm8.933-7.778-6.668 3.85v-7.6993l6.668-3.8495zm0-17.277v6.9629l-6.668 3.8494v-6.9629zm-8.933 5.1627v6.963l-6.668 3.8493v-6.9628zm-8.933 5.1515v6.9628l-6.668 3.85v-6.9634zm-8.933 5.1627v6.9631l-6.668 3.849v-6.963zm-15.601 15.9641v-6.963l6.668-3.85v6.963zm8.933 5.162v-7.698l6.668-3.85v7.699zm8.933 5.163v-7.699l6.668-3.849v7.699zm8.933 5.152v-7.699l6.668-3.85v7.699zm8.933 5.162v-7.698l6.668-3.85v7.699z" fill="#fff"/>
        </g>
        <g filter="url(#b)">
        <path d="m29.52 170.418h12.36c8.12 0 11.2 2.88 11.2 10.56v6.88c0 7.68-3.08 10.56-11.2 10.56h-12.36c-8.08 0-11.2-2.88-11.2-10.56v-6.88c0-7.68 3.12-10.56 11.2-10.56zm-5.08 11v6c0 4.2 1.2 5.44 5.32 5.44h11.88c4.12 0 5.32-1.24 5.32-5.44v-6c0-4.2-1.2-5.44-5.32-5.44h-11.88c-4.12 0-5.32 1.24-5.32 5.44zm44.4941-11h17.6c.6 0 .92.28.92.88v3.8c0 .6-.32.88-.92.88h-17.36c-4.12 0-5.32 1.24-5.32 5.44v.8h22.48c.6 0 .88.28.88.88v3.16c0 .6-.28.88-.88.88h-22.48v10.4c0 .6-.28.88-.88.88h-4.32c-.6 0-.92-.28-.92-.88v-16.56c0-7.68 3.12-10.56 11.2-10.56zm33.3589 0h17.6c.6 0 .92.28.92.88v3.8c0 .6-.32.88-.92.88h-17.36c-4.1196 0-5.3196 1.24-5.3196 5.44v.8h22.4796c.6 0 .88.28.88.88v3.16c0 .6-.28.88-.88.88h-22.4796v10.4c0 .6-.28.88-.88.88h-4.32c-.6 0-.92-.28-.92-.88v-16.56c0-7.68 3.12-10.56 11.1996-10.56zm23.68 0h18.72c8.68 0 12.24 3.48 12.24 11.28v5.44c0 7.8-3.56 11.28-12.24 11.28h-18.72c-.8 0-1.2-.4-1.2-1.2v-25.6c0-.8.4-1.2 1.2-1.2zm4.92 6.12v15.8c0 .36.16.52.52.52h13.12c4.72 0 6.28-1.52 6.28-6.24v-4.4c0-4.72-1.56-6.24-6.28-6.24h-13.12c-.36 0-.52.16-.52.56zm31.388-.08h17.28c7.2 0 9.52 2.32 9.52 8.12v10.64c0 2.6-.64 3.2-2.96 3.2h-19.04c-4.72 0-6.16-1.72-6.16-5.68v-1.92c0-3.36 1.44-5.24 6.16-5.24h16.28v-.76c0-2.56-.88-3.56-4.36-3.56h-16.72c-.48 0-.72-.2-.72-.72v-3.36c0-.48.24-.72.72-.72zm19.92 17.56c.84 0 1.16-.36 1.16-1.36v-3.52h-14.64c-1.64 0-2.24.68-2.24 1.96v.84c0 1.44.6 2.08 2.24 2.08zm34.548-17.56h4.48c.56 0 .8.48.52 1l-15.36 27.08c-1.04 1.84-2.88 2.72-6.32 2.72h-2.8c-.48 0-.72-.24-.72-.72v-3.28c0-.48.24-.72.72-.72h2.36c1.08 0 1.68-.28 2.04-.92l2.16-3.8c-1.32-.12-1.92-.6-2.56-1.72l-10.8-18.64c-.28-.52-.04-1 .52-1h4.6c.48 0 .76.16.96.56l8.88 15.4c.44.72.6.92.96.92l9.4-16.32c.2-.4.48-.56.96-.56zm20.143 0h3.84v-.84c0-5.64 1.68-7.96 8.08-7.96h4.84c.52 0 .72.24.72.72v3.28c0 .48-.2.72-.72.72h-3.88c-2.6 0-3.36 1.04-3.36 3.24v.84h7c.52 0 .72.24.72.72v3.28c0 .48-.2.72-.72.72h-7v16.36c0 .6-.28.88-.88.88h-3.92c-.6 0-.88-.28-.88-.88v-16.36h-3.84c-.48 0-.72-.24-.72-.72v-3.28c0-.48.24-.72.72-.72zm29.37 0h11.72c5.48 0 6.92 1.72 6.92 6.56v3.8c0 1.72-.72 2.28-2.28 2.28h-20.2v.96c0 2.52.92 3.56 4.4 3.56h16.68c.48 0 .72.24.72.72v3.36c0 .48-.24.72-.72.72h-17.24c-7.2 0-9.52-2.28-9.52-8.08v-5.76c0-5.8 2.32-8.12 9.52-8.12zm-3.84 8v1.08h16.2c.48 0 .68-.16.68-.68v-1.68c0-1.64-.6-2.28-2.44-2.28h-10.04c-3.48 0-4.4 1-4.4 3.56zm32.562-8h19.52c.48 0 .72.24.72.72v3.2c0 .48-.24.72-.72.72h-18.04c-1.64 0-2.2.64-2.2 1.8v.6c0 1.08.56 1.72 2.2 1.72h13.48c4.48 0 6.24 1.92 6.24 5.36v2.24c0 3.52-1.56 5.6-6.28 5.6h-20.48c-.48 0-.72-.24-.72-.72v-3.2c0-.48.24-.72.72-.72h18.96c1.64 0 2.24-.56 2.24-1.92v-1.08c0-1.04-.6-1.68-2.24-1.68h-13.44c-4.48 0-6.24-1.88-6.24-5.4v-1.76c0-3.32 1.56-5.48 6.28-5.48zm24.408 0h3.8v-5.28c0-.6.32-.88.88-.88h3.96c.56 0 .88.28.88.88v5.28h7c.52 0 .72.24.72.72v3.28c0 .48-.2.72-.72.72h-7v9.28c0 2.2.72 3.24 3.36 3.24h3.88c.52 0 .72.24.72.72v3.28c0 .48-.2.72-.72.72h-4.84c-6.4 0-8.12-2.28-8.12-7.96v-9.28h-3.8c-.48 0-.72-.24-.72-.72v-3.28c0-.48.24-.72.72-.72zm21.65 0h3.92c.6 0 .88.32.88.92v20.16c0 .6-.28.88-.88.88h-3.92c-.6 0-.88-.28-.88-.88v-20.16c0-.6.28-.92.88-.92zm0-8.12h3.92c.6 0 .88.28.88.88v3.8c0 .6-.28.92-.88.92h-3.92c-.6 0-.92-.32-.92-.92v-3.8c0-.6.32-.88.92-.88zm8.541 8.12h4.6c.48 0 .76.16.96.56l9.4 16.52c.12.2.24.24.44.24h.16c.2 0 .32-.04.44-.24l9.44-16.52c.2-.36.44-.56.96-.56h4.44c.56 0 .8.48.52 1l-10.96 19.16c-.76 1.32-1.56 1.8-3.36 1.8h-3.28c-1.76 0-2.56-.48-3.32-1.8l-10.96-19.16c-.28-.52-.04-1 .52-1zm34.925 0h17.28c7.2 0 9.52 2.32 9.52 8.12v10.64c0 2.6-.64 3.2-2.96 3.2h-19.04c-4.72 0-6.16-1.72-6.16-5.68v-1.92c0-3.36 1.44-5.24 6.16-5.24h16.28v-.76c0-2.56-.88-3.56-4.36-3.56h-16.72c-.48 0-.72-.2-.72-.72v-3.36c0-.48.24-.72.72-.72zm19.92 17.56c.84 0 1.16-.36 1.16-1.36v-3.52h-14.64c-1.64 0-2.24.68-2.24 1.96v.84c0 1.44.6 2.08 2.24 2.08zm12.082-25.6h3.92c.6 0 .88.28.88.88v28.24c0 .6-.28.88-.88.88h-3.92c-.6 0-.88-.28-.88-.88v-28.24c0-.6.28-.88.88-.88z" fill="#fff"/>
        </g>
    </g>
    <g filter="url(#c)">
    <path d="m161.676 215.818h3.164c1.344 0 1.932.616 1.932 1.876v17.444c0 .196-.084.28-.28.28h-1.26c-.196 0-.28-.084-.28-.28v-16.744c0-.588-.28-.868-.868-.868h-2.408c-.196 0-.308-.112-.308-.308v-1.092c0-.224.112-.308.308-.308zm16.545 0h11.816c.196 0 .28.084.28.308v1.092c0 .196-.084.308-.28.308h-11.816c-4.228 0-5.74 1.512-5.74 5.74v1.456h14.028c3.36 0 4.564 1.484 4.564 4.452v1.792c0 2.968-1.26 4.452-4.62 4.452h-8.232c-5.488 0-7.588-2.016-7.588-7.392v-4.816c0-5.376 2.1-7.392 7.588-7.392zm8.008 10.36h-13.748v1.848c0 4.228 1.512 5.74 5.74 5.74h7.98c2.24 0 3.024-.924 3.024-2.996v-1.596c0-2.072-.784-2.996-2.996-2.996zm18.721-5.488h1.204c.196 0 .28.112.28.308v15.26c0 3.808-1.26 5.348-5.74 5.348h-1.456c-.168 0-.252-.084-.252-.252v-1.064c0-.168.084-.252.252-.252h1.316c3.276 0 4.116-1.12 4.116-4.06v-14.98c0-.196.084-.308.28-.308zm0-5.292h1.176c.224 0 .308.084.308.28v2.492c0 .196-.084.28-.308.28h-1.176c-.224 0-.308-.084-.308-.28v-2.492c0-.196.084-.28.308-.28zm5.64 5.292h1.176c.224 0 .308.112.308.308v8.652c0 3.024 1.064 4.144 4.732 4.144h7.336c3.696 0 4.816-1.12 4.816-4.144v-8.652c0-.196.084-.308.28-.308h1.204c.196 0 .308.112.308.308v8.988c0 3.892-1.568 5.432-6.468 5.432h-7.56c-4.872 0-6.44-1.54-6.44-5.432v-8.988c0-.196.084-.308.308-.308zm30.359 0h7.784c4.9 0 6.468 1.568 6.468 5.432v9.016c0 .196-.112.28-.308.28h-1.204c-.196 0-.28-.084-.28-.28v-8.68c0-2.996-1.064-4.116-4.732-4.116h-7.588c-3.668 0-4.788 1.12-4.788 4.116v8.68c0 .196-.084.28-.308.28h-1.176c-.224 0-.308-.084-.308-.28v-9.016c0-3.864 1.568-5.432 6.44-5.432zm23.913 0h7.952c3.724 0 4.676 1.148 4.676 4.396v2.1c0 1.148-.476 1.54-1.54 1.54h-15.736v1.204c0 2.8 1.12 3.92 4.788 3.92h11.788c.168 0 .252.084.252.252v1.064c0 .168-.084.252-.252.252h-11.928c-4.872 0-6.44-1.54-6.44-5.432v-3.864c0-3.892 1.568-5.432 6.44-5.432zm-4.648 5.404v1.372h14.756c.532 0 .784-.196.784-.756v-1.568c0-2.184-.7-2.968-3.22-2.968h-7.532c-3.668 0-4.788 1.092-4.788 3.92z" fill="#fff"/>
    </g>
</svg>