<svg width="21" height="26" viewBox="0 0 21 26" fill="none" xmlns="http://www.w3.org/2000/svg">
<path d="M20.5408 18.5507L10.0374 24.6154V23.3161L19.4154 17.9011V7.73403L19.0332 7.95376V17.6794L10.0374 22.8728V21.5735L17.9078 17.0298V8.60342L17.5256 8.82315V16.8081L10.0374 21.1302V19.8309L16.4002 16.1585V9.47471L16.0181 9.69445V15.9368L10.0374 19.3896V18.0903L14.8926 15.2872V10.3441L14.5105 10.5638V15.0655L10.0374 17.647V16.3477L13.3851 14.4159V11.2135L13.0029 11.4332V14.1942L10.0374 15.9063V14.7312L11.9845 13.6076V12.0217L11.6023 12.2415V13.3879L10.0374 14.2917V12.4841L20.9707 6.17295L20.5886 5.95322L9.65529 12.2663V14.5153L8.52986 15.1649V11.6167L19.4631 5.30548L19.081 5.08574L8.14772 11.3988V15.3885L7.02229 16.0381V10.7492L17.9556 4.438L17.5734 4.21826L6.64014 10.5314V16.2617L5.51471 16.9113V9.8817L16.448 3.57052L16.0658 3.35079L5.13257 9.66388V17.1349L4.00714 17.7845V9.01423L14.9404 2.70113L14.5583 2.4814L3.62499 8.79449V18.0062L2.49956 18.6558V8.14293L13.4328 1.83175L13.0507 1.61201L2.11741 7.9251V18.8775L1.1009 19.4641V7.20093L11.9253 0.950894L11.545 0.729248L0.71875 6.97929V20.1156L2.11741 19.3074V20.9239L3.62499 20.0526V21.7933L5.13257 20.922V22.6627L6.64014 21.7914V23.532L8.14772 22.6607V24.4014L9.65529 23.5301V25.2708L20.9229 18.7647V6.857L20.5408 7.07673V18.5431V18.5507ZM9.65529 21.3519L8.52986 22.0015V20.7022L9.65529 20.0526V21.3519ZM9.65529 19.6112L8.52986 20.2609V18.9615L9.65529 18.3119V19.6112ZM7.02229 18.0922L8.14772 17.4425V18.7418L7.02229 19.3915V18.0922ZM6.64014 19.6112L5.51471 20.2609V18.9615L6.64014 18.3119V19.6112ZM8.14772 19.1832V20.4825L7.02229 21.1322V19.8328L8.14772 19.1832ZM9.65529 17.8705L8.52986 18.5202V17.2209L9.65529 16.5712V17.8705ZM9.65529 14.9547V16.1298L8.52986 16.7795V15.6044L9.65529 14.9547ZM8.14772 15.826V17.0011L7.02229 17.6508V16.4757L8.14772 15.826ZM6.64014 16.6954V17.8705L5.51471 18.5202V17.3451L6.64014 16.6954ZM5.13257 17.5667V18.7418L4.00714 19.3915V18.2164L5.13257 17.5667ZM2.49956 20.2609V19.0857L3.62499 18.4361V19.6112L2.49956 20.2609ZM4.00714 21.1322V19.8328L5.13257 19.1832V20.4825L4.00714 21.1322ZM5.51471 22.0035V20.7041L6.64014 20.0545V21.3538L5.51471 22.0035ZM7.02229 22.8728V21.5735L8.14772 20.9239V22.2232L7.02229 22.8728ZM8.52986 23.7441V22.4448L9.65529 21.7952V23.0945L8.52986 23.7441Z" fill="black"/>
</svg>
