<svg width="28" height="29" viewBox="0 0 28 29" fill="none" xmlns="http://www.w3.org/2000/svg">
<path d="M27.9956 14.0295C27.9956 14.17 27.99 14.3105 27.9956 14.451C28.0631 16.8789 27.3493 19.1101 26.1129 21.1558C23.8368 24.9212 20.5041 27.2648 16.1429 27.8717C10.579 28.6473 6.04922 26.6915 2.64908 22.2123C1.17662 20.279 0.333609 18.0591 0.0863261 15.6537C-0.38014 11.0228 1.04174 7.04938 4.40254 3.81783C6.74049 1.5698 9.56177 0.282807 12.7877 0.0467641C17.9469 -0.329781 22.1395 1.5698 25.3036 5.66684C26.7648 7.5608 27.6303 9.73015 27.9282 12.1074C28.0069 12.7425 27.9394 13.3888 27.9394 14.0351C27.9563 14.0295 27.9788 14.0295 27.9956 14.0295ZM11.1804 7.40906C10.6464 7.4484 9.79781 7.48774 8.94918 7.57766C7.69029 7.7013 6.44825 7.92049 5.23993 8.30265C4.53742 8.52746 4.17212 9.24683 4.38568 9.93809C4.59925 10.6237 5.31299 11.0115 6.0155 10.8036C7.70715 10.3034 9.43813 10.0955 11.1916 10.0393C12.8889 9.98306 14.5749 10.0898 16.2497 10.3708C18.3628 10.7249 20.4085 11.3094 22.28 12.3941C22.9656 12.7931 23.7525 12.6076 24.1346 11.9557C24.5168 11.3094 24.2976 10.5113 23.5895 10.1292C22.9319 9.77511 22.2631 9.42667 21.5775 9.14566C18.3516 7.82495 14.9627 7.3922 11.1804 7.40906ZM11.2759 12.2255C10.7645 12.2648 9.84277 12.2929 8.93794 12.4278C7.98815 12.5683 7.0496 12.7875 6.11104 13.0235C5.40854 13.1977 5.08257 13.9283 5.37482 14.5466C5.62772 15.0692 6.14477 15.2828 6.76859 15.1029C9.04472 14.4398 11.3714 14.2937 13.715 14.5466C16.1878 14.8107 18.537 15.4795 20.6895 16.7721C21.2234 17.0924 21.8754 16.9126 22.1845 16.4012C22.4992 15.8785 22.3306 15.2153 21.7854 14.8894C21.4089 14.6646 21.0267 14.4454 20.6333 14.2543C17.8177 12.8549 14.8109 12.2704 11.2759 12.2255ZM20.5884 19.7676C20.594 19.4135 20.431 19.1438 20.1275 18.992C19.2452 18.5593 18.3797 18.0872 17.4636 17.7444C15.5303 17.0138 13.5127 16.789 11.4501 16.8283C9.83153 16.862 8.24105 17.0868 6.66743 17.4297C6.0998 17.5533 5.77384 17.986 5.88062 18.4637C6.00426 19.0145 6.43139 19.2674 7.03274 19.1325C9.01662 18.6998 11.0174 18.4637 13.0518 18.6042C14.4906 18.7054 15.8956 18.9639 17.2276 19.5147C17.9188 19.8013 18.5764 20.1554 19.2395 20.4982C19.8915 20.841 20.5884 20.4701 20.5884 19.7676Z" fill="white"/>
</svg>
