<svg enable-background="new 0 0 188 45" viewBox="0 0 188 45" xmlns="http://www.w3.org/2000/svg">
    <path d="m40.6 43.3c-3.2-7-6.5-14.2-9.8-21.5s-6.7-14.5-9.8-21.5c-.1-.2-.3-.3-.6-.3-.2 0-.5.1-.6.3l-19.8 43c-.1.2 0 .4.1.6.1.1.3.2.5.2h5.5c.2 0 .4-.1.6-.4l4.5-10h18.1v.1c.6 1.4 1.3 2.9 1.9 4.3.9 1.9 1.8 3.8 2.6 5.7.2.3.4.4.6.4h5.6c.2 0 .4-.1.5-.2.2-.2.2-.4.1-.7zm-26.8-15.3 6.5-14.7.1.2 6.5 14.5z"/>
    <path d="m58.5 17.1c-3.1 0-5.8 1.2-8 3.6l-.2.2v-20.4c0-.2-.3-.5-.6-.5h-4.9c-.3 0-.6.3-.6.5v43.1c0 .3.3.6.6.6h4.9c.4 0 .6-.2.6-.6v-2.3l.2.2c2.2 2.2 5 3.5 7.8 3.5 8.7 0 12.6-7.3 12.6-14.1 0-6.7-4.3-13.8-12.4-13.8zm-1.2 22.5c-4.8 0-7.3-4.3-7.3-8.6 0-4.1 2.6-8.5 7.3-8.5 4.5 0 7.6 3.5 7.6 8.5 0 4.3-2.3 8.6-7.6 8.6z"/>
    <path d="m80.4 0h-4.9c-.3 0-.6.3-.6.5v43.1c0 .3.3.6.6.6h4.9c.3 0 .6-.2.6-.6v-43.1c-.1-.2-.4-.5-.6-.5z"/>
    <path d="m98 17.1c-7.9 0-12.8 5.4-12.8 14.1 0 8.1 5.3 13.8 12.9 13.8 5.2 0 9.5-2.6 12-7.2v-.1c0-.2-.1-.4-.4-.6l-4.1-2.3c-.3-.2-.5-.1-.8.1-1.6 2.6-3.2 4.7-6.7 4.7-3.9 0-6.6-2.6-6.9-6.4v-.1h18.6c.3 0 .6-.2.6-.5v-.8c.1-6.8-3.2-14.7-12.4-14.7zm-6.3 10.9v-.1c.8-2.7 3.2-5.4 6.3-5.4 3.5 0 5.5 2.8 6.3 5.4v.1z"/>
    <path d="m129.9 17.9h-6v-6.9c0-.3-.2-.5-.6-.5h-4.9c-.3 0-.6.2-.6.5v2.9c0 1.3 0 4-3.6 4h-1c-.3 0-.6.3-.6.5v4.6c0 .4.5.5.6.5h4.6v11.1c0 7.1 2.7 10.5 8.4 10.5 1.7 0 3-.2 3.9-.6.2 0 .4-.3.4-.5v-4.8c0-.3-.3-.5-.6-.5-.1 0-.3.1-.4.1-.7.3-1.4.6-2.4.6-.2 0-.5 0-.7 0-2.5-.6-2.5-3.8-2.5-6v-9.8h6c.1 0 .6 0 .6-.5v-4.6c0-.3-.2-.6-.6-.6z"/>
    <path d="m147.1 17.1c-7.9 0-14.1 6.1-14.1 13.9s6.2 13.9 14.1 13.9 14.1-6.1 14.1-13.9-6.2-13.9-14.1-13.9zm0 22.2c-4.4 0-8-3.7-8-8.2s3.6-8.2 8-8.2 8.1 3.7 8.1 8.2-3.6 8.2-8.1 8.2z"/>
    <path d="m178 17.1c-2.6 0-5.2 1-6.8 2.7l-.2.2-.1-1.6c0-.2-.3-.5-.6-.5h-4.9c-.3 0-.6.3-.6.5v25.2c0 .3.3.6.6.6h4.9c.4 0 .6-.2.6-.6v-11.5c0-4.2 0-9.5 5.6-9.5 4.6 0 5 3 5 6.7v14.4c0 .3.3.6.6.6h4.9c.3 0 .6-.2.6-.6v-15c-.1-8.1-3-11.6-9.6-11.6z"/>
</svg>